G04 #@! TF.GenerationSoftware,KiCad,Pcbnew,5.1.4*
G04 #@! TF.CreationDate,2020-08-15T08:43:54-04:00*
G04 #@! TF.ProjectId,ai03-pcb-guide,61693033-2d70-4636-922d-67756964652e,rev?*
G04 #@! TF.SameCoordinates,Original*
G04 #@! TF.FileFunction,Legend,Top*
G04 #@! TF.FilePolarity,Positive*
%FSLAX46Y46*%
G04 Gerber Fmt 4.6, Leading zero omitted, Abs format (unit mm)*
G04 Created by KiCad (PCBNEW 5.1.4) date 2020-08-15 08:43:54*
%MOMM*%
%LPD*%
G04 APERTURE LIST*
%ADD10C,0.150000*%
%ADD11C,0.120000*%
G04 APERTURE END LIST*
D10*
X117677157Y-65336680D02*
X117677157Y-64336680D01*
X117677157Y-64812871D02*
X118248585Y-64812871D01*
X118248585Y-65336680D02*
X118248585Y-64336680D01*
X119105728Y-65289061D02*
X119010490Y-65336680D01*
X118820014Y-65336680D01*
X118724776Y-65289061D01*
X118677157Y-65193823D01*
X118677157Y-64812871D01*
X118724776Y-64717633D01*
X118820014Y-64670014D01*
X119010490Y-64670014D01*
X119105728Y-64717633D01*
X119153347Y-64812871D01*
X119153347Y-64908109D01*
X118677157Y-65003347D01*
X119724776Y-65336680D02*
X119629538Y-65289061D01*
X119581919Y-65193823D01*
X119581919Y-64336680D01*
X120248585Y-65336680D02*
X120153347Y-65289061D01*
X120105728Y-65193823D01*
X120105728Y-64336680D01*
X120772395Y-65336680D02*
X120677157Y-65289061D01*
X120629538Y-65241442D01*
X120581919Y-65146204D01*
X120581919Y-64860490D01*
X120629538Y-64765252D01*
X120677157Y-64717633D01*
X120772395Y-64670014D01*
X120915252Y-64670014D01*
X121010490Y-64717633D01*
X121058109Y-64765252D01*
X121105728Y-64860490D01*
X121105728Y-65146204D01*
X121058109Y-65241442D01*
X121010490Y-65289061D01*
X120915252Y-65336680D01*
X120772395Y-65336680D01*
X122200966Y-64336680D02*
X122439061Y-65336680D01*
X122629538Y-64622395D01*
X122820014Y-65336680D01*
X123058109Y-64336680D01*
X123581919Y-65336680D02*
X123486680Y-65289061D01*
X123439061Y-65241442D01*
X123391442Y-65146204D01*
X123391442Y-64860490D01*
X123439061Y-64765252D01*
X123486680Y-64717633D01*
X123581919Y-64670014D01*
X123724776Y-64670014D01*
X123820014Y-64717633D01*
X123867633Y-64765252D01*
X123915252Y-64860490D01*
X123915252Y-65146204D01*
X123867633Y-65241442D01*
X123820014Y-65289061D01*
X123724776Y-65336680D01*
X123581919Y-65336680D01*
X124343823Y-65336680D02*
X124343823Y-64670014D01*
X124343823Y-64860490D02*
X124391442Y-64765252D01*
X124439061Y-64717633D01*
X124534300Y-64670014D01*
X124629538Y-64670014D01*
X125105728Y-65336680D02*
X125010490Y-65289061D01*
X124962871Y-65193823D01*
X124962871Y-64336680D01*
X125915252Y-65336680D02*
X125915252Y-64336680D01*
X125915252Y-65289061D02*
X125820014Y-65336680D01*
X125629538Y-65336680D01*
X125534300Y-65289061D01*
X125486680Y-65241442D01*
X125439061Y-65146204D01*
X125439061Y-64860490D01*
X125486680Y-64765252D01*
X125534300Y-64717633D01*
X125629538Y-64670014D01*
X125820014Y-64670014D01*
X125915252Y-64717633D01*
X126391442Y-65241442D02*
X126439061Y-65289061D01*
X126391442Y-65336680D01*
X126343823Y-65289061D01*
X126391442Y-65241442D01*
X126391442Y-65336680D01*
X126391442Y-64955728D02*
X126343823Y-64384300D01*
X126391442Y-64336680D01*
X126439061Y-64384300D01*
X126391442Y-64955728D01*
X126391442Y-64336680D01*
D11*
X42862500Y-101600000D02*
X47625000Y-101600000D01*
X39687500Y-96043750D02*
X39687500Y-98425000D01*
X42862500Y-101600000D02*
G75*
G02X39687500Y-98425000I0J3175000D01*
G01*
X163512500Y-101600000D02*
X47625000Y-101600000D01*
X39687500Y-65087500D02*
X39687500Y-96043750D01*
X47625000Y-63500000D02*
X41275000Y-63500000D01*
X39687500Y-65087500D02*
G75*
G02X41275000Y-63500000I1587500J0D01*
G01*
X163512500Y-63500000D02*
X47625000Y-63500000D01*
X165100000Y-100012500D02*
X165100000Y-65087500D01*
X165100000Y-100012500D02*
G75*
G02X163512500Y-101600000I-1587500J0D01*
G01*
X163512500Y-63500000D02*
G75*
G02X165100000Y-65087500I0J-1587500D01*
G01*
M02*
