G04 #@! TF.GenerationSoftware,KiCad,Pcbnew,5.1.4*
G04 #@! TF.CreationDate,2020-08-15T08:43:54-04:00*
G04 #@! TF.ProjectId,ai03-pcb-guide,61693033-2d70-4636-922d-67756964652e,rev?*
G04 #@! TF.SameCoordinates,Original*
G04 #@! TF.FileFunction,Legend,Bot*
G04 #@! TF.FilePolarity,Positive*
%FSLAX46Y46*%
G04 Gerber Fmt 4.6, Leading zero omitted, Abs format (unit mm)*
G04 Created by KiCad (PCBNEW 5.1.4) date 2020-08-15 08:43:54*
%MOMM*%
%LPD*%
G04 APERTURE LIST*
%ADD10C,0.120000*%
%ADD11C,0.150000*%
G04 APERTURE END LIST*
D10*
X164690300Y-75338500D02*
X164690300Y-71438500D01*
X162690300Y-75338500D02*
X162690300Y-71438500D01*
X164690300Y-75338500D02*
X162690300Y-75338500D01*
X84402500Y-69835400D02*
X80402500Y-69835400D01*
X84402500Y-66535400D02*
X84402500Y-69835400D01*
D11*
X43775000Y-65087500D02*
X43775000Y-70537500D01*
X51475000Y-65087500D02*
X51475000Y-70537500D01*
X43775000Y-70537500D02*
X51475000Y-70537500D01*
X77857600Y-87531000D02*
X76582600Y-87531000D01*
X88207600Y-88106000D02*
X87532600Y-88106000D01*
X88207600Y-77756000D02*
X87532600Y-77756000D01*
X77857600Y-77756000D02*
X78532600Y-77756000D01*
X77857600Y-88106000D02*
X78532600Y-88106000D01*
X77857600Y-77756000D02*
X77857600Y-78431000D01*
X88207600Y-77756000D02*
X88207600Y-78431000D01*
X88207600Y-88106000D02*
X88207600Y-87431000D01*
X77857600Y-88106000D02*
X77857600Y-87531000D01*
X51093750Y-91325000D02*
X45893750Y-91325000D01*
X45893750Y-91325000D02*
X45893750Y-96525000D01*
X45893750Y-96525000D02*
X51093750Y-96525000D01*
X51093750Y-96525000D02*
X51093750Y-91325000D01*
X49493750Y-93925000D02*
G75*
G03X49493750Y-93925000I-1000000J0D01*
G01*
D10*
X91365000Y-86921078D02*
X91365000Y-86403922D01*
X92785000Y-86921078D02*
X92785000Y-86403922D01*
X72941250Y-74497672D02*
X72941250Y-75014828D01*
X71521250Y-74497672D02*
X71521250Y-75014828D01*
X48769200Y-76341978D02*
X48769200Y-75824822D01*
X50189200Y-76341978D02*
X50189200Y-75824822D01*
X45327500Y-76314828D02*
X45327500Y-75797672D01*
X46747500Y-76314828D02*
X46747500Y-75797672D01*
X41952500Y-83758314D02*
X41952500Y-82554186D01*
X43772500Y-83758314D02*
X43772500Y-82554186D01*
X164690300Y-94388500D02*
X164690300Y-90488500D01*
X162690300Y-94388500D02*
X162690300Y-90488500D01*
X164690300Y-94388500D02*
X162690300Y-94388500D01*
X145640300Y-94388500D02*
X145640300Y-90488500D01*
X143640300Y-94388500D02*
X143640300Y-90488500D01*
X145640300Y-94388500D02*
X143640300Y-94388500D01*
X145640300Y-75338500D02*
X145640300Y-71438500D01*
X143640300Y-75338500D02*
X143640300Y-71438500D01*
X145640300Y-75338500D02*
X143640300Y-75338500D01*
X79116422Y-91365000D02*
X79633578Y-91365000D01*
X79116422Y-92785000D02*
X79633578Y-92785000D01*
X72316078Y-82777400D02*
X71798922Y-82777400D01*
X72316078Y-81357400D02*
X71798922Y-81357400D01*
X91365000Y-79777328D02*
X91365000Y-79260172D01*
X92785000Y-79777328D02*
X92785000Y-79260172D01*
X87427328Y-92785000D02*
X86910172Y-92785000D01*
X87427328Y-91365000D02*
X86910172Y-91365000D01*
X76785400Y-67874622D02*
X76785400Y-68391778D01*
X78205400Y-67874622D02*
X78205400Y-68391778D01*
X86640600Y-68485278D02*
X86640600Y-67968122D01*
X88060600Y-68485278D02*
X88060600Y-67968122D01*
X74696250Y-75014828D02*
X74696250Y-74497672D01*
X76116250Y-75014828D02*
X76116250Y-74497672D01*
D11*
X166142680Y-72350404D02*
X165142680Y-72350404D01*
X165142680Y-72588500D01*
X165190300Y-72731357D01*
X165285538Y-72826595D01*
X165380776Y-72874214D01*
X165571252Y-72921833D01*
X165714109Y-72921833D01*
X165904585Y-72874214D01*
X165999823Y-72826595D01*
X166095061Y-72731357D01*
X166142680Y-72588500D01*
X166142680Y-72350404D01*
X165142680Y-73255166D02*
X165142680Y-73874214D01*
X165523633Y-73540880D01*
X165523633Y-73683738D01*
X165571252Y-73778976D01*
X165618871Y-73826595D01*
X165714109Y-73874214D01*
X165952204Y-73874214D01*
X166047442Y-73826595D01*
X166095061Y-73778976D01*
X166142680Y-73683738D01*
X166142680Y-73398023D01*
X166095061Y-73302785D01*
X166047442Y-73255166D01*
X83026190Y-65857440D02*
X83026190Y-66333630D01*
X83359523Y-65333630D02*
X83026190Y-65857440D01*
X82692857Y-65333630D01*
X81835714Y-66333630D02*
X82407142Y-66333630D01*
X82121428Y-66333630D02*
X82121428Y-65333630D01*
X82216666Y-65476488D01*
X82311904Y-65571726D01*
X82407142Y-65619345D01*
X49363095Y-66571880D02*
X49363095Y-67381404D01*
X49315476Y-67476642D01*
X49267857Y-67524261D01*
X49172619Y-67571880D01*
X48982142Y-67571880D01*
X48886904Y-67524261D01*
X48839285Y-67476642D01*
X48791666Y-67381404D01*
X48791666Y-66571880D01*
X48363095Y-67524261D02*
X48220238Y-67571880D01*
X47982142Y-67571880D01*
X47886904Y-67524261D01*
X47839285Y-67476642D01*
X47791666Y-67381404D01*
X47791666Y-67286166D01*
X47839285Y-67190928D01*
X47886904Y-67143309D01*
X47982142Y-67095690D01*
X48172619Y-67048071D01*
X48267857Y-67000452D01*
X48315476Y-66952833D01*
X48363095Y-66857595D01*
X48363095Y-66762357D01*
X48315476Y-66667119D01*
X48267857Y-66619500D01*
X48172619Y-66571880D01*
X47934523Y-66571880D01*
X47791666Y-66619500D01*
X47029761Y-67048071D02*
X46886904Y-67095690D01*
X46839285Y-67143309D01*
X46791666Y-67238547D01*
X46791666Y-67381404D01*
X46839285Y-67476642D01*
X46886904Y-67524261D01*
X46982142Y-67571880D01*
X47363095Y-67571880D01*
X47363095Y-66571880D01*
X47029761Y-66571880D01*
X46934523Y-66619500D01*
X46886904Y-66667119D01*
X46839285Y-66762357D01*
X46839285Y-66857595D01*
X46886904Y-66952833D01*
X46934523Y-67000452D01*
X47029761Y-67048071D01*
X47363095Y-67048071D01*
X45839285Y-67571880D02*
X46410714Y-67571880D01*
X46125000Y-67571880D02*
X46125000Y-66571880D01*
X46220238Y-66714738D01*
X46315476Y-66809976D01*
X46410714Y-66857595D01*
X83794504Y-89833380D02*
X83794504Y-90642904D01*
X83746885Y-90738142D01*
X83699266Y-90785761D01*
X83604028Y-90833380D01*
X83413552Y-90833380D01*
X83318314Y-90785761D01*
X83270695Y-90738142D01*
X83223076Y-90642904D01*
X83223076Y-89833380D01*
X82223076Y-90833380D02*
X82794504Y-90833380D01*
X82508790Y-90833380D02*
X82508790Y-89833380D01*
X82604028Y-89976238D01*
X82699266Y-90071476D01*
X82794504Y-90119095D01*
X49827083Y-98393761D02*
X49684226Y-98441380D01*
X49446130Y-98441380D01*
X49350892Y-98393761D01*
X49303273Y-98346142D01*
X49255654Y-98250904D01*
X49255654Y-98155666D01*
X49303273Y-98060428D01*
X49350892Y-98012809D01*
X49446130Y-97965190D01*
X49636607Y-97917571D01*
X49731845Y-97869952D01*
X49779464Y-97822333D01*
X49827083Y-97727095D01*
X49827083Y-97631857D01*
X49779464Y-97536619D01*
X49731845Y-97489000D01*
X49636607Y-97441380D01*
X49398511Y-97441380D01*
X49255654Y-97489000D01*
X48922321Y-97441380D02*
X48684226Y-98441380D01*
X48493750Y-97727095D01*
X48303273Y-98441380D01*
X48065178Y-97441380D01*
X47160416Y-98441380D02*
X47731845Y-98441380D01*
X47446130Y-98441380D02*
X47446130Y-97441380D01*
X47541369Y-97584238D01*
X47636607Y-97679476D01*
X47731845Y-97727095D01*
X94177380Y-86495833D02*
X93701190Y-86162500D01*
X94177380Y-85924404D02*
X93177380Y-85924404D01*
X93177380Y-86305357D01*
X93225000Y-86400595D01*
X93272619Y-86448214D01*
X93367857Y-86495833D01*
X93510714Y-86495833D01*
X93605952Y-86448214D01*
X93653571Y-86400595D01*
X93701190Y-86305357D01*
X93701190Y-85924404D01*
X93510714Y-87352976D02*
X94177380Y-87352976D01*
X93129761Y-87114880D02*
X93844047Y-86876785D01*
X93844047Y-87495833D01*
X71033630Y-74589583D02*
X70557440Y-74256250D01*
X71033630Y-74018154D02*
X70033630Y-74018154D01*
X70033630Y-74399107D01*
X70081250Y-74494345D01*
X70128869Y-74541964D01*
X70224107Y-74589583D01*
X70366964Y-74589583D01*
X70462202Y-74541964D01*
X70509821Y-74494345D01*
X70557440Y-74399107D01*
X70557440Y-74018154D01*
X70033630Y-74922916D02*
X70033630Y-75541964D01*
X70414583Y-75208630D01*
X70414583Y-75351488D01*
X70462202Y-75446726D01*
X70509821Y-75494345D01*
X70605059Y-75541964D01*
X70843154Y-75541964D01*
X70938392Y-75494345D01*
X70986011Y-75446726D01*
X71033630Y-75351488D01*
X71033630Y-75065773D01*
X70986011Y-74970535D01*
X70938392Y-74922916D01*
X51581580Y-75916733D02*
X51105390Y-75583400D01*
X51581580Y-75345304D02*
X50581580Y-75345304D01*
X50581580Y-75726257D01*
X50629200Y-75821495D01*
X50676819Y-75869114D01*
X50772057Y-75916733D01*
X50914914Y-75916733D01*
X51010152Y-75869114D01*
X51057771Y-75821495D01*
X51105390Y-75726257D01*
X51105390Y-75345304D01*
X50676819Y-76297685D02*
X50629200Y-76345304D01*
X50581580Y-76440542D01*
X50581580Y-76678638D01*
X50629200Y-76773876D01*
X50676819Y-76821495D01*
X50772057Y-76869114D01*
X50867295Y-76869114D01*
X51010152Y-76821495D01*
X51581580Y-76250066D01*
X51581580Y-76869114D01*
X48139880Y-75889583D02*
X47663690Y-75556250D01*
X48139880Y-75318154D02*
X47139880Y-75318154D01*
X47139880Y-75699107D01*
X47187500Y-75794345D01*
X47235119Y-75841964D01*
X47330357Y-75889583D01*
X47473214Y-75889583D01*
X47568452Y-75841964D01*
X47616071Y-75794345D01*
X47663690Y-75699107D01*
X47663690Y-75318154D01*
X48139880Y-76841964D02*
X48139880Y-76270535D01*
X48139880Y-76556250D02*
X47139880Y-76556250D01*
X47282738Y-76461011D01*
X47377976Y-76365773D01*
X47425595Y-76270535D01*
X44611071Y-82822916D02*
X44611071Y-82489583D01*
X45134880Y-82489583D02*
X44134880Y-82489583D01*
X44134880Y-82965773D01*
X45134880Y-83870535D02*
X45134880Y-83299107D01*
X45134880Y-83584821D02*
X44134880Y-83584821D01*
X44277738Y-83489583D01*
X44372976Y-83394345D01*
X44420595Y-83299107D01*
X166142680Y-91400404D02*
X165142680Y-91400404D01*
X165142680Y-91638500D01*
X165190300Y-91781357D01*
X165285538Y-91876595D01*
X165380776Y-91924214D01*
X165571252Y-91971833D01*
X165714109Y-91971833D01*
X165904585Y-91924214D01*
X165999823Y-91876595D01*
X166095061Y-91781357D01*
X166142680Y-91638500D01*
X166142680Y-91400404D01*
X165476014Y-92828976D02*
X166142680Y-92828976D01*
X165095061Y-92590880D02*
X165809347Y-92352785D01*
X165809347Y-92971833D01*
X147092680Y-91400404D02*
X146092680Y-91400404D01*
X146092680Y-91638500D01*
X146140300Y-91781357D01*
X146235538Y-91876595D01*
X146330776Y-91924214D01*
X146521252Y-91971833D01*
X146664109Y-91971833D01*
X146854585Y-91924214D01*
X146949823Y-91876595D01*
X147045061Y-91781357D01*
X147092680Y-91638500D01*
X147092680Y-91400404D01*
X146187919Y-92352785D02*
X146140300Y-92400404D01*
X146092680Y-92495642D01*
X146092680Y-92733738D01*
X146140300Y-92828976D01*
X146187919Y-92876595D01*
X146283157Y-92924214D01*
X146378395Y-92924214D01*
X146521252Y-92876595D01*
X147092680Y-92305166D01*
X147092680Y-92924214D01*
X147092680Y-72350404D02*
X146092680Y-72350404D01*
X146092680Y-72588500D01*
X146140300Y-72731357D01*
X146235538Y-72826595D01*
X146330776Y-72874214D01*
X146521252Y-72921833D01*
X146664109Y-72921833D01*
X146854585Y-72874214D01*
X146949823Y-72826595D01*
X147045061Y-72731357D01*
X147092680Y-72588500D01*
X147092680Y-72350404D01*
X147092680Y-73874214D02*
X147092680Y-73302785D01*
X147092680Y-73588500D02*
X146092680Y-73588500D01*
X146235538Y-73493261D01*
X146330776Y-73398023D01*
X146378395Y-73302785D01*
X79541666Y-94082142D02*
X79589285Y-94129761D01*
X79732142Y-94177380D01*
X79827380Y-94177380D01*
X79970238Y-94129761D01*
X80065476Y-94034523D01*
X80113095Y-93939285D01*
X80160714Y-93748809D01*
X80160714Y-93605952D01*
X80113095Y-93415476D01*
X80065476Y-93320238D01*
X79970238Y-93225000D01*
X79827380Y-93177380D01*
X79732142Y-93177380D01*
X79589285Y-93225000D01*
X79541666Y-93272619D01*
X79208333Y-93177380D02*
X78541666Y-93177380D01*
X78970238Y-94177380D01*
X72224166Y-80774542D02*
X72271785Y-80822161D01*
X72414642Y-80869780D01*
X72509880Y-80869780D01*
X72652738Y-80822161D01*
X72747976Y-80726923D01*
X72795595Y-80631685D01*
X72843214Y-80441209D01*
X72843214Y-80298352D01*
X72795595Y-80107876D01*
X72747976Y-80012638D01*
X72652738Y-79917400D01*
X72509880Y-79869780D01*
X72414642Y-79869780D01*
X72271785Y-79917400D01*
X72224166Y-79965019D01*
X71367023Y-79869780D02*
X71557500Y-79869780D01*
X71652738Y-79917400D01*
X71700357Y-79965019D01*
X71795595Y-80107876D01*
X71843214Y-80298352D01*
X71843214Y-80679304D01*
X71795595Y-80774542D01*
X71747976Y-80822161D01*
X71652738Y-80869780D01*
X71462261Y-80869780D01*
X71367023Y-80822161D01*
X71319404Y-80774542D01*
X71271785Y-80679304D01*
X71271785Y-80441209D01*
X71319404Y-80345971D01*
X71367023Y-80298352D01*
X71462261Y-80250733D01*
X71652738Y-80250733D01*
X71747976Y-80298352D01*
X71795595Y-80345971D01*
X71843214Y-80441209D01*
X94082142Y-79352083D02*
X94129761Y-79304464D01*
X94177380Y-79161607D01*
X94177380Y-79066369D01*
X94129761Y-78923511D01*
X94034523Y-78828273D01*
X93939285Y-78780654D01*
X93748809Y-78733035D01*
X93605952Y-78733035D01*
X93415476Y-78780654D01*
X93320238Y-78828273D01*
X93225000Y-78923511D01*
X93177380Y-79066369D01*
X93177380Y-79161607D01*
X93225000Y-79304464D01*
X93272619Y-79352083D01*
X93177380Y-80256845D02*
X93177380Y-79780654D01*
X93653571Y-79733035D01*
X93605952Y-79780654D01*
X93558333Y-79875892D01*
X93558333Y-80113988D01*
X93605952Y-80209226D01*
X93653571Y-80256845D01*
X93748809Y-80304464D01*
X93986904Y-80304464D01*
X94082142Y-80256845D01*
X94129761Y-80209226D01*
X94177380Y-80113988D01*
X94177380Y-79875892D01*
X94129761Y-79780654D01*
X94082142Y-79733035D01*
X87335416Y-90782142D02*
X87383035Y-90829761D01*
X87525892Y-90877380D01*
X87621130Y-90877380D01*
X87763988Y-90829761D01*
X87859226Y-90734523D01*
X87906845Y-90639285D01*
X87954464Y-90448809D01*
X87954464Y-90305952D01*
X87906845Y-90115476D01*
X87859226Y-90020238D01*
X87763988Y-89925000D01*
X87621130Y-89877380D01*
X87525892Y-89877380D01*
X87383035Y-89925000D01*
X87335416Y-89972619D01*
X86478273Y-90210714D02*
X86478273Y-90877380D01*
X86716369Y-89829761D02*
X86954464Y-90544047D01*
X86335416Y-90544047D01*
X76202542Y-67966533D02*
X76250161Y-67918914D01*
X76297780Y-67776057D01*
X76297780Y-67680819D01*
X76250161Y-67537961D01*
X76154923Y-67442723D01*
X76059685Y-67395104D01*
X75869209Y-67347485D01*
X75726352Y-67347485D01*
X75535876Y-67395104D01*
X75440638Y-67442723D01*
X75345400Y-67537961D01*
X75297780Y-67680819D01*
X75297780Y-67776057D01*
X75345400Y-67918914D01*
X75393019Y-67966533D01*
X75297780Y-68299866D02*
X75297780Y-68918914D01*
X75678733Y-68585580D01*
X75678733Y-68728438D01*
X75726352Y-68823676D01*
X75773971Y-68871295D01*
X75869209Y-68918914D01*
X76107304Y-68918914D01*
X76202542Y-68871295D01*
X76250161Y-68823676D01*
X76297780Y-68728438D01*
X76297780Y-68442723D01*
X76250161Y-68347485D01*
X76202542Y-68299866D01*
X89357742Y-68060033D02*
X89405361Y-68012414D01*
X89452980Y-67869557D01*
X89452980Y-67774319D01*
X89405361Y-67631461D01*
X89310123Y-67536223D01*
X89214885Y-67488604D01*
X89024409Y-67440985D01*
X88881552Y-67440985D01*
X88691076Y-67488604D01*
X88595838Y-67536223D01*
X88500600Y-67631461D01*
X88452980Y-67774319D01*
X88452980Y-67869557D01*
X88500600Y-68012414D01*
X88548219Y-68060033D01*
X88548219Y-68440985D02*
X88500600Y-68488604D01*
X88452980Y-68583842D01*
X88452980Y-68821938D01*
X88500600Y-68917176D01*
X88548219Y-68964795D01*
X88643457Y-69012414D01*
X88738695Y-69012414D01*
X88881552Y-68964795D01*
X89452980Y-68393366D01*
X89452980Y-69012414D01*
X77413392Y-74589583D02*
X77461011Y-74541964D01*
X77508630Y-74399107D01*
X77508630Y-74303869D01*
X77461011Y-74161011D01*
X77365773Y-74065773D01*
X77270535Y-74018154D01*
X77080059Y-73970535D01*
X76937202Y-73970535D01*
X76746726Y-74018154D01*
X76651488Y-74065773D01*
X76556250Y-74161011D01*
X76508630Y-74303869D01*
X76508630Y-74399107D01*
X76556250Y-74541964D01*
X76603869Y-74589583D01*
X77508630Y-75541964D02*
X77508630Y-74970535D01*
X77508630Y-75256250D02*
X76508630Y-75256250D01*
X76651488Y-75161011D01*
X76746726Y-75065773D01*
X76794345Y-74970535D01*
M02*
