G04 #@! TF.GenerationSoftware,KiCad,Pcbnew,5.1.4*
G04 #@! TF.CreationDate,2020-08-15T08:43:54-04:00*
G04 #@! TF.ProjectId,ai03-pcb-guide,61693033-2d70-4636-922d-67756964652e,rev?*
G04 #@! TF.SameCoordinates,Original*
G04 #@! TF.FileFunction,Soldermask,Bot*
G04 #@! TF.FilePolarity,Negative*
%FSLAX46Y46*%
G04 Gerber Fmt 4.6, Leading zero omitted, Abs format (unit mm)*
G04 Created by KiCad (PCBNEW 5.1.4) date 2020-08-15 08:43:54*
%MOMM*%
%LPD*%
G04 APERTURE LIST*
%ADD10C,0.100000*%
G04 APERTURE END LIST*
D10*
G36*
X52544750Y-96376000D02*
G01*
X50642750Y-96376000D01*
X50642750Y-95174000D01*
X52544750Y-95174000D01*
X52544750Y-96376000D01*
X52544750Y-96376000D01*
G37*
G36*
X46344750Y-96376000D02*
G01*
X44442750Y-96376000D01*
X44442750Y-95174000D01*
X46344750Y-95174000D01*
X46344750Y-96376000D01*
X46344750Y-96376000D01*
G37*
G36*
X164341300Y-94289500D02*
G01*
X163039300Y-94289500D01*
X163039300Y-93287500D01*
X164341300Y-93287500D01*
X164341300Y-94289500D01*
X164341300Y-94289500D01*
G37*
G36*
X145291300Y-94289500D02*
G01*
X143989300Y-94289500D01*
X143989300Y-93287500D01*
X145291300Y-93287500D01*
X145291300Y-94289500D01*
X145291300Y-94289500D01*
G37*
G36*
X137299274Y-90172184D02*
G01*
X137517274Y-90262483D01*
X137671423Y-90326333D01*
X138006348Y-90550123D01*
X138291177Y-90834952D01*
X138514967Y-91169877D01*
X138547362Y-91248086D01*
X138669116Y-91542026D01*
X138747700Y-91937094D01*
X138747700Y-92339906D01*
X138669116Y-92734974D01*
X138618251Y-92857772D01*
X138514967Y-93107123D01*
X138291177Y-93442048D01*
X138006348Y-93726877D01*
X137671423Y-93950667D01*
X137517274Y-94014517D01*
X137299274Y-94104816D01*
X136904206Y-94183400D01*
X136501394Y-94183400D01*
X136106326Y-94104816D01*
X135888326Y-94014517D01*
X135734177Y-93950667D01*
X135399252Y-93726877D01*
X135114423Y-93442048D01*
X134890633Y-93107123D01*
X134787349Y-92857772D01*
X134736484Y-92734974D01*
X134657900Y-92339906D01*
X134657900Y-91937094D01*
X134736484Y-91542026D01*
X134858238Y-91248086D01*
X134890633Y-91169877D01*
X135114423Y-90834952D01*
X135399252Y-90550123D01*
X135734177Y-90326333D01*
X135888326Y-90262483D01*
X136106326Y-90172184D01*
X136501394Y-90093600D01*
X136904206Y-90093600D01*
X137299274Y-90172184D01*
X137299274Y-90172184D01*
G37*
G36*
X156349274Y-90172184D02*
G01*
X156567274Y-90262483D01*
X156721423Y-90326333D01*
X157056348Y-90550123D01*
X157341177Y-90834952D01*
X157564967Y-91169877D01*
X157597362Y-91248086D01*
X157719116Y-91542026D01*
X157797700Y-91937094D01*
X157797700Y-92339906D01*
X157719116Y-92734974D01*
X157668251Y-92857772D01*
X157564967Y-93107123D01*
X157341177Y-93442048D01*
X157056348Y-93726877D01*
X156721423Y-93950667D01*
X156567274Y-94014517D01*
X156349274Y-94104816D01*
X155954206Y-94183400D01*
X155551394Y-94183400D01*
X155156326Y-94104816D01*
X154938326Y-94014517D01*
X154784177Y-93950667D01*
X154449252Y-93726877D01*
X154164423Y-93442048D01*
X153940633Y-93107123D01*
X153837349Y-92857772D01*
X153786484Y-92734974D01*
X153707900Y-92339906D01*
X153707900Y-91937094D01*
X153786484Y-91542026D01*
X153908238Y-91248086D01*
X153940633Y-91169877D01*
X154164423Y-90834952D01*
X154449252Y-90550123D01*
X154784177Y-90326333D01*
X154938326Y-90262483D01*
X155156326Y-90172184D01*
X155551394Y-90093600D01*
X155954206Y-90093600D01*
X156349274Y-90172184D01*
X156349274Y-90172184D01*
G37*
G36*
X161102904Y-91248085D02*
G01*
X161271426Y-91317889D01*
X161423091Y-91419228D01*
X161552072Y-91548209D01*
X161653411Y-91699874D01*
X161723215Y-91868396D01*
X161758800Y-92047297D01*
X161758800Y-92229703D01*
X161723215Y-92408604D01*
X161653411Y-92577126D01*
X161552072Y-92728791D01*
X161423091Y-92857772D01*
X161271426Y-92959111D01*
X161102904Y-93028915D01*
X160924003Y-93064500D01*
X160741597Y-93064500D01*
X160562696Y-93028915D01*
X160394174Y-92959111D01*
X160242509Y-92857772D01*
X160113528Y-92728791D01*
X160012189Y-92577126D01*
X159942385Y-92408604D01*
X159906800Y-92229703D01*
X159906800Y-92047297D01*
X159942385Y-91868396D01*
X160012189Y-91699874D01*
X160113528Y-91548209D01*
X160242509Y-91419228D01*
X160394174Y-91317889D01*
X160562696Y-91248085D01*
X160741597Y-91212500D01*
X160924003Y-91212500D01*
X161102904Y-91248085D01*
X161102904Y-91248085D01*
G37*
G36*
X150942904Y-91248085D02*
G01*
X151111426Y-91317889D01*
X151263091Y-91419228D01*
X151392072Y-91548209D01*
X151493411Y-91699874D01*
X151563215Y-91868396D01*
X151598800Y-92047297D01*
X151598800Y-92229703D01*
X151563215Y-92408604D01*
X151493411Y-92577126D01*
X151392072Y-92728791D01*
X151263091Y-92857772D01*
X151111426Y-92959111D01*
X150942904Y-93028915D01*
X150764003Y-93064500D01*
X150581597Y-93064500D01*
X150402696Y-93028915D01*
X150234174Y-92959111D01*
X150082509Y-92857772D01*
X149953528Y-92728791D01*
X149852189Y-92577126D01*
X149782385Y-92408604D01*
X149746800Y-92229703D01*
X149746800Y-92047297D01*
X149782385Y-91868396D01*
X149852189Y-91699874D01*
X149953528Y-91548209D01*
X150082509Y-91419228D01*
X150234174Y-91317889D01*
X150402696Y-91248085D01*
X150581597Y-91212500D01*
X150764003Y-91212500D01*
X150942904Y-91248085D01*
X150942904Y-91248085D01*
G37*
G36*
X131892904Y-91248085D02*
G01*
X132061426Y-91317889D01*
X132213091Y-91419228D01*
X132342072Y-91548209D01*
X132443411Y-91699874D01*
X132513215Y-91868396D01*
X132548800Y-92047297D01*
X132548800Y-92229703D01*
X132513215Y-92408604D01*
X132443411Y-92577126D01*
X132342072Y-92728791D01*
X132213091Y-92857772D01*
X132061426Y-92959111D01*
X131892904Y-93028915D01*
X131714003Y-93064500D01*
X131531597Y-93064500D01*
X131352696Y-93028915D01*
X131184174Y-92959111D01*
X131032509Y-92857772D01*
X130903528Y-92728791D01*
X130802189Y-92577126D01*
X130732385Y-92408604D01*
X130696800Y-92229703D01*
X130696800Y-92047297D01*
X130732385Y-91868396D01*
X130802189Y-91699874D01*
X130903528Y-91548209D01*
X131032509Y-91419228D01*
X131184174Y-91317889D01*
X131352696Y-91248085D01*
X131531597Y-91212500D01*
X131714003Y-91212500D01*
X131892904Y-91248085D01*
X131892904Y-91248085D01*
G37*
G36*
X142052904Y-91248085D02*
G01*
X142221426Y-91317889D01*
X142373091Y-91419228D01*
X142502072Y-91548209D01*
X142603411Y-91699874D01*
X142673215Y-91868396D01*
X142708800Y-92047297D01*
X142708800Y-92229703D01*
X142673215Y-92408604D01*
X142603411Y-92577126D01*
X142502072Y-92728791D01*
X142373091Y-92857772D01*
X142221426Y-92959111D01*
X142052904Y-93028915D01*
X141874003Y-93064500D01*
X141691597Y-93064500D01*
X141512696Y-93028915D01*
X141344174Y-92959111D01*
X141192509Y-92857772D01*
X141063528Y-92728791D01*
X140962189Y-92577126D01*
X140892385Y-92408604D01*
X140856800Y-92229703D01*
X140856800Y-92047297D01*
X140892385Y-91868396D01*
X140962189Y-91699874D01*
X141063528Y-91548209D01*
X141192509Y-91419228D01*
X141344174Y-91317889D01*
X141512696Y-91248085D01*
X141691597Y-91212500D01*
X141874003Y-91212500D01*
X142052904Y-91248085D01*
X142052904Y-91248085D01*
G37*
G36*
X80684468Y-91328565D02*
G01*
X80723138Y-91340296D01*
X80758777Y-91359346D01*
X80790017Y-91384983D01*
X80815654Y-91416223D01*
X80834704Y-91451862D01*
X80846435Y-91490532D01*
X80851000Y-91536888D01*
X80851000Y-92613112D01*
X80846435Y-92659468D01*
X80834704Y-92698138D01*
X80815654Y-92733777D01*
X80790017Y-92765017D01*
X80758777Y-92790654D01*
X80723138Y-92809704D01*
X80684468Y-92821435D01*
X80638112Y-92826000D01*
X79986888Y-92826000D01*
X79940532Y-92821435D01*
X79901862Y-92809704D01*
X79866223Y-92790654D01*
X79834983Y-92765017D01*
X79809346Y-92733777D01*
X79790296Y-92698138D01*
X79778565Y-92659468D01*
X79774000Y-92613112D01*
X79774000Y-91536888D01*
X79778565Y-91490532D01*
X79790296Y-91451862D01*
X79809346Y-91416223D01*
X79834983Y-91384983D01*
X79866223Y-91359346D01*
X79901862Y-91340296D01*
X79940532Y-91328565D01*
X79986888Y-91324000D01*
X80638112Y-91324000D01*
X80684468Y-91328565D01*
X80684468Y-91328565D01*
G37*
G36*
X78809468Y-91328565D02*
G01*
X78848138Y-91340296D01*
X78883777Y-91359346D01*
X78915017Y-91384983D01*
X78940654Y-91416223D01*
X78959704Y-91451862D01*
X78971435Y-91490532D01*
X78976000Y-91536888D01*
X78976000Y-92613112D01*
X78971435Y-92659468D01*
X78959704Y-92698138D01*
X78940654Y-92733777D01*
X78915017Y-92765017D01*
X78883777Y-92790654D01*
X78848138Y-92809704D01*
X78809468Y-92821435D01*
X78763112Y-92826000D01*
X78111888Y-92826000D01*
X78065532Y-92821435D01*
X78026862Y-92809704D01*
X77991223Y-92790654D01*
X77959983Y-92765017D01*
X77934346Y-92733777D01*
X77915296Y-92698138D01*
X77903565Y-92659468D01*
X77899000Y-92613112D01*
X77899000Y-91536888D01*
X77903565Y-91490532D01*
X77915296Y-91451862D01*
X77934346Y-91416223D01*
X77959983Y-91384983D01*
X77991223Y-91359346D01*
X78026862Y-91340296D01*
X78065532Y-91328565D01*
X78111888Y-91324000D01*
X78763112Y-91324000D01*
X78809468Y-91328565D01*
X78809468Y-91328565D01*
G37*
G36*
X86603218Y-91328565D02*
G01*
X86641888Y-91340296D01*
X86677527Y-91359346D01*
X86708767Y-91384983D01*
X86734404Y-91416223D01*
X86753454Y-91451862D01*
X86765185Y-91490532D01*
X86769750Y-91536888D01*
X86769750Y-92613112D01*
X86765185Y-92659468D01*
X86753454Y-92698138D01*
X86734404Y-92733777D01*
X86708767Y-92765017D01*
X86677527Y-92790654D01*
X86641888Y-92809704D01*
X86603218Y-92821435D01*
X86556862Y-92826000D01*
X85905638Y-92826000D01*
X85859282Y-92821435D01*
X85820612Y-92809704D01*
X85784973Y-92790654D01*
X85753733Y-92765017D01*
X85728096Y-92733777D01*
X85709046Y-92698138D01*
X85697315Y-92659468D01*
X85692750Y-92613112D01*
X85692750Y-91536888D01*
X85697315Y-91490532D01*
X85709046Y-91451862D01*
X85728096Y-91416223D01*
X85753733Y-91384983D01*
X85784973Y-91359346D01*
X85820612Y-91340296D01*
X85859282Y-91328565D01*
X85905638Y-91324000D01*
X86556862Y-91324000D01*
X86603218Y-91328565D01*
X86603218Y-91328565D01*
G37*
G36*
X88478218Y-91328565D02*
G01*
X88516888Y-91340296D01*
X88552527Y-91359346D01*
X88583767Y-91384983D01*
X88609404Y-91416223D01*
X88628454Y-91451862D01*
X88640185Y-91490532D01*
X88644750Y-91536888D01*
X88644750Y-92613112D01*
X88640185Y-92659468D01*
X88628454Y-92698138D01*
X88609404Y-92733777D01*
X88583767Y-92765017D01*
X88552527Y-92790654D01*
X88516888Y-92809704D01*
X88478218Y-92821435D01*
X88431862Y-92826000D01*
X87780638Y-92826000D01*
X87734282Y-92821435D01*
X87695612Y-92809704D01*
X87659973Y-92790654D01*
X87628733Y-92765017D01*
X87603096Y-92733777D01*
X87584046Y-92698138D01*
X87572315Y-92659468D01*
X87567750Y-92613112D01*
X87567750Y-91536888D01*
X87572315Y-91490532D01*
X87584046Y-91451862D01*
X87603096Y-91416223D01*
X87628733Y-91384983D01*
X87659973Y-91359346D01*
X87695612Y-91340296D01*
X87734282Y-91328565D01*
X87780638Y-91324000D01*
X88431862Y-91324000D01*
X88478218Y-91328565D01*
X88478218Y-91328565D01*
G37*
G36*
X52544750Y-92676000D02*
G01*
X50642750Y-92676000D01*
X50642750Y-91474000D01*
X52544750Y-91474000D01*
X52544750Y-92676000D01*
X52544750Y-92676000D01*
G37*
G36*
X46344750Y-92676000D02*
G01*
X44442750Y-92676000D01*
X44442750Y-91474000D01*
X46344750Y-91474000D01*
X46344750Y-92676000D01*
X46344750Y-92676000D01*
G37*
G36*
X164341300Y-90989500D02*
G01*
X163039300Y-90989500D01*
X163039300Y-89987500D01*
X164341300Y-89987500D01*
X164341300Y-90989500D01*
X164341300Y-90989500D01*
G37*
G36*
X145291300Y-90989500D02*
G01*
X143989300Y-90989500D01*
X143989300Y-89987500D01*
X145291300Y-89987500D01*
X145291300Y-90989500D01*
X145291300Y-90989500D01*
G37*
G36*
X134226005Y-86962381D02*
G01*
X134231445Y-86962500D01*
X134318628Y-86962500D01*
X134334897Y-86965736D01*
X134353756Y-86968015D01*
X134370332Y-86968746D01*
X134455023Y-86989510D01*
X134460318Y-86990684D01*
X134545827Y-87007693D01*
X134561162Y-87014045D01*
X134579201Y-87019955D01*
X134595321Y-87023907D01*
X134674304Y-87060780D01*
X134679294Y-87062977D01*
X134759845Y-87096342D01*
X134773641Y-87105560D01*
X134790193Y-87114882D01*
X134805226Y-87121900D01*
X134875494Y-87173471D01*
X134879992Y-87176622D01*
X134952456Y-87225041D01*
X134964183Y-87236768D01*
X134978609Y-87249148D01*
X134989307Y-87257000D01*
X134991980Y-87258962D01*
X135050821Y-87323233D01*
X135054629Y-87327214D01*
X135116259Y-87388844D01*
X135125474Y-87402635D01*
X135137196Y-87417578D01*
X135148405Y-87429821D01*
X135193599Y-87504374D01*
X135196546Y-87509001D01*
X135244958Y-87581455D01*
X135251305Y-87596777D01*
X135259892Y-87613731D01*
X135268491Y-87627917D01*
X135298278Y-87709868D01*
X135300252Y-87714948D01*
X135333607Y-87795473D01*
X135333607Y-87795474D01*
X135336841Y-87811733D01*
X135341958Y-87830042D01*
X135347625Y-87845634D01*
X135360855Y-87931845D01*
X135361801Y-87937213D01*
X135378800Y-88022673D01*
X135378800Y-88039252D01*
X135380244Y-88058192D01*
X135382763Y-88074604D01*
X135378920Y-88161749D01*
X135378800Y-88167189D01*
X135378800Y-88254325D01*
X135375566Y-88270583D01*
X135373288Y-88289441D01*
X135372556Y-88306031D01*
X135351788Y-88390737D01*
X135350612Y-88396037D01*
X135333607Y-88481527D01*
X135327257Y-88496857D01*
X135321349Y-88514893D01*
X135317395Y-88531020D01*
X135280511Y-88610026D01*
X135278311Y-88615023D01*
X135244958Y-88695545D01*
X135235744Y-88709335D01*
X135226422Y-88725887D01*
X135219402Y-88740924D01*
X135167811Y-88811220D01*
X135164666Y-88815710D01*
X135116261Y-88888154D01*
X135059260Y-88945155D01*
X135054611Y-88950063D01*
X134623111Y-89430970D01*
X133729523Y-90426876D01*
X133601479Y-90544102D01*
X133502430Y-90604146D01*
X133403383Y-90664189D01*
X133185666Y-90743323D01*
X132956695Y-90778461D01*
X132725270Y-90768254D01*
X132500281Y-90713093D01*
X132395527Y-90664189D01*
X132290379Y-90615102D01*
X132193638Y-90544102D01*
X132103623Y-90478039D01*
X132029194Y-90396741D01*
X131947198Y-90307179D01*
X131865364Y-90172185D01*
X131827111Y-90109083D01*
X131747977Y-89891366D01*
X131712839Y-89662395D01*
X131723046Y-89430970D01*
X131778207Y-89205981D01*
X131829772Y-89095528D01*
X131876198Y-88996080D01*
X131876200Y-88996077D01*
X131978914Y-88856122D01*
X132663524Y-88093123D01*
X133265587Y-87422121D01*
X133276481Y-87408089D01*
X133289339Y-87388846D01*
X133346373Y-87331812D01*
X133351023Y-87326903D01*
X133366078Y-87310124D01*
X133387501Y-87290511D01*
X133391482Y-87286703D01*
X133453146Y-87225039D01*
X133466943Y-87215820D01*
X133481902Y-87204085D01*
X133494121Y-87192898D01*
X133526185Y-87173461D01*
X133568630Y-87147731D01*
X133573221Y-87144808D01*
X133645755Y-87096342D01*
X133661100Y-87089986D01*
X133678048Y-87081401D01*
X133692216Y-87072812D01*
X133692217Y-87072812D01*
X133692218Y-87072811D01*
X133774112Y-87043045D01*
X133779210Y-87041063D01*
X133859773Y-87007693D01*
X133876052Y-87004455D01*
X133894342Y-86999344D01*
X133909935Y-86993677D01*
X133996100Y-86980454D01*
X134001463Y-86979509D01*
X134086973Y-86962500D01*
X134103566Y-86962500D01*
X134122509Y-86961055D01*
X134138906Y-86958539D01*
X134226005Y-86962381D01*
X134226005Y-86962381D01*
G37*
G36*
X153276005Y-86962381D02*
G01*
X153281445Y-86962500D01*
X153368628Y-86962500D01*
X153384897Y-86965736D01*
X153403756Y-86968015D01*
X153420332Y-86968746D01*
X153505023Y-86989510D01*
X153510318Y-86990684D01*
X153595827Y-87007693D01*
X153611162Y-87014045D01*
X153629201Y-87019955D01*
X153645321Y-87023907D01*
X153724304Y-87060780D01*
X153729294Y-87062977D01*
X153809845Y-87096342D01*
X153823641Y-87105560D01*
X153840193Y-87114882D01*
X153855226Y-87121900D01*
X153925494Y-87173471D01*
X153929992Y-87176622D01*
X154002456Y-87225041D01*
X154014183Y-87236768D01*
X154028609Y-87249148D01*
X154039307Y-87257000D01*
X154041980Y-87258962D01*
X154100821Y-87323233D01*
X154104629Y-87327214D01*
X154166259Y-87388844D01*
X154175474Y-87402635D01*
X154187196Y-87417578D01*
X154198405Y-87429821D01*
X154243599Y-87504374D01*
X154246546Y-87509001D01*
X154294958Y-87581455D01*
X154301305Y-87596777D01*
X154309892Y-87613731D01*
X154318491Y-87627917D01*
X154348278Y-87709868D01*
X154350252Y-87714948D01*
X154383607Y-87795473D01*
X154383607Y-87795474D01*
X154386841Y-87811733D01*
X154391958Y-87830042D01*
X154397625Y-87845634D01*
X154410855Y-87931845D01*
X154411801Y-87937213D01*
X154428800Y-88022673D01*
X154428800Y-88039252D01*
X154430244Y-88058192D01*
X154432763Y-88074604D01*
X154428920Y-88161749D01*
X154428800Y-88167189D01*
X154428800Y-88254325D01*
X154425566Y-88270583D01*
X154423288Y-88289441D01*
X154422556Y-88306031D01*
X154401788Y-88390737D01*
X154400612Y-88396037D01*
X154383607Y-88481527D01*
X154377257Y-88496857D01*
X154371349Y-88514893D01*
X154367395Y-88531020D01*
X154330511Y-88610026D01*
X154328311Y-88615023D01*
X154294958Y-88695545D01*
X154285744Y-88709335D01*
X154276422Y-88725887D01*
X154269402Y-88740924D01*
X154217811Y-88811220D01*
X154214666Y-88815710D01*
X154166261Y-88888154D01*
X154109260Y-88945155D01*
X154104611Y-88950063D01*
X153673111Y-89430970D01*
X152779523Y-90426876D01*
X152651479Y-90544102D01*
X152552430Y-90604146D01*
X152453383Y-90664189D01*
X152235666Y-90743323D01*
X152006695Y-90778461D01*
X151775270Y-90768254D01*
X151550281Y-90713093D01*
X151445527Y-90664189D01*
X151340379Y-90615102D01*
X151243638Y-90544102D01*
X151153623Y-90478039D01*
X151079194Y-90396741D01*
X150997198Y-90307179D01*
X150915364Y-90172185D01*
X150877111Y-90109083D01*
X150797977Y-89891366D01*
X150762839Y-89662395D01*
X150773046Y-89430970D01*
X150828207Y-89205981D01*
X150879772Y-89095528D01*
X150926198Y-88996080D01*
X150926200Y-88996077D01*
X151028914Y-88856122D01*
X151713524Y-88093123D01*
X152315587Y-87422121D01*
X152326481Y-87408089D01*
X152339339Y-87388846D01*
X152396373Y-87331812D01*
X152401023Y-87326903D01*
X152416078Y-87310124D01*
X152437501Y-87290511D01*
X152441482Y-87286703D01*
X152503146Y-87225039D01*
X152516943Y-87215820D01*
X152531902Y-87204085D01*
X152544121Y-87192898D01*
X152576185Y-87173461D01*
X152618630Y-87147731D01*
X152623221Y-87144808D01*
X152695755Y-87096342D01*
X152711100Y-87089986D01*
X152728048Y-87081401D01*
X152742216Y-87072812D01*
X152742217Y-87072812D01*
X152742218Y-87072811D01*
X152824112Y-87043045D01*
X152829210Y-87041063D01*
X152909773Y-87007693D01*
X152926052Y-87004455D01*
X152944342Y-86999344D01*
X152959935Y-86993677D01*
X153046100Y-86980454D01*
X153051463Y-86979509D01*
X153136973Y-86962500D01*
X153153566Y-86962500D01*
X153172509Y-86961055D01*
X153188906Y-86958539D01*
X153276005Y-86962381D01*
X153276005Y-86962381D01*
G37*
G36*
X87358600Y-89432000D02*
G01*
X78706600Y-89432000D01*
X78706600Y-87830000D01*
X87358600Y-87830000D01*
X87358600Y-89432000D01*
X87358600Y-89432000D01*
G37*
G36*
X158380927Y-85880761D02*
G01*
X158401700Y-85882500D01*
X158408627Y-85882500D01*
X158503554Y-85901382D01*
X158507148Y-85902042D01*
X158602530Y-85918124D01*
X158609003Y-85920585D01*
X158629028Y-85926341D01*
X158635827Y-85927693D01*
X158698214Y-85953534D01*
X158725243Y-85964730D01*
X158728644Y-85966081D01*
X158819055Y-86000461D01*
X158824927Y-86004140D01*
X158843436Y-86013687D01*
X158849845Y-86016342D01*
X158930363Y-86070142D01*
X158933354Y-86072078D01*
X159015357Y-86123459D01*
X159020384Y-86128200D01*
X159036696Y-86141191D01*
X159042452Y-86145037D01*
X159110910Y-86213495D01*
X159113489Y-86215999D01*
X159183890Y-86282389D01*
X159187895Y-86288019D01*
X159201359Y-86303944D01*
X159206259Y-86308844D01*
X159260044Y-86389339D01*
X159262091Y-86392307D01*
X159318180Y-86471145D01*
X159321014Y-86477458D01*
X159331108Y-86495693D01*
X159334958Y-86501455D01*
X159372020Y-86590930D01*
X159373424Y-86594185D01*
X159413065Y-86682473D01*
X159414615Y-86689225D01*
X159420952Y-86709062D01*
X159423607Y-86715473D01*
X159442492Y-86810417D01*
X159443238Y-86813901D01*
X159464898Y-86908251D01*
X159464898Y-86908254D01*
X159465100Y-86915154D01*
X159467447Y-86935870D01*
X159468800Y-86942674D01*
X159468800Y-87039486D01*
X159468853Y-87043084D01*
X159469988Y-87081777D01*
X159469095Y-87094725D01*
X159468800Y-87103297D01*
X159468800Y-87174326D01*
X159462881Y-87204085D01*
X159462404Y-87206479D01*
X159460300Y-87222250D01*
X159422038Y-87777045D01*
X159393176Y-87948230D01*
X159310838Y-88164755D01*
X159187841Y-88361057D01*
X159028911Y-88529590D01*
X158840155Y-88663880D01*
X158628827Y-88758765D01*
X158403049Y-88810598D01*
X158171498Y-88817389D01*
X158171497Y-88817389D01*
X158125812Y-88809686D01*
X157943070Y-88778876D01*
X157726545Y-88696538D01*
X157530243Y-88573541D01*
X157361710Y-88414611D01*
X157227420Y-88225855D01*
X157132535Y-88014527D01*
X157080702Y-87788749D01*
X157075612Y-87615223D01*
X157116504Y-87022294D01*
X157116800Y-87013696D01*
X157116800Y-86942675D01*
X157135682Y-86847750D01*
X157136344Y-86844145D01*
X157142031Y-86810417D01*
X157152424Y-86748770D01*
X157154885Y-86742299D01*
X157160642Y-86722267D01*
X157161993Y-86715474D01*
X157164643Y-86709076D01*
X157199064Y-86625976D01*
X157200353Y-86622730D01*
X157234762Y-86532245D01*
X157238436Y-86526381D01*
X157247987Y-86507865D01*
X157250642Y-86501455D01*
X157304457Y-86420915D01*
X157306377Y-86417949D01*
X157357759Y-86335943D01*
X157362511Y-86330904D01*
X157375489Y-86314607D01*
X157379337Y-86308848D01*
X157447793Y-86240392D01*
X157450346Y-86237762D01*
X157470823Y-86216048D01*
X157516689Y-86167410D01*
X157522321Y-86163403D01*
X157538247Y-86149938D01*
X157543146Y-86145039D01*
X157623624Y-86091266D01*
X157626606Y-86089210D01*
X157705445Y-86033120D01*
X157711755Y-86030287D01*
X157729994Y-86020191D01*
X157735751Y-86016344D01*
X157735754Y-86016343D01*
X157735755Y-86016342D01*
X157825229Y-85979281D01*
X157828487Y-85977875D01*
X157916773Y-85938235D01*
X157923525Y-85936685D01*
X157943362Y-85930348D01*
X157949773Y-85927693D01*
X158044699Y-85908811D01*
X158048246Y-85908051D01*
X158142551Y-85886401D01*
X158144930Y-85886331D01*
X158149465Y-85886198D01*
X158170181Y-85883851D01*
X158176974Y-85882500D01*
X158273759Y-85882500D01*
X158277384Y-85882447D01*
X158374102Y-85879610D01*
X158380927Y-85880761D01*
X158380927Y-85880761D01*
G37*
G36*
X139330927Y-85880761D02*
G01*
X139351700Y-85882500D01*
X139358627Y-85882500D01*
X139453554Y-85901382D01*
X139457148Y-85902042D01*
X139552530Y-85918124D01*
X139559003Y-85920585D01*
X139579028Y-85926341D01*
X139585827Y-85927693D01*
X139648214Y-85953534D01*
X139675243Y-85964730D01*
X139678644Y-85966081D01*
X139769055Y-86000461D01*
X139774927Y-86004140D01*
X139793436Y-86013687D01*
X139799845Y-86016342D01*
X139880363Y-86070142D01*
X139883354Y-86072078D01*
X139965357Y-86123459D01*
X139970384Y-86128200D01*
X139986696Y-86141191D01*
X139992452Y-86145037D01*
X140060910Y-86213495D01*
X140063489Y-86215999D01*
X140133890Y-86282389D01*
X140137895Y-86288019D01*
X140151359Y-86303944D01*
X140156259Y-86308844D01*
X140210044Y-86389339D01*
X140212091Y-86392307D01*
X140268180Y-86471145D01*
X140271014Y-86477458D01*
X140281108Y-86495693D01*
X140284958Y-86501455D01*
X140322020Y-86590930D01*
X140323424Y-86594185D01*
X140363065Y-86682473D01*
X140364615Y-86689225D01*
X140370952Y-86709062D01*
X140373607Y-86715473D01*
X140392492Y-86810417D01*
X140393238Y-86813901D01*
X140414898Y-86908251D01*
X140414898Y-86908254D01*
X140415100Y-86915154D01*
X140417447Y-86935870D01*
X140418800Y-86942674D01*
X140418800Y-87039486D01*
X140418853Y-87043084D01*
X140419988Y-87081777D01*
X140419095Y-87094725D01*
X140418800Y-87103297D01*
X140418800Y-87174326D01*
X140412881Y-87204085D01*
X140412404Y-87206479D01*
X140410300Y-87222250D01*
X140372038Y-87777045D01*
X140343176Y-87948230D01*
X140260838Y-88164755D01*
X140137841Y-88361057D01*
X139978911Y-88529590D01*
X139790155Y-88663880D01*
X139578827Y-88758765D01*
X139353049Y-88810598D01*
X139121498Y-88817389D01*
X139121497Y-88817389D01*
X139075812Y-88809686D01*
X138893070Y-88778876D01*
X138676545Y-88696538D01*
X138480243Y-88573541D01*
X138311710Y-88414611D01*
X138177420Y-88225855D01*
X138082535Y-88014527D01*
X138030702Y-87788749D01*
X138025612Y-87615223D01*
X138066504Y-87022294D01*
X138066800Y-87013696D01*
X138066800Y-86942675D01*
X138085682Y-86847750D01*
X138086344Y-86844145D01*
X138092031Y-86810417D01*
X138102424Y-86748770D01*
X138104885Y-86742299D01*
X138110642Y-86722267D01*
X138111993Y-86715474D01*
X138114643Y-86709076D01*
X138149064Y-86625976D01*
X138150353Y-86622730D01*
X138184762Y-86532245D01*
X138188436Y-86526381D01*
X138197987Y-86507865D01*
X138200642Y-86501455D01*
X138254457Y-86420915D01*
X138256377Y-86417949D01*
X138307759Y-86335943D01*
X138312511Y-86330904D01*
X138325489Y-86314607D01*
X138329337Y-86308848D01*
X138397793Y-86240392D01*
X138400346Y-86237762D01*
X138420823Y-86216048D01*
X138466689Y-86167410D01*
X138472321Y-86163403D01*
X138488247Y-86149938D01*
X138493146Y-86145039D01*
X138573624Y-86091266D01*
X138576606Y-86089210D01*
X138655445Y-86033120D01*
X138661755Y-86030287D01*
X138679994Y-86020191D01*
X138685751Y-86016344D01*
X138685754Y-86016343D01*
X138685755Y-86016342D01*
X138775229Y-85979281D01*
X138778487Y-85977875D01*
X138866773Y-85938235D01*
X138873525Y-85936685D01*
X138893362Y-85930348D01*
X138899773Y-85927693D01*
X138994699Y-85908811D01*
X138998246Y-85908051D01*
X139092551Y-85886401D01*
X139094930Y-85886331D01*
X139099465Y-85886198D01*
X139120181Y-85883851D01*
X139126974Y-85882500D01*
X139223759Y-85882500D01*
X139227384Y-85882447D01*
X139324102Y-85879610D01*
X139330927Y-85880761D01*
X139330927Y-85880761D01*
G37*
G36*
X92659468Y-87066065D02*
G01*
X92698138Y-87077796D01*
X92733777Y-87096846D01*
X92765017Y-87122483D01*
X92790654Y-87153723D01*
X92809704Y-87189362D01*
X92821435Y-87228032D01*
X92826000Y-87274388D01*
X92826000Y-87925612D01*
X92821435Y-87971968D01*
X92809704Y-88010638D01*
X92790654Y-88046277D01*
X92765017Y-88077517D01*
X92733777Y-88103154D01*
X92698138Y-88122204D01*
X92659468Y-88133935D01*
X92613112Y-88138500D01*
X91536888Y-88138500D01*
X91490532Y-88133935D01*
X91451862Y-88122204D01*
X91416223Y-88103154D01*
X91384983Y-88077517D01*
X91359346Y-88046277D01*
X91340296Y-88010638D01*
X91328565Y-87971968D01*
X91324000Y-87925612D01*
X91324000Y-87274388D01*
X91328565Y-87228032D01*
X91340296Y-87189362D01*
X91359346Y-87153723D01*
X91384983Y-87122483D01*
X91416223Y-87096846D01*
X91451862Y-87077796D01*
X91490532Y-87066065D01*
X91536888Y-87061500D01*
X92613112Y-87061500D01*
X92659468Y-87066065D01*
X92659468Y-87066065D01*
G37*
G36*
X78133600Y-87257000D02*
G01*
X76531600Y-87257000D01*
X76531600Y-78605000D01*
X78133600Y-78605000D01*
X78133600Y-87257000D01*
X78133600Y-87257000D01*
G37*
G36*
X89533600Y-87257000D02*
G01*
X87931600Y-87257000D01*
X87931600Y-78605000D01*
X89533600Y-78605000D01*
X89533600Y-87257000D01*
X89533600Y-87257000D01*
G37*
G36*
X92659468Y-85191065D02*
G01*
X92698138Y-85202796D01*
X92733777Y-85221846D01*
X92765017Y-85247483D01*
X92790654Y-85278723D01*
X92809704Y-85314362D01*
X92821435Y-85353032D01*
X92826000Y-85399388D01*
X92826000Y-86050612D01*
X92821435Y-86096968D01*
X92809704Y-86135638D01*
X92790654Y-86171277D01*
X92765017Y-86202517D01*
X92733777Y-86228154D01*
X92698138Y-86247204D01*
X92659468Y-86258935D01*
X92613112Y-86263500D01*
X91536888Y-86263500D01*
X91490532Y-86258935D01*
X91451862Y-86247204D01*
X91416223Y-86228154D01*
X91384983Y-86202517D01*
X91359346Y-86171277D01*
X91340296Y-86135638D01*
X91328565Y-86096968D01*
X91324000Y-86050612D01*
X91324000Y-85399388D01*
X91328565Y-85353032D01*
X91340296Y-85314362D01*
X91359346Y-85278723D01*
X91384983Y-85247483D01*
X91416223Y-85221846D01*
X91451862Y-85202796D01*
X91490532Y-85191065D01*
X91536888Y-85186500D01*
X92613112Y-85186500D01*
X92659468Y-85191065D01*
X92659468Y-85191065D01*
G37*
G36*
X43631104Y-83884597D02*
G01*
X43667644Y-83895682D01*
X43701321Y-83913683D01*
X43730841Y-83937909D01*
X43755067Y-83967429D01*
X43773068Y-84001106D01*
X43784153Y-84037646D01*
X43788500Y-84081788D01*
X43788500Y-85030712D01*
X43784153Y-85074854D01*
X43773068Y-85111394D01*
X43755067Y-85145071D01*
X43730841Y-85174591D01*
X43701321Y-85198817D01*
X43667644Y-85216818D01*
X43631104Y-85227903D01*
X43586962Y-85232250D01*
X42138038Y-85232250D01*
X42093896Y-85227903D01*
X42057356Y-85216818D01*
X42023679Y-85198817D01*
X41994159Y-85174591D01*
X41969933Y-85145071D01*
X41951932Y-85111394D01*
X41940847Y-85074854D01*
X41936500Y-85030712D01*
X41936500Y-84081788D01*
X41940847Y-84037646D01*
X41951932Y-84001106D01*
X41969933Y-83967429D01*
X41994159Y-83937909D01*
X42023679Y-83913683D01*
X42057356Y-83895682D01*
X42093896Y-83884597D01*
X42138038Y-83880250D01*
X43586962Y-83880250D01*
X43631104Y-83884597D01*
X43631104Y-83884597D01*
G37*
G36*
X73366968Y-81320965D02*
G01*
X73405638Y-81332696D01*
X73441277Y-81351746D01*
X73472517Y-81377383D01*
X73498154Y-81408623D01*
X73517204Y-81444262D01*
X73528935Y-81482932D01*
X73533500Y-81529288D01*
X73533500Y-82605512D01*
X73528935Y-82651868D01*
X73517204Y-82690538D01*
X73498154Y-82726177D01*
X73472517Y-82757417D01*
X73441277Y-82783054D01*
X73405638Y-82802104D01*
X73366968Y-82813835D01*
X73320612Y-82818400D01*
X72669388Y-82818400D01*
X72623032Y-82813835D01*
X72584362Y-82802104D01*
X72548723Y-82783054D01*
X72517483Y-82757417D01*
X72491846Y-82726177D01*
X72472796Y-82690538D01*
X72461065Y-82651868D01*
X72456500Y-82605512D01*
X72456500Y-81529288D01*
X72461065Y-81482932D01*
X72472796Y-81444262D01*
X72491846Y-81408623D01*
X72517483Y-81377383D01*
X72548723Y-81351746D01*
X72584362Y-81332696D01*
X72623032Y-81320965D01*
X72669388Y-81316400D01*
X73320612Y-81316400D01*
X73366968Y-81320965D01*
X73366968Y-81320965D01*
G37*
G36*
X71491968Y-81320965D02*
G01*
X71530638Y-81332696D01*
X71566277Y-81351746D01*
X71597517Y-81377383D01*
X71623154Y-81408623D01*
X71642204Y-81444262D01*
X71653935Y-81482932D01*
X71658500Y-81529288D01*
X71658500Y-82605512D01*
X71653935Y-82651868D01*
X71642204Y-82690538D01*
X71623154Y-82726177D01*
X71597517Y-82757417D01*
X71566277Y-82783054D01*
X71530638Y-82802104D01*
X71491968Y-82813835D01*
X71445612Y-82818400D01*
X70794388Y-82818400D01*
X70748032Y-82813835D01*
X70709362Y-82802104D01*
X70673723Y-82783054D01*
X70642483Y-82757417D01*
X70616846Y-82726177D01*
X70597796Y-82690538D01*
X70586065Y-82651868D01*
X70581500Y-82605512D01*
X70581500Y-81529288D01*
X70586065Y-81482932D01*
X70597796Y-81444262D01*
X70616846Y-81408623D01*
X70642483Y-81377383D01*
X70673723Y-81351746D01*
X70709362Y-81332696D01*
X70748032Y-81320965D01*
X70794388Y-81316400D01*
X71445612Y-81316400D01*
X71491968Y-81320965D01*
X71491968Y-81320965D01*
G37*
G36*
X43631104Y-81084597D02*
G01*
X43667644Y-81095682D01*
X43701321Y-81113683D01*
X43730841Y-81137909D01*
X43755067Y-81167429D01*
X43773068Y-81201106D01*
X43784153Y-81237646D01*
X43788500Y-81281788D01*
X43788500Y-82230712D01*
X43784153Y-82274854D01*
X43773068Y-82311394D01*
X43755067Y-82345071D01*
X43730841Y-82374591D01*
X43701321Y-82398817D01*
X43667644Y-82416818D01*
X43631104Y-82427903D01*
X43586962Y-82432250D01*
X42138038Y-82432250D01*
X42093896Y-82427903D01*
X42057356Y-82416818D01*
X42023679Y-82398817D01*
X41994159Y-82374591D01*
X41969933Y-82345071D01*
X41951932Y-82311394D01*
X41940847Y-82274854D01*
X41936500Y-82230712D01*
X41936500Y-81281788D01*
X41940847Y-81237646D01*
X41951932Y-81201106D01*
X41969933Y-81167429D01*
X41994159Y-81137909D01*
X42023679Y-81113683D01*
X42057356Y-81095682D01*
X42093896Y-81084597D01*
X42138038Y-81080250D01*
X43586962Y-81080250D01*
X43631104Y-81084597D01*
X43631104Y-81084597D01*
G37*
G36*
X92659468Y-79922315D02*
G01*
X92698138Y-79934046D01*
X92733777Y-79953096D01*
X92765017Y-79978733D01*
X92790654Y-80009973D01*
X92809704Y-80045612D01*
X92821435Y-80084282D01*
X92826000Y-80130638D01*
X92826000Y-80781862D01*
X92821435Y-80828218D01*
X92809704Y-80866888D01*
X92790654Y-80902527D01*
X92765017Y-80933767D01*
X92733777Y-80959404D01*
X92698138Y-80978454D01*
X92659468Y-80990185D01*
X92613112Y-80994750D01*
X91536888Y-80994750D01*
X91490532Y-80990185D01*
X91451862Y-80978454D01*
X91416223Y-80959404D01*
X91384983Y-80933767D01*
X91359346Y-80902527D01*
X91340296Y-80866888D01*
X91328565Y-80828218D01*
X91324000Y-80781862D01*
X91324000Y-80130638D01*
X91328565Y-80084282D01*
X91340296Y-80045612D01*
X91359346Y-80009973D01*
X91384983Y-79978733D01*
X91416223Y-79953096D01*
X91451862Y-79934046D01*
X91490532Y-79922315D01*
X91536888Y-79917750D01*
X92613112Y-79917750D01*
X92659468Y-79922315D01*
X92659468Y-79922315D01*
G37*
G36*
X92659468Y-78047315D02*
G01*
X92698138Y-78059046D01*
X92733777Y-78078096D01*
X92765017Y-78103733D01*
X92790654Y-78134973D01*
X92809704Y-78170612D01*
X92821435Y-78209282D01*
X92826000Y-78255638D01*
X92826000Y-78906862D01*
X92821435Y-78953218D01*
X92809704Y-78991888D01*
X92790654Y-79027527D01*
X92765017Y-79058767D01*
X92733777Y-79084404D01*
X92698138Y-79103454D01*
X92659468Y-79115185D01*
X92613112Y-79119750D01*
X91536888Y-79119750D01*
X91490532Y-79115185D01*
X91451862Y-79103454D01*
X91416223Y-79084404D01*
X91384983Y-79058767D01*
X91359346Y-79027527D01*
X91340296Y-78991888D01*
X91328565Y-78953218D01*
X91324000Y-78906862D01*
X91324000Y-78255638D01*
X91328565Y-78209282D01*
X91340296Y-78170612D01*
X91359346Y-78134973D01*
X91384983Y-78103733D01*
X91416223Y-78078096D01*
X91451862Y-78059046D01*
X91490532Y-78047315D01*
X91536888Y-78042750D01*
X92613112Y-78042750D01*
X92659468Y-78047315D01*
X92659468Y-78047315D01*
G37*
G36*
X87358600Y-78032000D02*
G01*
X78706600Y-78032000D01*
X78706600Y-76430000D01*
X87358600Y-76430000D01*
X87358600Y-78032000D01*
X87358600Y-78032000D01*
G37*
G36*
X50063668Y-76486965D02*
G01*
X50102338Y-76498696D01*
X50137977Y-76517746D01*
X50169217Y-76543383D01*
X50194854Y-76574623D01*
X50213904Y-76610262D01*
X50225635Y-76648932D01*
X50230200Y-76695288D01*
X50230200Y-77346512D01*
X50225635Y-77392868D01*
X50213904Y-77431538D01*
X50194854Y-77467177D01*
X50169217Y-77498417D01*
X50137977Y-77524054D01*
X50102338Y-77543104D01*
X50063668Y-77554835D01*
X50017312Y-77559400D01*
X48941088Y-77559400D01*
X48894732Y-77554835D01*
X48856062Y-77543104D01*
X48820423Y-77524054D01*
X48789183Y-77498417D01*
X48763546Y-77467177D01*
X48744496Y-77431538D01*
X48732765Y-77392868D01*
X48728200Y-77346512D01*
X48728200Y-76695288D01*
X48732765Y-76648932D01*
X48744496Y-76610262D01*
X48763546Y-76574623D01*
X48789183Y-76543383D01*
X48820423Y-76517746D01*
X48856062Y-76498696D01*
X48894732Y-76486965D01*
X48941088Y-76482400D01*
X50017312Y-76482400D01*
X50063668Y-76486965D01*
X50063668Y-76486965D01*
G37*
G36*
X46621968Y-76459815D02*
G01*
X46660638Y-76471546D01*
X46696277Y-76490596D01*
X46727517Y-76516233D01*
X46753154Y-76547473D01*
X46772204Y-76583112D01*
X46783935Y-76621782D01*
X46788500Y-76668138D01*
X46788500Y-77319362D01*
X46783935Y-77365718D01*
X46772204Y-77404388D01*
X46753154Y-77440027D01*
X46727517Y-77471267D01*
X46696277Y-77496904D01*
X46660638Y-77515954D01*
X46621968Y-77527685D01*
X46575612Y-77532250D01*
X45499388Y-77532250D01*
X45453032Y-77527685D01*
X45414362Y-77515954D01*
X45378723Y-77496904D01*
X45347483Y-77471267D01*
X45321846Y-77440027D01*
X45302796Y-77404388D01*
X45291065Y-77365718D01*
X45286500Y-77319362D01*
X45286500Y-76668138D01*
X45291065Y-76621782D01*
X45302796Y-76583112D01*
X45321846Y-76547473D01*
X45347483Y-76516233D01*
X45378723Y-76490596D01*
X45414362Y-76471546D01*
X45453032Y-76459815D01*
X45499388Y-76455250D01*
X46575612Y-76455250D01*
X46621968Y-76459815D01*
X46621968Y-76459815D01*
G37*
G36*
X72815718Y-75159815D02*
G01*
X72854388Y-75171546D01*
X72890027Y-75190596D01*
X72921267Y-75216233D01*
X72946904Y-75247473D01*
X72965954Y-75283112D01*
X72977685Y-75321782D01*
X72982250Y-75368138D01*
X72982250Y-76019362D01*
X72977685Y-76065718D01*
X72965954Y-76104388D01*
X72946904Y-76140027D01*
X72921267Y-76171267D01*
X72890027Y-76196904D01*
X72854388Y-76215954D01*
X72815718Y-76227685D01*
X72769362Y-76232250D01*
X71693138Y-76232250D01*
X71646782Y-76227685D01*
X71608112Y-76215954D01*
X71572473Y-76196904D01*
X71541233Y-76171267D01*
X71515596Y-76140027D01*
X71496546Y-76104388D01*
X71484815Y-76065718D01*
X71480250Y-76019362D01*
X71480250Y-75368138D01*
X71484815Y-75321782D01*
X71496546Y-75283112D01*
X71515596Y-75247473D01*
X71541233Y-75216233D01*
X71572473Y-75190596D01*
X71608112Y-75171546D01*
X71646782Y-75159815D01*
X71693138Y-75155250D01*
X72769362Y-75155250D01*
X72815718Y-75159815D01*
X72815718Y-75159815D01*
G37*
G36*
X75990718Y-75159815D02*
G01*
X76029388Y-75171546D01*
X76065027Y-75190596D01*
X76096267Y-75216233D01*
X76121904Y-75247473D01*
X76140954Y-75283112D01*
X76152685Y-75321782D01*
X76157250Y-75368138D01*
X76157250Y-76019362D01*
X76152685Y-76065718D01*
X76140954Y-76104388D01*
X76121904Y-76140027D01*
X76096267Y-76171267D01*
X76065027Y-76196904D01*
X76029388Y-76215954D01*
X75990718Y-76227685D01*
X75944362Y-76232250D01*
X74868138Y-76232250D01*
X74821782Y-76227685D01*
X74783112Y-76215954D01*
X74747473Y-76196904D01*
X74716233Y-76171267D01*
X74690596Y-76140027D01*
X74671546Y-76104388D01*
X74659815Y-76065718D01*
X74655250Y-76019362D01*
X74655250Y-75368138D01*
X74659815Y-75321782D01*
X74671546Y-75283112D01*
X74690596Y-75247473D01*
X74716233Y-75216233D01*
X74747473Y-75190596D01*
X74783112Y-75171546D01*
X74821782Y-75159815D01*
X74868138Y-75155250D01*
X75944362Y-75155250D01*
X75990718Y-75159815D01*
X75990718Y-75159815D01*
G37*
G36*
X50063668Y-74611965D02*
G01*
X50102338Y-74623696D01*
X50137977Y-74642746D01*
X50169217Y-74668383D01*
X50194854Y-74699623D01*
X50213904Y-74735262D01*
X50225635Y-74773932D01*
X50230200Y-74820288D01*
X50230200Y-75471512D01*
X50225635Y-75517868D01*
X50213904Y-75556538D01*
X50194854Y-75592177D01*
X50169217Y-75623417D01*
X50137977Y-75649054D01*
X50102338Y-75668104D01*
X50063668Y-75679835D01*
X50017312Y-75684400D01*
X48941088Y-75684400D01*
X48894732Y-75679835D01*
X48856062Y-75668104D01*
X48820423Y-75649054D01*
X48789183Y-75623417D01*
X48763546Y-75592177D01*
X48744496Y-75556538D01*
X48732765Y-75517868D01*
X48728200Y-75471512D01*
X48728200Y-74820288D01*
X48732765Y-74773932D01*
X48744496Y-74735262D01*
X48763546Y-74699623D01*
X48789183Y-74668383D01*
X48820423Y-74642746D01*
X48856062Y-74623696D01*
X48894732Y-74611965D01*
X48941088Y-74607400D01*
X50017312Y-74607400D01*
X50063668Y-74611965D01*
X50063668Y-74611965D01*
G37*
G36*
X46621968Y-74584815D02*
G01*
X46660638Y-74596546D01*
X46696277Y-74615596D01*
X46727517Y-74641233D01*
X46753154Y-74672473D01*
X46772204Y-74708112D01*
X46783935Y-74746782D01*
X46788500Y-74793138D01*
X46788500Y-75444362D01*
X46783935Y-75490718D01*
X46772204Y-75529388D01*
X46753154Y-75565027D01*
X46727517Y-75596267D01*
X46696277Y-75621904D01*
X46660638Y-75640954D01*
X46621968Y-75652685D01*
X46575612Y-75657250D01*
X45499388Y-75657250D01*
X45453032Y-75652685D01*
X45414362Y-75640954D01*
X45378723Y-75621904D01*
X45347483Y-75596267D01*
X45321846Y-75565027D01*
X45302796Y-75529388D01*
X45291065Y-75490718D01*
X45286500Y-75444362D01*
X45286500Y-74793138D01*
X45291065Y-74746782D01*
X45302796Y-74708112D01*
X45321846Y-74672473D01*
X45347483Y-74641233D01*
X45378723Y-74615596D01*
X45414362Y-74596546D01*
X45453032Y-74584815D01*
X45499388Y-74580250D01*
X46575612Y-74580250D01*
X46621968Y-74584815D01*
X46621968Y-74584815D01*
G37*
G36*
X145291300Y-75239500D02*
G01*
X143989300Y-75239500D01*
X143989300Y-74237500D01*
X145291300Y-74237500D01*
X145291300Y-75239500D01*
X145291300Y-75239500D01*
G37*
G36*
X164341300Y-75239500D02*
G01*
X163039300Y-75239500D01*
X163039300Y-74237500D01*
X164341300Y-74237500D01*
X164341300Y-75239500D01*
X164341300Y-75239500D01*
G37*
G36*
X156349274Y-71122184D02*
G01*
X156567274Y-71212483D01*
X156721423Y-71276333D01*
X157056348Y-71500123D01*
X157341177Y-71784952D01*
X157564967Y-72119877D01*
X157597362Y-72198086D01*
X157719116Y-72492026D01*
X157797700Y-72887094D01*
X157797700Y-73289906D01*
X157719116Y-73684974D01*
X157668251Y-73807772D01*
X157564967Y-74057123D01*
X157341177Y-74392048D01*
X157056348Y-74676877D01*
X156721423Y-74900667D01*
X156567274Y-74964517D01*
X156349274Y-75054816D01*
X155954206Y-75133400D01*
X155551394Y-75133400D01*
X155156326Y-75054816D01*
X154938326Y-74964517D01*
X154784177Y-74900667D01*
X154449252Y-74676877D01*
X154164423Y-74392048D01*
X153940633Y-74057123D01*
X153837349Y-73807772D01*
X153786484Y-73684974D01*
X153707900Y-73289906D01*
X153707900Y-72887094D01*
X153786484Y-72492026D01*
X153908238Y-72198086D01*
X153940633Y-72119877D01*
X154164423Y-71784952D01*
X154449252Y-71500123D01*
X154784177Y-71276333D01*
X154938326Y-71212483D01*
X155156326Y-71122184D01*
X155551394Y-71043600D01*
X155954206Y-71043600D01*
X156349274Y-71122184D01*
X156349274Y-71122184D01*
G37*
G36*
X137299274Y-71122184D02*
G01*
X137517274Y-71212483D01*
X137671423Y-71276333D01*
X138006348Y-71500123D01*
X138291177Y-71784952D01*
X138514967Y-72119877D01*
X138547362Y-72198086D01*
X138669116Y-72492026D01*
X138747700Y-72887094D01*
X138747700Y-73289906D01*
X138669116Y-73684974D01*
X138618251Y-73807772D01*
X138514967Y-74057123D01*
X138291177Y-74392048D01*
X138006348Y-74676877D01*
X137671423Y-74900667D01*
X137517274Y-74964517D01*
X137299274Y-75054816D01*
X136904206Y-75133400D01*
X136501394Y-75133400D01*
X136106326Y-75054816D01*
X135888326Y-74964517D01*
X135734177Y-74900667D01*
X135399252Y-74676877D01*
X135114423Y-74392048D01*
X134890633Y-74057123D01*
X134787349Y-73807772D01*
X134736484Y-73684974D01*
X134657900Y-73289906D01*
X134657900Y-72887094D01*
X134736484Y-72492026D01*
X134858238Y-72198086D01*
X134890633Y-72119877D01*
X135114423Y-71784952D01*
X135399252Y-71500123D01*
X135734177Y-71276333D01*
X135888326Y-71212483D01*
X136106326Y-71122184D01*
X136501394Y-71043600D01*
X136904206Y-71043600D01*
X137299274Y-71122184D01*
X137299274Y-71122184D01*
G37*
G36*
X75990718Y-73284815D02*
G01*
X76029388Y-73296546D01*
X76065027Y-73315596D01*
X76096267Y-73341233D01*
X76121904Y-73372473D01*
X76140954Y-73408112D01*
X76152685Y-73446782D01*
X76157250Y-73493138D01*
X76157250Y-74144362D01*
X76152685Y-74190718D01*
X76140954Y-74229388D01*
X76121904Y-74265027D01*
X76096267Y-74296267D01*
X76065027Y-74321904D01*
X76029388Y-74340954D01*
X75990718Y-74352685D01*
X75944362Y-74357250D01*
X74868138Y-74357250D01*
X74821782Y-74352685D01*
X74783112Y-74340954D01*
X74747473Y-74321904D01*
X74716233Y-74296267D01*
X74690596Y-74265027D01*
X74671546Y-74229388D01*
X74659815Y-74190718D01*
X74655250Y-74144362D01*
X74655250Y-73493138D01*
X74659815Y-73446782D01*
X74671546Y-73408112D01*
X74690596Y-73372473D01*
X74716233Y-73341233D01*
X74747473Y-73315596D01*
X74783112Y-73296546D01*
X74821782Y-73284815D01*
X74868138Y-73280250D01*
X75944362Y-73280250D01*
X75990718Y-73284815D01*
X75990718Y-73284815D01*
G37*
G36*
X72815718Y-73284815D02*
G01*
X72854388Y-73296546D01*
X72890027Y-73315596D01*
X72921267Y-73341233D01*
X72946904Y-73372473D01*
X72965954Y-73408112D01*
X72977685Y-73446782D01*
X72982250Y-73493138D01*
X72982250Y-74144362D01*
X72977685Y-74190718D01*
X72965954Y-74229388D01*
X72946904Y-74265027D01*
X72921267Y-74296267D01*
X72890027Y-74321904D01*
X72854388Y-74340954D01*
X72815718Y-74352685D01*
X72769362Y-74357250D01*
X71693138Y-74357250D01*
X71646782Y-74352685D01*
X71608112Y-74340954D01*
X71572473Y-74321904D01*
X71541233Y-74296267D01*
X71515596Y-74265027D01*
X71496546Y-74229388D01*
X71484815Y-74190718D01*
X71480250Y-74144362D01*
X71480250Y-73493138D01*
X71484815Y-73446782D01*
X71496546Y-73408112D01*
X71515596Y-73372473D01*
X71541233Y-73341233D01*
X71572473Y-73315596D01*
X71608112Y-73296546D01*
X71646782Y-73284815D01*
X71693138Y-73280250D01*
X72769362Y-73280250D01*
X72815718Y-73284815D01*
X72815718Y-73284815D01*
G37*
G36*
X161102904Y-72198085D02*
G01*
X161271426Y-72267889D01*
X161423091Y-72369228D01*
X161552072Y-72498209D01*
X161653411Y-72649874D01*
X161723215Y-72818396D01*
X161758800Y-72997297D01*
X161758800Y-73179703D01*
X161723215Y-73358604D01*
X161653411Y-73527126D01*
X161552072Y-73678791D01*
X161423091Y-73807772D01*
X161271426Y-73909111D01*
X161102904Y-73978915D01*
X160924003Y-74014500D01*
X160741597Y-74014500D01*
X160562696Y-73978915D01*
X160394174Y-73909111D01*
X160242509Y-73807772D01*
X160113528Y-73678791D01*
X160012189Y-73527126D01*
X159942385Y-73358604D01*
X159906800Y-73179703D01*
X159906800Y-72997297D01*
X159942385Y-72818396D01*
X160012189Y-72649874D01*
X160113528Y-72498209D01*
X160242509Y-72369228D01*
X160394174Y-72267889D01*
X160562696Y-72198085D01*
X160741597Y-72162500D01*
X160924003Y-72162500D01*
X161102904Y-72198085D01*
X161102904Y-72198085D01*
G37*
G36*
X131892904Y-72198085D02*
G01*
X132061426Y-72267889D01*
X132213091Y-72369228D01*
X132342072Y-72498209D01*
X132443411Y-72649874D01*
X132513215Y-72818396D01*
X132548800Y-72997297D01*
X132548800Y-73179703D01*
X132513215Y-73358604D01*
X132443411Y-73527126D01*
X132342072Y-73678791D01*
X132213091Y-73807772D01*
X132061426Y-73909111D01*
X131892904Y-73978915D01*
X131714003Y-74014500D01*
X131531597Y-74014500D01*
X131352696Y-73978915D01*
X131184174Y-73909111D01*
X131032509Y-73807772D01*
X130903528Y-73678791D01*
X130802189Y-73527126D01*
X130732385Y-73358604D01*
X130696800Y-73179703D01*
X130696800Y-72997297D01*
X130732385Y-72818396D01*
X130802189Y-72649874D01*
X130903528Y-72498209D01*
X131032509Y-72369228D01*
X131184174Y-72267889D01*
X131352696Y-72198085D01*
X131531597Y-72162500D01*
X131714003Y-72162500D01*
X131892904Y-72198085D01*
X131892904Y-72198085D01*
G37*
G36*
X150942904Y-72198085D02*
G01*
X151111426Y-72267889D01*
X151263091Y-72369228D01*
X151392072Y-72498209D01*
X151493411Y-72649874D01*
X151563215Y-72818396D01*
X151598800Y-72997297D01*
X151598800Y-73179703D01*
X151563215Y-73358604D01*
X151493411Y-73527126D01*
X151392072Y-73678791D01*
X151263091Y-73807772D01*
X151111426Y-73909111D01*
X150942904Y-73978915D01*
X150764003Y-74014500D01*
X150581597Y-74014500D01*
X150402696Y-73978915D01*
X150234174Y-73909111D01*
X150082509Y-73807772D01*
X149953528Y-73678791D01*
X149852189Y-73527126D01*
X149782385Y-73358604D01*
X149746800Y-73179703D01*
X149746800Y-72997297D01*
X149782385Y-72818396D01*
X149852189Y-72649874D01*
X149953528Y-72498209D01*
X150082509Y-72369228D01*
X150234174Y-72267889D01*
X150402696Y-72198085D01*
X150581597Y-72162500D01*
X150764003Y-72162500D01*
X150942904Y-72198085D01*
X150942904Y-72198085D01*
G37*
G36*
X142052904Y-72198085D02*
G01*
X142221426Y-72267889D01*
X142373091Y-72369228D01*
X142502072Y-72498209D01*
X142603411Y-72649874D01*
X142673215Y-72818396D01*
X142708800Y-72997297D01*
X142708800Y-73179703D01*
X142673215Y-73358604D01*
X142603411Y-73527126D01*
X142502072Y-73678791D01*
X142373091Y-73807772D01*
X142221426Y-73909111D01*
X142052904Y-73978915D01*
X141874003Y-74014500D01*
X141691597Y-74014500D01*
X141512696Y-73978915D01*
X141344174Y-73909111D01*
X141192509Y-73807772D01*
X141063528Y-73678791D01*
X140962189Y-73527126D01*
X140892385Y-73358604D01*
X140856800Y-73179703D01*
X140856800Y-72997297D01*
X140892385Y-72818396D01*
X140962189Y-72649874D01*
X141063528Y-72498209D01*
X141192509Y-72369228D01*
X141344174Y-72267889D01*
X141512696Y-72198085D01*
X141691597Y-72162500D01*
X141874003Y-72162500D01*
X142052904Y-72198085D01*
X142052904Y-72198085D01*
G37*
G36*
X145291300Y-71939500D02*
G01*
X143989300Y-71939500D01*
X143989300Y-70937500D01*
X145291300Y-70937500D01*
X145291300Y-71939500D01*
X145291300Y-71939500D01*
G37*
G36*
X164341300Y-71939500D02*
G01*
X163039300Y-71939500D01*
X163039300Y-70937500D01*
X164341300Y-70937500D01*
X164341300Y-71939500D01*
X164341300Y-71939500D01*
G37*
G36*
X134226005Y-67912381D02*
G01*
X134231445Y-67912500D01*
X134318628Y-67912500D01*
X134334897Y-67915736D01*
X134353756Y-67918015D01*
X134370332Y-67918746D01*
X134455023Y-67939510D01*
X134460318Y-67940684D01*
X134545827Y-67957693D01*
X134561162Y-67964045D01*
X134579201Y-67969955D01*
X134595321Y-67973907D01*
X134674304Y-68010780D01*
X134679294Y-68012977D01*
X134759845Y-68046342D01*
X134773641Y-68055560D01*
X134790193Y-68064882D01*
X134805226Y-68071900D01*
X134875494Y-68123471D01*
X134879992Y-68126622D01*
X134952456Y-68175041D01*
X134964183Y-68186768D01*
X134978609Y-68199148D01*
X134991979Y-68208961D01*
X135030520Y-68251058D01*
X135050821Y-68273233D01*
X135054629Y-68277214D01*
X135116259Y-68338844D01*
X135125474Y-68352635D01*
X135137196Y-68367578D01*
X135148405Y-68379821D01*
X135193599Y-68454374D01*
X135196546Y-68459001D01*
X135244958Y-68531455D01*
X135251305Y-68546777D01*
X135259892Y-68563731D01*
X135268491Y-68577917D01*
X135298278Y-68659868D01*
X135300252Y-68664948D01*
X135333561Y-68745363D01*
X135333607Y-68745474D01*
X135336841Y-68761733D01*
X135341958Y-68780042D01*
X135347625Y-68795634D01*
X135360855Y-68881845D01*
X135361801Y-68887213D01*
X135378800Y-68972673D01*
X135378800Y-68989252D01*
X135380244Y-69008192D01*
X135382763Y-69024604D01*
X135378920Y-69111749D01*
X135378800Y-69117189D01*
X135378800Y-69204325D01*
X135375566Y-69220583D01*
X135373288Y-69239441D01*
X135372556Y-69256031D01*
X135351788Y-69340737D01*
X135350612Y-69346037D01*
X135333607Y-69431527D01*
X135327257Y-69446857D01*
X135321349Y-69464893D01*
X135317395Y-69481020D01*
X135280511Y-69560026D01*
X135278311Y-69565023D01*
X135244958Y-69645545D01*
X135235744Y-69659335D01*
X135226422Y-69675887D01*
X135219402Y-69690924D01*
X135167811Y-69761220D01*
X135164666Y-69765710D01*
X135116261Y-69838154D01*
X135059260Y-69895155D01*
X135054611Y-69900063D01*
X134623111Y-70380970D01*
X133729523Y-71376876D01*
X133601479Y-71494102D01*
X133502430Y-71554146D01*
X133403383Y-71614189D01*
X133185666Y-71693323D01*
X132956695Y-71728461D01*
X132725270Y-71718254D01*
X132500281Y-71663093D01*
X132395527Y-71614189D01*
X132290379Y-71565102D01*
X132193638Y-71494102D01*
X132103623Y-71428039D01*
X132029194Y-71346741D01*
X131947198Y-71257179D01*
X131865364Y-71122185D01*
X131827111Y-71059083D01*
X131747977Y-70841366D01*
X131712839Y-70612395D01*
X131723046Y-70380970D01*
X131778207Y-70155981D01*
X131829772Y-70045528D01*
X131876198Y-69946080D01*
X131876200Y-69946077D01*
X131978914Y-69806122D01*
X132734045Y-68964527D01*
X133265587Y-68372121D01*
X133276481Y-68358089D01*
X133289339Y-68338846D01*
X133346373Y-68281812D01*
X133351023Y-68276903D01*
X133366078Y-68260124D01*
X133387501Y-68240511D01*
X133391482Y-68236703D01*
X133453146Y-68175039D01*
X133466943Y-68165820D01*
X133481902Y-68154085D01*
X133494121Y-68142898D01*
X133526185Y-68123461D01*
X133568630Y-68097731D01*
X133573221Y-68094808D01*
X133645755Y-68046342D01*
X133661100Y-68039986D01*
X133678048Y-68031401D01*
X133692216Y-68022812D01*
X133692217Y-68022812D01*
X133692218Y-68022811D01*
X133774112Y-67993045D01*
X133779210Y-67991063D01*
X133859773Y-67957693D01*
X133876052Y-67954455D01*
X133894342Y-67949344D01*
X133909935Y-67943677D01*
X133996100Y-67930454D01*
X134001463Y-67929509D01*
X134086973Y-67912500D01*
X134103566Y-67912500D01*
X134122509Y-67911055D01*
X134138906Y-67908539D01*
X134226005Y-67912381D01*
X134226005Y-67912381D01*
G37*
G36*
X153276005Y-67912381D02*
G01*
X153281445Y-67912500D01*
X153368628Y-67912500D01*
X153384897Y-67915736D01*
X153403756Y-67918015D01*
X153420332Y-67918746D01*
X153505023Y-67939510D01*
X153510318Y-67940684D01*
X153595827Y-67957693D01*
X153611162Y-67964045D01*
X153629201Y-67969955D01*
X153645321Y-67973907D01*
X153724304Y-68010780D01*
X153729294Y-68012977D01*
X153809845Y-68046342D01*
X153823641Y-68055560D01*
X153840193Y-68064882D01*
X153855226Y-68071900D01*
X153925494Y-68123471D01*
X153929992Y-68126622D01*
X154002456Y-68175041D01*
X154014183Y-68186768D01*
X154028609Y-68199148D01*
X154041979Y-68208961D01*
X154080520Y-68251058D01*
X154100821Y-68273233D01*
X154104629Y-68277214D01*
X154166259Y-68338844D01*
X154175474Y-68352635D01*
X154187196Y-68367578D01*
X154198405Y-68379821D01*
X154243599Y-68454374D01*
X154246546Y-68459001D01*
X154294958Y-68531455D01*
X154301305Y-68546777D01*
X154309892Y-68563731D01*
X154318491Y-68577917D01*
X154348278Y-68659868D01*
X154350252Y-68664948D01*
X154383561Y-68745363D01*
X154383607Y-68745474D01*
X154386841Y-68761733D01*
X154391958Y-68780042D01*
X154397625Y-68795634D01*
X154410855Y-68881845D01*
X154411801Y-68887213D01*
X154428800Y-68972673D01*
X154428800Y-68989252D01*
X154430244Y-69008192D01*
X154432763Y-69024604D01*
X154428920Y-69111749D01*
X154428800Y-69117189D01*
X154428800Y-69204325D01*
X154425566Y-69220583D01*
X154423288Y-69239441D01*
X154422556Y-69256031D01*
X154401788Y-69340737D01*
X154400612Y-69346037D01*
X154383607Y-69431527D01*
X154377257Y-69446857D01*
X154371349Y-69464893D01*
X154367395Y-69481020D01*
X154330511Y-69560026D01*
X154328311Y-69565023D01*
X154294958Y-69645545D01*
X154285744Y-69659335D01*
X154276422Y-69675887D01*
X154269402Y-69690924D01*
X154217811Y-69761220D01*
X154214666Y-69765710D01*
X154166261Y-69838154D01*
X154109260Y-69895155D01*
X154104611Y-69900063D01*
X153673111Y-70380970D01*
X152779523Y-71376876D01*
X152651479Y-71494102D01*
X152552430Y-71554146D01*
X152453383Y-71614189D01*
X152235666Y-71693323D01*
X152006695Y-71728461D01*
X151775270Y-71718254D01*
X151550281Y-71663093D01*
X151445527Y-71614189D01*
X151340379Y-71565102D01*
X151243638Y-71494102D01*
X151153623Y-71428039D01*
X151079194Y-71346741D01*
X150997198Y-71257179D01*
X150915364Y-71122185D01*
X150877111Y-71059083D01*
X150797977Y-70841366D01*
X150762839Y-70612395D01*
X150773046Y-70380970D01*
X150828207Y-70155981D01*
X150879772Y-70045528D01*
X150926198Y-69946080D01*
X150926200Y-69946077D01*
X151028914Y-69806122D01*
X151784045Y-68964527D01*
X152315587Y-68372121D01*
X152326481Y-68358089D01*
X152339339Y-68338846D01*
X152396373Y-68281812D01*
X152401023Y-68276903D01*
X152416078Y-68260124D01*
X152437501Y-68240511D01*
X152441482Y-68236703D01*
X152503146Y-68175039D01*
X152516943Y-68165820D01*
X152531902Y-68154085D01*
X152544121Y-68142898D01*
X152576185Y-68123461D01*
X152618630Y-68097731D01*
X152623221Y-68094808D01*
X152695755Y-68046342D01*
X152711100Y-68039986D01*
X152728048Y-68031401D01*
X152742216Y-68022812D01*
X152742217Y-68022812D01*
X152742218Y-68022811D01*
X152824112Y-67993045D01*
X152829210Y-67991063D01*
X152909773Y-67957693D01*
X152926052Y-67954455D01*
X152944342Y-67949344D01*
X152959935Y-67943677D01*
X153046100Y-67930454D01*
X153051463Y-67929509D01*
X153136973Y-67912500D01*
X153153566Y-67912500D01*
X153172509Y-67911055D01*
X153188906Y-67908539D01*
X153276005Y-67912381D01*
X153276005Y-67912381D01*
G37*
G36*
X51451627Y-68199537D02*
G01*
X51621466Y-68251057D01*
X51777991Y-68334722D01*
X51813729Y-68364052D01*
X51915186Y-68447314D01*
X51984849Y-68532200D01*
X52027778Y-68584509D01*
X52111443Y-68741034D01*
X52162963Y-68910873D01*
X52162963Y-68910875D01*
X52174165Y-69024605D01*
X52176000Y-69043242D01*
X52176000Y-70131758D01*
X52162963Y-70264127D01*
X52111443Y-70433966D01*
X52027778Y-70590491D01*
X52009801Y-70612396D01*
X51915186Y-70727686D01*
X51777989Y-70840279D01*
X51621467Y-70923942D01*
X51621465Y-70923943D01*
X51451626Y-70975463D01*
X51275000Y-70992859D01*
X51098373Y-70975463D01*
X50928534Y-70923943D01*
X50772009Y-70840278D01*
X50736271Y-70810948D01*
X50634814Y-70727686D01*
X50522221Y-70590489D01*
X50438558Y-70433967D01*
X50438557Y-70433965D01*
X50387037Y-70264126D01*
X50374000Y-70131757D01*
X50374001Y-69043242D01*
X50375837Y-69024605D01*
X50387038Y-68910875D01*
X50387038Y-68910873D01*
X50438558Y-68741034D01*
X50522223Y-68584509D01*
X50565152Y-68532200D01*
X50634815Y-68447314D01*
X50736272Y-68364052D01*
X50772010Y-68334722D01*
X50928535Y-68251057D01*
X51098374Y-68199537D01*
X51275000Y-68182141D01*
X51451627Y-68199537D01*
X51451627Y-68199537D01*
G37*
G36*
X44151627Y-68199537D02*
G01*
X44321466Y-68251057D01*
X44477991Y-68334722D01*
X44513729Y-68364052D01*
X44615186Y-68447314D01*
X44684849Y-68532200D01*
X44727778Y-68584509D01*
X44811443Y-68741034D01*
X44862963Y-68910873D01*
X44862963Y-68910875D01*
X44874165Y-69024605D01*
X44876000Y-69043242D01*
X44876000Y-70131758D01*
X44862963Y-70264127D01*
X44811443Y-70433966D01*
X44727778Y-70590491D01*
X44709801Y-70612396D01*
X44615186Y-70727686D01*
X44477989Y-70840279D01*
X44321467Y-70923942D01*
X44321465Y-70923943D01*
X44151626Y-70975463D01*
X43975000Y-70992859D01*
X43798373Y-70975463D01*
X43628534Y-70923943D01*
X43472009Y-70840278D01*
X43436271Y-70810948D01*
X43334814Y-70727686D01*
X43222221Y-70590489D01*
X43138558Y-70433967D01*
X43138557Y-70433965D01*
X43087037Y-70264126D01*
X43074000Y-70131757D01*
X43074001Y-69043242D01*
X43075837Y-69024605D01*
X43087038Y-68910875D01*
X43087038Y-68910873D01*
X43138558Y-68741034D01*
X43222223Y-68584509D01*
X43265152Y-68532200D01*
X43334815Y-68447314D01*
X43436272Y-68364052D01*
X43472010Y-68334722D01*
X43628535Y-68251057D01*
X43798374Y-68199537D01*
X43975000Y-68182141D01*
X44151627Y-68199537D01*
X44151627Y-68199537D01*
G37*
G36*
X49526000Y-70763500D02*
G01*
X45724000Y-70763500D01*
X45724000Y-68411500D01*
X49526000Y-68411500D01*
X49526000Y-70763500D01*
X49526000Y-70763500D01*
G37*
G36*
X158380927Y-66830761D02*
G01*
X158401700Y-66832500D01*
X158408627Y-66832500D01*
X158503554Y-66851382D01*
X158507148Y-66852042D01*
X158602530Y-66868124D01*
X158609003Y-66870585D01*
X158629028Y-66876341D01*
X158635827Y-66877693D01*
X158698214Y-66903534D01*
X158725243Y-66914730D01*
X158728644Y-66916081D01*
X158819055Y-66950461D01*
X158824927Y-66954140D01*
X158843436Y-66963687D01*
X158849845Y-66966342D01*
X158930363Y-67020142D01*
X158933354Y-67022078D01*
X159015357Y-67073459D01*
X159020384Y-67078200D01*
X159036696Y-67091191D01*
X159042452Y-67095037D01*
X159110910Y-67163495D01*
X159113489Y-67165999D01*
X159183890Y-67232389D01*
X159187895Y-67238019D01*
X159201359Y-67253944D01*
X159206259Y-67258844D01*
X159260044Y-67339339D01*
X159262091Y-67342307D01*
X159318180Y-67421145D01*
X159321014Y-67427458D01*
X159331108Y-67445693D01*
X159334958Y-67451455D01*
X159372020Y-67540930D01*
X159373424Y-67544185D01*
X159413065Y-67632473D01*
X159414615Y-67639225D01*
X159420952Y-67659062D01*
X159423607Y-67665473D01*
X159440189Y-67748839D01*
X159442492Y-67760417D01*
X159443238Y-67763901D01*
X159464898Y-67858251D01*
X159464898Y-67858254D01*
X159465100Y-67865154D01*
X159467447Y-67885870D01*
X159468800Y-67892674D01*
X159468800Y-67989486D01*
X159468853Y-67993084D01*
X159469988Y-68031777D01*
X159469095Y-68044725D01*
X159468800Y-68053297D01*
X159468800Y-68124326D01*
X159462881Y-68154085D01*
X159462404Y-68156479D01*
X159460300Y-68172250D01*
X159422038Y-68727045D01*
X159393176Y-68898230D01*
X159310838Y-69114755D01*
X159187841Y-69311057D01*
X159028911Y-69479590D01*
X158840155Y-69613880D01*
X158628827Y-69708765D01*
X158403049Y-69760598D01*
X158171498Y-69767389D01*
X158171497Y-69767389D01*
X158125812Y-69759686D01*
X157943070Y-69728876D01*
X157726545Y-69646538D01*
X157530243Y-69523541D01*
X157361710Y-69364611D01*
X157227420Y-69175855D01*
X157132535Y-68964527D01*
X157080702Y-68738749D01*
X157075612Y-68565223D01*
X157116504Y-67972294D01*
X157116800Y-67963696D01*
X157116800Y-67892675D01*
X157129724Y-67827700D01*
X157135688Y-67797719D01*
X157136344Y-67794145D01*
X157142031Y-67760417D01*
X157152424Y-67698770D01*
X157154885Y-67692299D01*
X157160642Y-67672267D01*
X157161993Y-67665474D01*
X157163644Y-67661488D01*
X157199064Y-67575976D01*
X157200353Y-67572730D01*
X157234762Y-67482245D01*
X157238436Y-67476381D01*
X157247987Y-67457865D01*
X157250642Y-67451455D01*
X157304457Y-67370915D01*
X157306377Y-67367949D01*
X157357759Y-67285943D01*
X157362511Y-67280904D01*
X157375489Y-67264607D01*
X157379337Y-67258848D01*
X157447793Y-67190392D01*
X157450346Y-67187762D01*
X157470823Y-67166048D01*
X157516689Y-67117410D01*
X157522321Y-67113403D01*
X157538247Y-67099938D01*
X157543146Y-67095039D01*
X157623624Y-67041266D01*
X157626606Y-67039210D01*
X157705445Y-66983120D01*
X157711755Y-66980287D01*
X157729994Y-66970191D01*
X157735751Y-66966344D01*
X157735754Y-66966343D01*
X157735755Y-66966342D01*
X157825229Y-66929281D01*
X157828487Y-66927875D01*
X157916773Y-66888235D01*
X157923525Y-66886685D01*
X157943362Y-66880348D01*
X157949773Y-66877693D01*
X158044699Y-66858811D01*
X158048246Y-66858051D01*
X158142551Y-66836401D01*
X158144930Y-66836331D01*
X158149465Y-66836198D01*
X158170181Y-66833851D01*
X158176974Y-66832500D01*
X158273759Y-66832500D01*
X158277384Y-66832447D01*
X158374102Y-66829610D01*
X158380927Y-66830761D01*
X158380927Y-66830761D01*
G37*
G36*
X139330927Y-66830761D02*
G01*
X139351700Y-66832500D01*
X139358627Y-66832500D01*
X139453554Y-66851382D01*
X139457148Y-66852042D01*
X139552530Y-66868124D01*
X139559003Y-66870585D01*
X139579028Y-66876341D01*
X139585827Y-66877693D01*
X139648214Y-66903534D01*
X139675243Y-66914730D01*
X139678644Y-66916081D01*
X139769055Y-66950461D01*
X139774927Y-66954140D01*
X139793436Y-66963687D01*
X139799845Y-66966342D01*
X139880363Y-67020142D01*
X139883354Y-67022078D01*
X139965357Y-67073459D01*
X139970384Y-67078200D01*
X139986696Y-67091191D01*
X139992452Y-67095037D01*
X140060910Y-67163495D01*
X140063489Y-67165999D01*
X140133890Y-67232389D01*
X140137895Y-67238019D01*
X140151359Y-67253944D01*
X140156259Y-67258844D01*
X140210044Y-67339339D01*
X140212091Y-67342307D01*
X140268180Y-67421145D01*
X140271014Y-67427458D01*
X140281108Y-67445693D01*
X140284958Y-67451455D01*
X140322020Y-67540930D01*
X140323424Y-67544185D01*
X140363065Y-67632473D01*
X140364615Y-67639225D01*
X140370952Y-67659062D01*
X140373607Y-67665473D01*
X140390189Y-67748839D01*
X140392492Y-67760417D01*
X140393238Y-67763901D01*
X140414898Y-67858251D01*
X140414898Y-67858254D01*
X140415100Y-67865154D01*
X140417447Y-67885870D01*
X140418800Y-67892674D01*
X140418800Y-67989486D01*
X140418853Y-67993084D01*
X140419988Y-68031777D01*
X140419095Y-68044725D01*
X140418800Y-68053297D01*
X140418800Y-68124326D01*
X140412881Y-68154085D01*
X140412404Y-68156479D01*
X140410300Y-68172250D01*
X140372038Y-68727045D01*
X140343176Y-68898230D01*
X140260838Y-69114755D01*
X140137841Y-69311057D01*
X139978911Y-69479590D01*
X139790155Y-69613880D01*
X139578827Y-69708765D01*
X139353049Y-69760598D01*
X139121498Y-69767389D01*
X139121497Y-69767389D01*
X139075812Y-69759686D01*
X138893070Y-69728876D01*
X138676545Y-69646538D01*
X138480243Y-69523541D01*
X138311710Y-69364611D01*
X138177420Y-69175855D01*
X138082535Y-68964527D01*
X138030702Y-68738749D01*
X138025612Y-68565223D01*
X138066504Y-67972294D01*
X138066800Y-67963696D01*
X138066800Y-67892675D01*
X138079724Y-67827700D01*
X138085688Y-67797719D01*
X138086344Y-67794145D01*
X138092031Y-67760417D01*
X138102424Y-67698770D01*
X138104885Y-67692299D01*
X138110642Y-67672267D01*
X138111993Y-67665474D01*
X138113644Y-67661488D01*
X138149064Y-67575976D01*
X138150353Y-67572730D01*
X138184762Y-67482245D01*
X138188436Y-67476381D01*
X138197987Y-67457865D01*
X138200642Y-67451455D01*
X138254457Y-67370915D01*
X138256377Y-67367949D01*
X138307759Y-67285943D01*
X138312511Y-67280904D01*
X138325489Y-67264607D01*
X138329337Y-67258848D01*
X138397793Y-67190392D01*
X138400346Y-67187762D01*
X138420823Y-67166048D01*
X138466689Y-67117410D01*
X138472321Y-67113403D01*
X138488247Y-67099938D01*
X138493146Y-67095039D01*
X138573624Y-67041266D01*
X138576606Y-67039210D01*
X138655445Y-66983120D01*
X138661755Y-66980287D01*
X138679994Y-66970191D01*
X138685751Y-66966344D01*
X138685754Y-66966343D01*
X138685755Y-66966342D01*
X138775229Y-66929281D01*
X138778487Y-66927875D01*
X138866773Y-66888235D01*
X138873525Y-66886685D01*
X138893362Y-66880348D01*
X138899773Y-66877693D01*
X138994699Y-66858811D01*
X138998246Y-66858051D01*
X139092551Y-66836401D01*
X139094930Y-66836331D01*
X139099465Y-66836198D01*
X139120181Y-66833851D01*
X139126974Y-66832500D01*
X139223759Y-66832500D01*
X139227384Y-66832447D01*
X139324102Y-66829610D01*
X139330927Y-66830761D01*
X139330927Y-66830761D01*
G37*
G36*
X87935068Y-68630265D02*
G01*
X87973738Y-68641996D01*
X88009377Y-68661046D01*
X88040617Y-68686683D01*
X88066254Y-68717923D01*
X88085304Y-68753562D01*
X88097035Y-68792232D01*
X88101600Y-68838588D01*
X88101600Y-69489812D01*
X88097035Y-69536168D01*
X88085304Y-69574838D01*
X88066254Y-69610477D01*
X88040617Y-69641717D01*
X88009377Y-69667354D01*
X87973738Y-69686404D01*
X87935068Y-69698135D01*
X87888712Y-69702700D01*
X86812488Y-69702700D01*
X86766132Y-69698135D01*
X86727462Y-69686404D01*
X86691823Y-69667354D01*
X86660583Y-69641717D01*
X86634946Y-69610477D01*
X86615896Y-69574838D01*
X86604165Y-69536168D01*
X86599600Y-69489812D01*
X86599600Y-68838588D01*
X86604165Y-68792232D01*
X86615896Y-68753562D01*
X86634946Y-68717923D01*
X86660583Y-68686683D01*
X86691823Y-68661046D01*
X86727462Y-68641996D01*
X86766132Y-68630265D01*
X86812488Y-68625700D01*
X87888712Y-68625700D01*
X87935068Y-68630265D01*
X87935068Y-68630265D01*
G37*
G36*
X84253500Y-69686400D02*
G01*
X82751500Y-69686400D01*
X82751500Y-68384400D01*
X84253500Y-68384400D01*
X84253500Y-69686400D01*
X84253500Y-69686400D01*
G37*
G36*
X82053500Y-69686400D02*
G01*
X80551500Y-69686400D01*
X80551500Y-68384400D01*
X82053500Y-68384400D01*
X82053500Y-69686400D01*
X82053500Y-69686400D01*
G37*
G36*
X78079868Y-68536765D02*
G01*
X78118538Y-68548496D01*
X78154177Y-68567546D01*
X78185417Y-68593183D01*
X78211054Y-68624423D01*
X78230104Y-68660062D01*
X78241835Y-68698732D01*
X78246400Y-68745088D01*
X78246400Y-69396312D01*
X78241835Y-69442668D01*
X78230104Y-69481338D01*
X78211054Y-69516977D01*
X78185417Y-69548217D01*
X78154177Y-69573854D01*
X78118538Y-69592904D01*
X78079868Y-69604635D01*
X78033512Y-69609200D01*
X76957288Y-69609200D01*
X76910932Y-69604635D01*
X76872262Y-69592904D01*
X76836623Y-69573854D01*
X76805383Y-69548217D01*
X76779746Y-69516977D01*
X76760696Y-69481338D01*
X76748965Y-69442668D01*
X76744400Y-69396312D01*
X76744400Y-68745088D01*
X76748965Y-68698732D01*
X76760696Y-68660062D01*
X76779746Y-68624423D01*
X76805383Y-68593183D01*
X76836623Y-68567546D01*
X76872262Y-68548496D01*
X76910932Y-68536765D01*
X76957288Y-68532200D01*
X78033512Y-68532200D01*
X78079868Y-68536765D01*
X78079868Y-68536765D01*
G37*
G36*
X82053500Y-67986400D02*
G01*
X80551500Y-67986400D01*
X80551500Y-66684400D01*
X82053500Y-66684400D01*
X82053500Y-67986400D01*
X82053500Y-67986400D01*
G37*
G36*
X84253500Y-67986400D02*
G01*
X82751500Y-67986400D01*
X82751500Y-66684400D01*
X84253500Y-66684400D01*
X84253500Y-67986400D01*
X84253500Y-67986400D01*
G37*
G36*
X87935068Y-66755265D02*
G01*
X87973738Y-66766996D01*
X88009377Y-66786046D01*
X88040617Y-66811683D01*
X88066254Y-66842923D01*
X88085304Y-66878562D01*
X88097035Y-66917232D01*
X88101600Y-66963588D01*
X88101600Y-67614812D01*
X88097035Y-67661168D01*
X88085304Y-67699838D01*
X88066254Y-67735477D01*
X88040617Y-67766717D01*
X88009377Y-67792354D01*
X87973738Y-67811404D01*
X87935068Y-67823135D01*
X87888712Y-67827700D01*
X86812488Y-67827700D01*
X86766132Y-67823135D01*
X86727462Y-67811404D01*
X86691823Y-67792354D01*
X86660583Y-67766717D01*
X86634946Y-67735477D01*
X86615896Y-67699838D01*
X86604165Y-67661168D01*
X86599600Y-67614812D01*
X86599600Y-66963588D01*
X86604165Y-66917232D01*
X86615896Y-66878562D01*
X86634946Y-66842923D01*
X86660583Y-66811683D01*
X86691823Y-66786046D01*
X86727462Y-66766996D01*
X86766132Y-66755265D01*
X86812488Y-66750700D01*
X87888712Y-66750700D01*
X87935068Y-66755265D01*
X87935068Y-66755265D01*
G37*
G36*
X78079868Y-66661765D02*
G01*
X78118538Y-66673496D01*
X78154177Y-66692546D01*
X78185417Y-66718183D01*
X78211054Y-66749423D01*
X78230104Y-66785062D01*
X78241835Y-66823732D01*
X78246400Y-66870088D01*
X78246400Y-67521312D01*
X78241835Y-67567668D01*
X78230104Y-67606338D01*
X78211054Y-67641977D01*
X78185417Y-67673217D01*
X78154177Y-67698854D01*
X78118538Y-67717904D01*
X78079868Y-67729635D01*
X78033512Y-67734200D01*
X76957288Y-67734200D01*
X76910932Y-67729635D01*
X76872262Y-67717904D01*
X76836623Y-67698854D01*
X76805383Y-67673217D01*
X76779746Y-67641977D01*
X76760696Y-67606338D01*
X76748965Y-67567668D01*
X76744400Y-67521312D01*
X76744400Y-66870088D01*
X76748965Y-66823732D01*
X76760696Y-66785062D01*
X76779746Y-66749423D01*
X76805383Y-66718183D01*
X76836623Y-66692546D01*
X76872262Y-66673496D01*
X76910932Y-66661765D01*
X76957288Y-66657200D01*
X78033512Y-66657200D01*
X78079868Y-66661765D01*
X78079868Y-66661765D01*
G37*
G36*
X44151627Y-63699537D02*
G01*
X44321466Y-63751057D01*
X44477991Y-63834722D01*
X44513729Y-63864052D01*
X44615186Y-63947314D01*
X44698448Y-64048771D01*
X44727778Y-64084509D01*
X44811443Y-64241034D01*
X44862963Y-64410873D01*
X44876000Y-64543242D01*
X44876000Y-65631758D01*
X44862963Y-65764127D01*
X44811443Y-65933966D01*
X44727778Y-66090491D01*
X44698448Y-66126229D01*
X44615186Y-66227686D01*
X44477989Y-66340279D01*
X44321467Y-66423942D01*
X44321465Y-66423943D01*
X44151626Y-66475463D01*
X43975000Y-66492859D01*
X43798373Y-66475463D01*
X43628534Y-66423943D01*
X43472009Y-66340278D01*
X43436271Y-66310948D01*
X43334814Y-66227686D01*
X43222221Y-66090489D01*
X43138558Y-65933967D01*
X43138557Y-65933965D01*
X43087037Y-65764126D01*
X43074000Y-65631757D01*
X43074001Y-64543242D01*
X43087038Y-64410873D01*
X43138558Y-64241034D01*
X43222223Y-64084509D01*
X43251553Y-64048771D01*
X43334815Y-63947314D01*
X43436272Y-63864052D01*
X43472010Y-63834722D01*
X43628535Y-63751057D01*
X43798374Y-63699537D01*
X43975000Y-63682141D01*
X44151627Y-63699537D01*
X44151627Y-63699537D01*
G37*
G36*
X51451627Y-63699537D02*
G01*
X51621466Y-63751057D01*
X51777991Y-63834722D01*
X51813729Y-63864052D01*
X51915186Y-63947314D01*
X51998448Y-64048771D01*
X52027778Y-64084509D01*
X52111443Y-64241034D01*
X52162963Y-64410873D01*
X52176000Y-64543242D01*
X52176000Y-65631758D01*
X52162963Y-65764127D01*
X52111443Y-65933966D01*
X52027778Y-66090491D01*
X51998448Y-66126229D01*
X51915186Y-66227686D01*
X51777989Y-66340279D01*
X51621467Y-66423942D01*
X51621465Y-66423943D01*
X51451626Y-66475463D01*
X51275000Y-66492859D01*
X51098373Y-66475463D01*
X50928534Y-66423943D01*
X50772009Y-66340278D01*
X50736271Y-66310948D01*
X50634814Y-66227686D01*
X50522221Y-66090489D01*
X50438558Y-65933967D01*
X50438557Y-65933965D01*
X50387037Y-65764126D01*
X50374000Y-65631757D01*
X50374001Y-64543242D01*
X50387038Y-64410873D01*
X50438558Y-64241034D01*
X50522223Y-64084509D01*
X50551553Y-64048771D01*
X50634815Y-63947314D01*
X50736272Y-63864052D01*
X50772010Y-63834722D01*
X50928535Y-63751057D01*
X51098374Y-63699537D01*
X51275000Y-63682141D01*
X51451627Y-63699537D01*
X51451627Y-63699537D01*
G37*
M02*
