G04 #@! TF.GenerationSoftware,KiCad,Pcbnew,5.1.4*
G04 #@! TF.CreationDate,2020-08-15T08:43:54-04:00*
G04 #@! TF.ProjectId,ai03-pcb-guide,61693033-2d70-4636-922d-67756964652e,rev?*
G04 #@! TF.SameCoordinates,Original*
G04 #@! TF.FileFunction,Soldermask,Top*
G04 #@! TF.FilePolarity,Negative*
%FSLAX46Y46*%
G04 Gerber Fmt 4.6, Leading zero omitted, Abs format (unit mm)*
G04 Created by KiCad (PCBNEW 5.1.4) date 2020-08-15 08:43:54*
%MOMM*%
%LPD*%
G04 APERTURE LIST*
%ADD10C,0.100000*%
G04 APERTURE END LIST*
D10*
G36*
X137299274Y-90172184D02*
G01*
X137517274Y-90262483D01*
X137671423Y-90326333D01*
X138006348Y-90550123D01*
X138291177Y-90834952D01*
X138514967Y-91169877D01*
X138547362Y-91248086D01*
X138669116Y-91542026D01*
X138747700Y-91937094D01*
X138747700Y-92339906D01*
X138669116Y-92734974D01*
X138618251Y-92857772D01*
X138514967Y-93107123D01*
X138291177Y-93442048D01*
X138006348Y-93726877D01*
X137671423Y-93950667D01*
X137517274Y-94014517D01*
X137299274Y-94104816D01*
X136904206Y-94183400D01*
X136501394Y-94183400D01*
X136106326Y-94104816D01*
X135888326Y-94014517D01*
X135734177Y-93950667D01*
X135399252Y-93726877D01*
X135114423Y-93442048D01*
X134890633Y-93107123D01*
X134787349Y-92857772D01*
X134736484Y-92734974D01*
X134657900Y-92339906D01*
X134657900Y-91937094D01*
X134736484Y-91542026D01*
X134858238Y-91248086D01*
X134890633Y-91169877D01*
X135114423Y-90834952D01*
X135399252Y-90550123D01*
X135734177Y-90326333D01*
X135888326Y-90262483D01*
X136106326Y-90172184D01*
X136501394Y-90093600D01*
X136904206Y-90093600D01*
X137299274Y-90172184D01*
X137299274Y-90172184D01*
G37*
G36*
X156349274Y-90172184D02*
G01*
X156567274Y-90262483D01*
X156721423Y-90326333D01*
X157056348Y-90550123D01*
X157341177Y-90834952D01*
X157564967Y-91169877D01*
X157597362Y-91248086D01*
X157719116Y-91542026D01*
X157797700Y-91937094D01*
X157797700Y-92339906D01*
X157719116Y-92734974D01*
X157668251Y-92857772D01*
X157564967Y-93107123D01*
X157341177Y-93442048D01*
X157056348Y-93726877D01*
X156721423Y-93950667D01*
X156567274Y-94014517D01*
X156349274Y-94104816D01*
X155954206Y-94183400D01*
X155551394Y-94183400D01*
X155156326Y-94104816D01*
X154938326Y-94014517D01*
X154784177Y-93950667D01*
X154449252Y-93726877D01*
X154164423Y-93442048D01*
X153940633Y-93107123D01*
X153837349Y-92857772D01*
X153786484Y-92734974D01*
X153707900Y-92339906D01*
X153707900Y-91937094D01*
X153786484Y-91542026D01*
X153908238Y-91248086D01*
X153940633Y-91169877D01*
X154164423Y-90834952D01*
X154449252Y-90550123D01*
X154784177Y-90326333D01*
X154938326Y-90262483D01*
X155156326Y-90172184D01*
X155551394Y-90093600D01*
X155954206Y-90093600D01*
X156349274Y-90172184D01*
X156349274Y-90172184D01*
G37*
G36*
X161102904Y-91248085D02*
G01*
X161271426Y-91317889D01*
X161423091Y-91419228D01*
X161552072Y-91548209D01*
X161653411Y-91699874D01*
X161723215Y-91868396D01*
X161758800Y-92047297D01*
X161758800Y-92229703D01*
X161723215Y-92408604D01*
X161653411Y-92577126D01*
X161552072Y-92728791D01*
X161423091Y-92857772D01*
X161271426Y-92959111D01*
X161102904Y-93028915D01*
X160924003Y-93064500D01*
X160741597Y-93064500D01*
X160562696Y-93028915D01*
X160394174Y-92959111D01*
X160242509Y-92857772D01*
X160113528Y-92728791D01*
X160012189Y-92577126D01*
X159942385Y-92408604D01*
X159906800Y-92229703D01*
X159906800Y-92047297D01*
X159942385Y-91868396D01*
X160012189Y-91699874D01*
X160113528Y-91548209D01*
X160242509Y-91419228D01*
X160394174Y-91317889D01*
X160562696Y-91248085D01*
X160741597Y-91212500D01*
X160924003Y-91212500D01*
X161102904Y-91248085D01*
X161102904Y-91248085D01*
G37*
G36*
X150942904Y-91248085D02*
G01*
X151111426Y-91317889D01*
X151263091Y-91419228D01*
X151392072Y-91548209D01*
X151493411Y-91699874D01*
X151563215Y-91868396D01*
X151598800Y-92047297D01*
X151598800Y-92229703D01*
X151563215Y-92408604D01*
X151493411Y-92577126D01*
X151392072Y-92728791D01*
X151263091Y-92857772D01*
X151111426Y-92959111D01*
X150942904Y-93028915D01*
X150764003Y-93064500D01*
X150581597Y-93064500D01*
X150402696Y-93028915D01*
X150234174Y-92959111D01*
X150082509Y-92857772D01*
X149953528Y-92728791D01*
X149852189Y-92577126D01*
X149782385Y-92408604D01*
X149746800Y-92229703D01*
X149746800Y-92047297D01*
X149782385Y-91868396D01*
X149852189Y-91699874D01*
X149953528Y-91548209D01*
X150082509Y-91419228D01*
X150234174Y-91317889D01*
X150402696Y-91248085D01*
X150581597Y-91212500D01*
X150764003Y-91212500D01*
X150942904Y-91248085D01*
X150942904Y-91248085D01*
G37*
G36*
X142052904Y-91248085D02*
G01*
X142221426Y-91317889D01*
X142373091Y-91419228D01*
X142502072Y-91548209D01*
X142603411Y-91699874D01*
X142673215Y-91868396D01*
X142708800Y-92047297D01*
X142708800Y-92229703D01*
X142673215Y-92408604D01*
X142603411Y-92577126D01*
X142502072Y-92728791D01*
X142373091Y-92857772D01*
X142221426Y-92959111D01*
X142052904Y-93028915D01*
X141874003Y-93064500D01*
X141691597Y-93064500D01*
X141512696Y-93028915D01*
X141344174Y-92959111D01*
X141192509Y-92857772D01*
X141063528Y-92728791D01*
X140962189Y-92577126D01*
X140892385Y-92408604D01*
X140856800Y-92229703D01*
X140856800Y-92047297D01*
X140892385Y-91868396D01*
X140962189Y-91699874D01*
X141063528Y-91548209D01*
X141192509Y-91419228D01*
X141344174Y-91317889D01*
X141512696Y-91248085D01*
X141691597Y-91212500D01*
X141874003Y-91212500D01*
X142052904Y-91248085D01*
X142052904Y-91248085D01*
G37*
G36*
X131892904Y-91248085D02*
G01*
X132061426Y-91317889D01*
X132213091Y-91419228D01*
X132342072Y-91548209D01*
X132443411Y-91699874D01*
X132513215Y-91868396D01*
X132548800Y-92047297D01*
X132548800Y-92229703D01*
X132513215Y-92408604D01*
X132443411Y-92577126D01*
X132342072Y-92728791D01*
X132213091Y-92857772D01*
X132061426Y-92959111D01*
X131892904Y-93028915D01*
X131714003Y-93064500D01*
X131531597Y-93064500D01*
X131352696Y-93028915D01*
X131184174Y-92959111D01*
X131032509Y-92857772D01*
X130903528Y-92728791D01*
X130802189Y-92577126D01*
X130732385Y-92408604D01*
X130696800Y-92229703D01*
X130696800Y-92047297D01*
X130732385Y-91868396D01*
X130802189Y-91699874D01*
X130903528Y-91548209D01*
X131032509Y-91419228D01*
X131184174Y-91317889D01*
X131352696Y-91248085D01*
X131531597Y-91212500D01*
X131714003Y-91212500D01*
X131892904Y-91248085D01*
X131892904Y-91248085D01*
G37*
G36*
X137299274Y-71122184D02*
G01*
X137517274Y-71212483D01*
X137671423Y-71276333D01*
X138006348Y-71500123D01*
X138291177Y-71784952D01*
X138514967Y-72119877D01*
X138547362Y-72198086D01*
X138669116Y-72492026D01*
X138747700Y-72887094D01*
X138747700Y-73289906D01*
X138669116Y-73684974D01*
X138618251Y-73807772D01*
X138514967Y-74057123D01*
X138291177Y-74392048D01*
X138006348Y-74676877D01*
X137671423Y-74900667D01*
X137517274Y-74964517D01*
X137299274Y-75054816D01*
X136904206Y-75133400D01*
X136501394Y-75133400D01*
X136106326Y-75054816D01*
X135888326Y-74964517D01*
X135734177Y-74900667D01*
X135399252Y-74676877D01*
X135114423Y-74392048D01*
X134890633Y-74057123D01*
X134787349Y-73807772D01*
X134736484Y-73684974D01*
X134657900Y-73289906D01*
X134657900Y-72887094D01*
X134736484Y-72492026D01*
X134858238Y-72198086D01*
X134890633Y-72119877D01*
X135114423Y-71784952D01*
X135399252Y-71500123D01*
X135734177Y-71276333D01*
X135888326Y-71212483D01*
X136106326Y-71122184D01*
X136501394Y-71043600D01*
X136904206Y-71043600D01*
X137299274Y-71122184D01*
X137299274Y-71122184D01*
G37*
G36*
X156349274Y-71122184D02*
G01*
X156567274Y-71212483D01*
X156721423Y-71276333D01*
X157056348Y-71500123D01*
X157341177Y-71784952D01*
X157564967Y-72119877D01*
X157597362Y-72198086D01*
X157719116Y-72492026D01*
X157797700Y-72887094D01*
X157797700Y-73289906D01*
X157719116Y-73684974D01*
X157668251Y-73807772D01*
X157564967Y-74057123D01*
X157341177Y-74392048D01*
X157056348Y-74676877D01*
X156721423Y-74900667D01*
X156567274Y-74964517D01*
X156349274Y-75054816D01*
X155954206Y-75133400D01*
X155551394Y-75133400D01*
X155156326Y-75054816D01*
X154938326Y-74964517D01*
X154784177Y-74900667D01*
X154449252Y-74676877D01*
X154164423Y-74392048D01*
X153940633Y-74057123D01*
X153837349Y-73807772D01*
X153786484Y-73684974D01*
X153707900Y-73289906D01*
X153707900Y-72887094D01*
X153786484Y-72492026D01*
X153908238Y-72198086D01*
X153940633Y-72119877D01*
X154164423Y-71784952D01*
X154449252Y-71500123D01*
X154784177Y-71276333D01*
X154938326Y-71212483D01*
X155156326Y-71122184D01*
X155551394Y-71043600D01*
X155954206Y-71043600D01*
X156349274Y-71122184D01*
X156349274Y-71122184D01*
G37*
G36*
X161102904Y-72198085D02*
G01*
X161271426Y-72267889D01*
X161423091Y-72369228D01*
X161552072Y-72498209D01*
X161653411Y-72649874D01*
X161723215Y-72818396D01*
X161758800Y-72997297D01*
X161758800Y-73179703D01*
X161723215Y-73358604D01*
X161653411Y-73527126D01*
X161552072Y-73678791D01*
X161423091Y-73807772D01*
X161271426Y-73909111D01*
X161102904Y-73978915D01*
X160924003Y-74014500D01*
X160741597Y-74014500D01*
X160562696Y-73978915D01*
X160394174Y-73909111D01*
X160242509Y-73807772D01*
X160113528Y-73678791D01*
X160012189Y-73527126D01*
X159942385Y-73358604D01*
X159906800Y-73179703D01*
X159906800Y-72997297D01*
X159942385Y-72818396D01*
X160012189Y-72649874D01*
X160113528Y-72498209D01*
X160242509Y-72369228D01*
X160394174Y-72267889D01*
X160562696Y-72198085D01*
X160741597Y-72162500D01*
X160924003Y-72162500D01*
X161102904Y-72198085D01*
X161102904Y-72198085D01*
G37*
G36*
X131892904Y-72198085D02*
G01*
X132061426Y-72267889D01*
X132213091Y-72369228D01*
X132342072Y-72498209D01*
X132443411Y-72649874D01*
X132513215Y-72818396D01*
X132548800Y-72997297D01*
X132548800Y-73179703D01*
X132513215Y-73358604D01*
X132443411Y-73527126D01*
X132342072Y-73678791D01*
X132213091Y-73807772D01*
X132061426Y-73909111D01*
X131892904Y-73978915D01*
X131714003Y-74014500D01*
X131531597Y-74014500D01*
X131352696Y-73978915D01*
X131184174Y-73909111D01*
X131032509Y-73807772D01*
X130903528Y-73678791D01*
X130802189Y-73527126D01*
X130732385Y-73358604D01*
X130696800Y-73179703D01*
X130696800Y-72997297D01*
X130732385Y-72818396D01*
X130802189Y-72649874D01*
X130903528Y-72498209D01*
X131032509Y-72369228D01*
X131184174Y-72267889D01*
X131352696Y-72198085D01*
X131531597Y-72162500D01*
X131714003Y-72162500D01*
X131892904Y-72198085D01*
X131892904Y-72198085D01*
G37*
G36*
X142052904Y-72198085D02*
G01*
X142221426Y-72267889D01*
X142373091Y-72369228D01*
X142502072Y-72498209D01*
X142603411Y-72649874D01*
X142673215Y-72818396D01*
X142708800Y-72997297D01*
X142708800Y-73179703D01*
X142673215Y-73358604D01*
X142603411Y-73527126D01*
X142502072Y-73678791D01*
X142373091Y-73807772D01*
X142221426Y-73909111D01*
X142052904Y-73978915D01*
X141874003Y-74014500D01*
X141691597Y-74014500D01*
X141512696Y-73978915D01*
X141344174Y-73909111D01*
X141192509Y-73807772D01*
X141063528Y-73678791D01*
X140962189Y-73527126D01*
X140892385Y-73358604D01*
X140856800Y-73179703D01*
X140856800Y-72997297D01*
X140892385Y-72818396D01*
X140962189Y-72649874D01*
X141063528Y-72498209D01*
X141192509Y-72369228D01*
X141344174Y-72267889D01*
X141512696Y-72198085D01*
X141691597Y-72162500D01*
X141874003Y-72162500D01*
X142052904Y-72198085D01*
X142052904Y-72198085D01*
G37*
G36*
X150942904Y-72198085D02*
G01*
X151111426Y-72267889D01*
X151263091Y-72369228D01*
X151392072Y-72498209D01*
X151493411Y-72649874D01*
X151563215Y-72818396D01*
X151598800Y-72997297D01*
X151598800Y-73179703D01*
X151563215Y-73358604D01*
X151493411Y-73527126D01*
X151392072Y-73678791D01*
X151263091Y-73807772D01*
X151111426Y-73909111D01*
X150942904Y-73978915D01*
X150764003Y-74014500D01*
X150581597Y-74014500D01*
X150402696Y-73978915D01*
X150234174Y-73909111D01*
X150082509Y-73807772D01*
X149953528Y-73678791D01*
X149852189Y-73527126D01*
X149782385Y-73358604D01*
X149746800Y-73179703D01*
X149746800Y-72997297D01*
X149782385Y-72818396D01*
X149852189Y-72649874D01*
X149953528Y-72498209D01*
X150082509Y-72369228D01*
X150234174Y-72267889D01*
X150402696Y-72198085D01*
X150581597Y-72162500D01*
X150764003Y-72162500D01*
X150942904Y-72198085D01*
X150942904Y-72198085D01*
G37*
G36*
X44151627Y-68199537D02*
G01*
X44321466Y-68251057D01*
X44477991Y-68334722D01*
X44513729Y-68364052D01*
X44615186Y-68447314D01*
X44698448Y-68548771D01*
X44727778Y-68584509D01*
X44811443Y-68741034D01*
X44862963Y-68910873D01*
X44876000Y-69043242D01*
X44876000Y-70131758D01*
X44862963Y-70264127D01*
X44811443Y-70433966D01*
X44727778Y-70590491D01*
X44698448Y-70626229D01*
X44615186Y-70727686D01*
X44477989Y-70840279D01*
X44321467Y-70923942D01*
X44321465Y-70923943D01*
X44151626Y-70975463D01*
X43975000Y-70992859D01*
X43798373Y-70975463D01*
X43628534Y-70923943D01*
X43472009Y-70840278D01*
X43436271Y-70810948D01*
X43334814Y-70727686D01*
X43222221Y-70590489D01*
X43138558Y-70433967D01*
X43138557Y-70433965D01*
X43087037Y-70264126D01*
X43074000Y-70131757D01*
X43074001Y-69043242D01*
X43087038Y-68910873D01*
X43138558Y-68741034D01*
X43222223Y-68584509D01*
X43251553Y-68548771D01*
X43334815Y-68447314D01*
X43436272Y-68364052D01*
X43472010Y-68334722D01*
X43628535Y-68251057D01*
X43798374Y-68199537D01*
X43975000Y-68182141D01*
X44151627Y-68199537D01*
X44151627Y-68199537D01*
G37*
G36*
X51451627Y-68199537D02*
G01*
X51621466Y-68251057D01*
X51777991Y-68334722D01*
X51813729Y-68364052D01*
X51915186Y-68447314D01*
X51998448Y-68548771D01*
X52027778Y-68584509D01*
X52111443Y-68741034D01*
X52162963Y-68910873D01*
X52176000Y-69043242D01*
X52176000Y-70131758D01*
X52162963Y-70264127D01*
X52111443Y-70433966D01*
X52027778Y-70590491D01*
X51998448Y-70626229D01*
X51915186Y-70727686D01*
X51777989Y-70840279D01*
X51621467Y-70923942D01*
X51621465Y-70923943D01*
X51451626Y-70975463D01*
X51275000Y-70992859D01*
X51098373Y-70975463D01*
X50928534Y-70923943D01*
X50772009Y-70840278D01*
X50736271Y-70810948D01*
X50634814Y-70727686D01*
X50522221Y-70590489D01*
X50438558Y-70433967D01*
X50438557Y-70433965D01*
X50387037Y-70264126D01*
X50374000Y-70131757D01*
X50374001Y-69043242D01*
X50387038Y-68910873D01*
X50438558Y-68741034D01*
X50522223Y-68584509D01*
X50551553Y-68548771D01*
X50634815Y-68447314D01*
X50736272Y-68364052D01*
X50772010Y-68334722D01*
X50928535Y-68251057D01*
X51098374Y-68199537D01*
X51275000Y-68182141D01*
X51451627Y-68199537D01*
X51451627Y-68199537D01*
G37*
G36*
X44151627Y-63699537D02*
G01*
X44321466Y-63751057D01*
X44477991Y-63834722D01*
X44513729Y-63864052D01*
X44615186Y-63947314D01*
X44698448Y-64048771D01*
X44727778Y-64084509D01*
X44811443Y-64241034D01*
X44862963Y-64410873D01*
X44876000Y-64543242D01*
X44876000Y-65631758D01*
X44862963Y-65764127D01*
X44811443Y-65933966D01*
X44727778Y-66090491D01*
X44698448Y-66126229D01*
X44615186Y-66227686D01*
X44477989Y-66340279D01*
X44321467Y-66423942D01*
X44321465Y-66423943D01*
X44151626Y-66475463D01*
X43975000Y-66492859D01*
X43798373Y-66475463D01*
X43628534Y-66423943D01*
X43472009Y-66340278D01*
X43436271Y-66310948D01*
X43334814Y-66227686D01*
X43222221Y-66090489D01*
X43138558Y-65933967D01*
X43138557Y-65933965D01*
X43087037Y-65764126D01*
X43074000Y-65631757D01*
X43074001Y-64543242D01*
X43087038Y-64410873D01*
X43138558Y-64241034D01*
X43222223Y-64084509D01*
X43251553Y-64048771D01*
X43334815Y-63947314D01*
X43436272Y-63864052D01*
X43472010Y-63834722D01*
X43628535Y-63751057D01*
X43798374Y-63699537D01*
X43975000Y-63682141D01*
X44151627Y-63699537D01*
X44151627Y-63699537D01*
G37*
G36*
X51451627Y-63699537D02*
G01*
X51621466Y-63751057D01*
X51777991Y-63834722D01*
X51813729Y-63864052D01*
X51915186Y-63947314D01*
X51998448Y-64048771D01*
X52027778Y-64084509D01*
X52111443Y-64241034D01*
X52162963Y-64410873D01*
X52176000Y-64543242D01*
X52176000Y-65631758D01*
X52162963Y-65764127D01*
X52111443Y-65933966D01*
X52027778Y-66090491D01*
X51998448Y-66126229D01*
X51915186Y-66227686D01*
X51777989Y-66340279D01*
X51621467Y-66423942D01*
X51621465Y-66423943D01*
X51451626Y-66475463D01*
X51275000Y-66492859D01*
X51098373Y-66475463D01*
X50928534Y-66423943D01*
X50772009Y-66340278D01*
X50736271Y-66310948D01*
X50634814Y-66227686D01*
X50522221Y-66090489D01*
X50438558Y-65933967D01*
X50438557Y-65933965D01*
X50387037Y-65764126D01*
X50374000Y-65631757D01*
X50374001Y-64543242D01*
X50387038Y-64410873D01*
X50438558Y-64241034D01*
X50522223Y-64084509D01*
X50551553Y-64048771D01*
X50634815Y-63947314D01*
X50736272Y-63864052D01*
X50772010Y-63834722D01*
X50928535Y-63751057D01*
X51098374Y-63699537D01*
X51275000Y-63682141D01*
X51451627Y-63699537D01*
X51451627Y-63699537D01*
G37*
M02*
