M48
; DRILL file {KiCad 5.1.4} date Sat 15 Aug 2020 08:44:10 AM EDT
; FORMAT={-:-/ absolute / inch / decimal}
; #@! TF.CreationDate,2020-08-15T08:44:10-04:00
; #@! TF.GenerationSoftware,Kicad,Pcbnew,5.1.4
; #@! TF.FileFunction,Plated,1,2,PTH
FMAT,2
INCH
T1C0.0157
T2C0.0276
T3C0.0579
%
G90
G05
T1
X2.1765Y-3.6245
X2.7745Y-2.9885
X2.9065Y-2.8995
X2.9485Y-3.228
X2.9485Y-3.3915
X3.1119Y-3.5595
X3.5505Y-3.627
X3.7315Y-3.1695
T3
X5.982Y-2.7775
X6.0336Y-2.72
X6.2304Y-2.7003
X6.232Y-2.6775
X5.982Y-3.5275
X6.0336Y-3.47
X6.2304Y-3.4503
X6.232Y-3.4275
X5.232Y-2.7775
X5.2836Y-2.72
X5.4804Y-2.7003
X5.482Y-2.6775
X5.232Y-3.5275
X5.2836Y-3.47
X5.4804Y-3.4503
X5.482Y-3.4275
T2
G00X1.7313Y-2.5389
M15
G01X1.7313Y-2.5861
M16
G05
G00X1.7313Y-2.716
M15
G01X1.7313Y-2.7633
M16
G05
G00X2.0187Y-2.5389
M15
G01X2.0187Y-2.5861
M16
G05
G00X2.0187Y-2.716
M15
G01X2.0187Y-2.7633
M16
G05
T0
M30
