G04 #@! TF.GenerationSoftware,KiCad,Pcbnew,5.1.4*
G04 #@! TF.CreationDate,2020-08-15T08:43:54-04:00*
G04 #@! TF.ProjectId,ai03-pcb-guide,61693033-2d70-4636-922d-67756964652e,rev?*
G04 #@! TF.SameCoordinates,Original*
G04 #@! TF.FileFunction,Copper,L2,Bot*
G04 #@! TF.FilePolarity,Positive*
%FSLAX46Y46*%
G04 Gerber Fmt 4.6, Leading zero omitted, Abs format (unit mm)*
G04 Created by KiCad (PCBNEW 5.1.4) date 2020-08-15 08:43:54*
%MOMM*%
%LPD*%
G04 APERTURE LIST*
%ADD10R,1.200000X0.900000*%
%ADD11R,1.400000X1.200000*%
%ADD12O,1.700000X2.700000*%
%ADD13R,0.500000X2.250000*%
%ADD14R,0.550000X1.500000*%
%ADD15R,1.500000X0.550000*%
%ADD16R,1.800000X1.100000*%
%ADD17C,0.100000*%
%ADD18C,0.975000*%
%ADD19C,2.250000*%
%ADD20C,2.250000*%
%ADD21C,1.250000*%
%ADD22C,0.800000*%
%ADD23C,0.381000*%
%ADD24C,0.203200*%
%ADD25C,0.254000*%
%ADD26C,0.200000*%
G04 APERTURE END LIST*
D10*
X163690300Y-71438500D03*
X163690300Y-74738500D03*
D11*
X83502500Y-67335400D03*
X81302500Y-67335400D03*
X81302500Y-69035400D03*
X83502500Y-69035400D03*
D12*
X43975000Y-65087500D03*
X51275000Y-65087500D03*
X51275000Y-69587500D03*
X43975000Y-69587500D03*
D13*
X46025000Y-69587500D03*
X46825000Y-69587500D03*
X47625000Y-69587500D03*
X48425000Y-69587500D03*
X49225000Y-69587500D03*
D14*
X79032600Y-88631000D03*
X79832600Y-88631000D03*
X80632600Y-88631000D03*
X81432600Y-88631000D03*
X82232600Y-88631000D03*
X83032600Y-88631000D03*
X83832600Y-88631000D03*
X84632600Y-88631000D03*
X85432600Y-88631000D03*
X86232600Y-88631000D03*
X87032600Y-88631000D03*
D15*
X88732600Y-86931000D03*
X88732600Y-86131000D03*
X88732600Y-85331000D03*
X88732600Y-84531000D03*
X88732600Y-83731000D03*
X88732600Y-82931000D03*
X88732600Y-82131000D03*
X88732600Y-81331000D03*
X88732600Y-80531000D03*
X88732600Y-79731000D03*
X88732600Y-78931000D03*
D14*
X87032600Y-77231000D03*
X86232600Y-77231000D03*
X85432600Y-77231000D03*
X84632600Y-77231000D03*
X83832600Y-77231000D03*
X83032600Y-77231000D03*
X82232600Y-77231000D03*
X81432600Y-77231000D03*
X80632600Y-77231000D03*
X79832600Y-77231000D03*
X79032600Y-77231000D03*
D15*
X77332600Y-78931000D03*
X77332600Y-79731000D03*
X77332600Y-80531000D03*
X77332600Y-81331000D03*
X77332600Y-82131000D03*
X77332600Y-82931000D03*
X77332600Y-83731000D03*
X77332600Y-84531000D03*
X77332600Y-85331000D03*
X77332600Y-86131000D03*
X77332600Y-86931000D03*
D16*
X51593750Y-95775000D03*
X45393750Y-92075000D03*
X51593750Y-92075000D03*
X45393750Y-95775000D03*
D17*
G36*
X92555142Y-85238674D02*
G01*
X92578803Y-85242184D01*
X92602007Y-85247996D01*
X92624529Y-85256054D01*
X92646153Y-85266282D01*
X92666670Y-85278579D01*
X92685883Y-85292829D01*
X92703607Y-85308893D01*
X92719671Y-85326617D01*
X92733921Y-85345830D01*
X92746218Y-85366347D01*
X92756446Y-85387971D01*
X92764504Y-85410493D01*
X92770316Y-85433697D01*
X92773826Y-85457358D01*
X92775000Y-85481250D01*
X92775000Y-85968750D01*
X92773826Y-85992642D01*
X92770316Y-86016303D01*
X92764504Y-86039507D01*
X92756446Y-86062029D01*
X92746218Y-86083653D01*
X92733921Y-86104170D01*
X92719671Y-86123383D01*
X92703607Y-86141107D01*
X92685883Y-86157171D01*
X92666670Y-86171421D01*
X92646153Y-86183718D01*
X92624529Y-86193946D01*
X92602007Y-86202004D01*
X92578803Y-86207816D01*
X92555142Y-86211326D01*
X92531250Y-86212500D01*
X91618750Y-86212500D01*
X91594858Y-86211326D01*
X91571197Y-86207816D01*
X91547993Y-86202004D01*
X91525471Y-86193946D01*
X91503847Y-86183718D01*
X91483330Y-86171421D01*
X91464117Y-86157171D01*
X91446393Y-86141107D01*
X91430329Y-86123383D01*
X91416079Y-86104170D01*
X91403782Y-86083653D01*
X91393554Y-86062029D01*
X91385496Y-86039507D01*
X91379684Y-86016303D01*
X91376174Y-85992642D01*
X91375000Y-85968750D01*
X91375000Y-85481250D01*
X91376174Y-85457358D01*
X91379684Y-85433697D01*
X91385496Y-85410493D01*
X91393554Y-85387971D01*
X91403782Y-85366347D01*
X91416079Y-85345830D01*
X91430329Y-85326617D01*
X91446393Y-85308893D01*
X91464117Y-85292829D01*
X91483330Y-85278579D01*
X91503847Y-85266282D01*
X91525471Y-85256054D01*
X91547993Y-85247996D01*
X91571197Y-85242184D01*
X91594858Y-85238674D01*
X91618750Y-85237500D01*
X92531250Y-85237500D01*
X92555142Y-85238674D01*
X92555142Y-85238674D01*
G37*
D18*
X92075000Y-85725000D03*
D17*
G36*
X92555142Y-87113674D02*
G01*
X92578803Y-87117184D01*
X92602007Y-87122996D01*
X92624529Y-87131054D01*
X92646153Y-87141282D01*
X92666670Y-87153579D01*
X92685883Y-87167829D01*
X92703607Y-87183893D01*
X92719671Y-87201617D01*
X92733921Y-87220830D01*
X92746218Y-87241347D01*
X92756446Y-87262971D01*
X92764504Y-87285493D01*
X92770316Y-87308697D01*
X92773826Y-87332358D01*
X92775000Y-87356250D01*
X92775000Y-87843750D01*
X92773826Y-87867642D01*
X92770316Y-87891303D01*
X92764504Y-87914507D01*
X92756446Y-87937029D01*
X92746218Y-87958653D01*
X92733921Y-87979170D01*
X92719671Y-87998383D01*
X92703607Y-88016107D01*
X92685883Y-88032171D01*
X92666670Y-88046421D01*
X92646153Y-88058718D01*
X92624529Y-88068946D01*
X92602007Y-88077004D01*
X92578803Y-88082816D01*
X92555142Y-88086326D01*
X92531250Y-88087500D01*
X91618750Y-88087500D01*
X91594858Y-88086326D01*
X91571197Y-88082816D01*
X91547993Y-88077004D01*
X91525471Y-88068946D01*
X91503847Y-88058718D01*
X91483330Y-88046421D01*
X91464117Y-88032171D01*
X91446393Y-88016107D01*
X91430329Y-87998383D01*
X91416079Y-87979170D01*
X91403782Y-87958653D01*
X91393554Y-87937029D01*
X91385496Y-87914507D01*
X91379684Y-87891303D01*
X91376174Y-87867642D01*
X91375000Y-87843750D01*
X91375000Y-87356250D01*
X91376174Y-87332358D01*
X91379684Y-87308697D01*
X91385496Y-87285493D01*
X91393554Y-87262971D01*
X91403782Y-87241347D01*
X91416079Y-87220830D01*
X91430329Y-87201617D01*
X91446393Y-87183893D01*
X91464117Y-87167829D01*
X91483330Y-87153579D01*
X91503847Y-87141282D01*
X91525471Y-87131054D01*
X91547993Y-87122996D01*
X91571197Y-87117184D01*
X91594858Y-87113674D01*
X91618750Y-87112500D01*
X92531250Y-87112500D01*
X92555142Y-87113674D01*
X92555142Y-87113674D01*
G37*
D18*
X92075000Y-87600000D03*
D17*
G36*
X72711392Y-75207424D02*
G01*
X72735053Y-75210934D01*
X72758257Y-75216746D01*
X72780779Y-75224804D01*
X72802403Y-75235032D01*
X72822920Y-75247329D01*
X72842133Y-75261579D01*
X72859857Y-75277643D01*
X72875921Y-75295367D01*
X72890171Y-75314580D01*
X72902468Y-75335097D01*
X72912696Y-75356721D01*
X72920754Y-75379243D01*
X72926566Y-75402447D01*
X72930076Y-75426108D01*
X72931250Y-75450000D01*
X72931250Y-75937500D01*
X72930076Y-75961392D01*
X72926566Y-75985053D01*
X72920754Y-76008257D01*
X72912696Y-76030779D01*
X72902468Y-76052403D01*
X72890171Y-76072920D01*
X72875921Y-76092133D01*
X72859857Y-76109857D01*
X72842133Y-76125921D01*
X72822920Y-76140171D01*
X72802403Y-76152468D01*
X72780779Y-76162696D01*
X72758257Y-76170754D01*
X72735053Y-76176566D01*
X72711392Y-76180076D01*
X72687500Y-76181250D01*
X71775000Y-76181250D01*
X71751108Y-76180076D01*
X71727447Y-76176566D01*
X71704243Y-76170754D01*
X71681721Y-76162696D01*
X71660097Y-76152468D01*
X71639580Y-76140171D01*
X71620367Y-76125921D01*
X71602643Y-76109857D01*
X71586579Y-76092133D01*
X71572329Y-76072920D01*
X71560032Y-76052403D01*
X71549804Y-76030779D01*
X71541746Y-76008257D01*
X71535934Y-75985053D01*
X71532424Y-75961392D01*
X71531250Y-75937500D01*
X71531250Y-75450000D01*
X71532424Y-75426108D01*
X71535934Y-75402447D01*
X71541746Y-75379243D01*
X71549804Y-75356721D01*
X71560032Y-75335097D01*
X71572329Y-75314580D01*
X71586579Y-75295367D01*
X71602643Y-75277643D01*
X71620367Y-75261579D01*
X71639580Y-75247329D01*
X71660097Y-75235032D01*
X71681721Y-75224804D01*
X71704243Y-75216746D01*
X71727447Y-75210934D01*
X71751108Y-75207424D01*
X71775000Y-75206250D01*
X72687500Y-75206250D01*
X72711392Y-75207424D01*
X72711392Y-75207424D01*
G37*
D18*
X72231250Y-75693750D03*
D17*
G36*
X72711392Y-73332424D02*
G01*
X72735053Y-73335934D01*
X72758257Y-73341746D01*
X72780779Y-73349804D01*
X72802403Y-73360032D01*
X72822920Y-73372329D01*
X72842133Y-73386579D01*
X72859857Y-73402643D01*
X72875921Y-73420367D01*
X72890171Y-73439580D01*
X72902468Y-73460097D01*
X72912696Y-73481721D01*
X72920754Y-73504243D01*
X72926566Y-73527447D01*
X72930076Y-73551108D01*
X72931250Y-73575000D01*
X72931250Y-74062500D01*
X72930076Y-74086392D01*
X72926566Y-74110053D01*
X72920754Y-74133257D01*
X72912696Y-74155779D01*
X72902468Y-74177403D01*
X72890171Y-74197920D01*
X72875921Y-74217133D01*
X72859857Y-74234857D01*
X72842133Y-74250921D01*
X72822920Y-74265171D01*
X72802403Y-74277468D01*
X72780779Y-74287696D01*
X72758257Y-74295754D01*
X72735053Y-74301566D01*
X72711392Y-74305076D01*
X72687500Y-74306250D01*
X71775000Y-74306250D01*
X71751108Y-74305076D01*
X71727447Y-74301566D01*
X71704243Y-74295754D01*
X71681721Y-74287696D01*
X71660097Y-74277468D01*
X71639580Y-74265171D01*
X71620367Y-74250921D01*
X71602643Y-74234857D01*
X71586579Y-74217133D01*
X71572329Y-74197920D01*
X71560032Y-74177403D01*
X71549804Y-74155779D01*
X71541746Y-74133257D01*
X71535934Y-74110053D01*
X71532424Y-74086392D01*
X71531250Y-74062500D01*
X71531250Y-73575000D01*
X71532424Y-73551108D01*
X71535934Y-73527447D01*
X71541746Y-73504243D01*
X71549804Y-73481721D01*
X71560032Y-73460097D01*
X71572329Y-73439580D01*
X71586579Y-73420367D01*
X71602643Y-73402643D01*
X71620367Y-73386579D01*
X71639580Y-73372329D01*
X71660097Y-73360032D01*
X71681721Y-73349804D01*
X71704243Y-73341746D01*
X71727447Y-73335934D01*
X71751108Y-73332424D01*
X71775000Y-73331250D01*
X72687500Y-73331250D01*
X72711392Y-73332424D01*
X72711392Y-73332424D01*
G37*
D18*
X72231250Y-73818750D03*
D17*
G36*
X49959342Y-74659574D02*
G01*
X49983003Y-74663084D01*
X50006207Y-74668896D01*
X50028729Y-74676954D01*
X50050353Y-74687182D01*
X50070870Y-74699479D01*
X50090083Y-74713729D01*
X50107807Y-74729793D01*
X50123871Y-74747517D01*
X50138121Y-74766730D01*
X50150418Y-74787247D01*
X50160646Y-74808871D01*
X50168704Y-74831393D01*
X50174516Y-74854597D01*
X50178026Y-74878258D01*
X50179200Y-74902150D01*
X50179200Y-75389650D01*
X50178026Y-75413542D01*
X50174516Y-75437203D01*
X50168704Y-75460407D01*
X50160646Y-75482929D01*
X50150418Y-75504553D01*
X50138121Y-75525070D01*
X50123871Y-75544283D01*
X50107807Y-75562007D01*
X50090083Y-75578071D01*
X50070870Y-75592321D01*
X50050353Y-75604618D01*
X50028729Y-75614846D01*
X50006207Y-75622904D01*
X49983003Y-75628716D01*
X49959342Y-75632226D01*
X49935450Y-75633400D01*
X49022950Y-75633400D01*
X48999058Y-75632226D01*
X48975397Y-75628716D01*
X48952193Y-75622904D01*
X48929671Y-75614846D01*
X48908047Y-75604618D01*
X48887530Y-75592321D01*
X48868317Y-75578071D01*
X48850593Y-75562007D01*
X48834529Y-75544283D01*
X48820279Y-75525070D01*
X48807982Y-75504553D01*
X48797754Y-75482929D01*
X48789696Y-75460407D01*
X48783884Y-75437203D01*
X48780374Y-75413542D01*
X48779200Y-75389650D01*
X48779200Y-74902150D01*
X48780374Y-74878258D01*
X48783884Y-74854597D01*
X48789696Y-74831393D01*
X48797754Y-74808871D01*
X48807982Y-74787247D01*
X48820279Y-74766730D01*
X48834529Y-74747517D01*
X48850593Y-74729793D01*
X48868317Y-74713729D01*
X48887530Y-74699479D01*
X48908047Y-74687182D01*
X48929671Y-74676954D01*
X48952193Y-74668896D01*
X48975397Y-74663084D01*
X48999058Y-74659574D01*
X49022950Y-74658400D01*
X49935450Y-74658400D01*
X49959342Y-74659574D01*
X49959342Y-74659574D01*
G37*
D18*
X49479200Y-75145900D03*
D17*
G36*
X49959342Y-76534574D02*
G01*
X49983003Y-76538084D01*
X50006207Y-76543896D01*
X50028729Y-76551954D01*
X50050353Y-76562182D01*
X50070870Y-76574479D01*
X50090083Y-76588729D01*
X50107807Y-76604793D01*
X50123871Y-76622517D01*
X50138121Y-76641730D01*
X50150418Y-76662247D01*
X50160646Y-76683871D01*
X50168704Y-76706393D01*
X50174516Y-76729597D01*
X50178026Y-76753258D01*
X50179200Y-76777150D01*
X50179200Y-77264650D01*
X50178026Y-77288542D01*
X50174516Y-77312203D01*
X50168704Y-77335407D01*
X50160646Y-77357929D01*
X50150418Y-77379553D01*
X50138121Y-77400070D01*
X50123871Y-77419283D01*
X50107807Y-77437007D01*
X50090083Y-77453071D01*
X50070870Y-77467321D01*
X50050353Y-77479618D01*
X50028729Y-77489846D01*
X50006207Y-77497904D01*
X49983003Y-77503716D01*
X49959342Y-77507226D01*
X49935450Y-77508400D01*
X49022950Y-77508400D01*
X48999058Y-77507226D01*
X48975397Y-77503716D01*
X48952193Y-77497904D01*
X48929671Y-77489846D01*
X48908047Y-77479618D01*
X48887530Y-77467321D01*
X48868317Y-77453071D01*
X48850593Y-77437007D01*
X48834529Y-77419283D01*
X48820279Y-77400070D01*
X48807982Y-77379553D01*
X48797754Y-77357929D01*
X48789696Y-77335407D01*
X48783884Y-77312203D01*
X48780374Y-77288542D01*
X48779200Y-77264650D01*
X48779200Y-76777150D01*
X48780374Y-76753258D01*
X48783884Y-76729597D01*
X48789696Y-76706393D01*
X48797754Y-76683871D01*
X48807982Y-76662247D01*
X48820279Y-76641730D01*
X48834529Y-76622517D01*
X48850593Y-76604793D01*
X48868317Y-76588729D01*
X48887530Y-76574479D01*
X48908047Y-76562182D01*
X48929671Y-76551954D01*
X48952193Y-76543896D01*
X48975397Y-76538084D01*
X48999058Y-76534574D01*
X49022950Y-76533400D01*
X49935450Y-76533400D01*
X49959342Y-76534574D01*
X49959342Y-76534574D01*
G37*
D18*
X49479200Y-77020900D03*
D17*
G36*
X46517642Y-74632424D02*
G01*
X46541303Y-74635934D01*
X46564507Y-74641746D01*
X46587029Y-74649804D01*
X46608653Y-74660032D01*
X46629170Y-74672329D01*
X46648383Y-74686579D01*
X46666107Y-74702643D01*
X46682171Y-74720367D01*
X46696421Y-74739580D01*
X46708718Y-74760097D01*
X46718946Y-74781721D01*
X46727004Y-74804243D01*
X46732816Y-74827447D01*
X46736326Y-74851108D01*
X46737500Y-74875000D01*
X46737500Y-75362500D01*
X46736326Y-75386392D01*
X46732816Y-75410053D01*
X46727004Y-75433257D01*
X46718946Y-75455779D01*
X46708718Y-75477403D01*
X46696421Y-75497920D01*
X46682171Y-75517133D01*
X46666107Y-75534857D01*
X46648383Y-75550921D01*
X46629170Y-75565171D01*
X46608653Y-75577468D01*
X46587029Y-75587696D01*
X46564507Y-75595754D01*
X46541303Y-75601566D01*
X46517642Y-75605076D01*
X46493750Y-75606250D01*
X45581250Y-75606250D01*
X45557358Y-75605076D01*
X45533697Y-75601566D01*
X45510493Y-75595754D01*
X45487971Y-75587696D01*
X45466347Y-75577468D01*
X45445830Y-75565171D01*
X45426617Y-75550921D01*
X45408893Y-75534857D01*
X45392829Y-75517133D01*
X45378579Y-75497920D01*
X45366282Y-75477403D01*
X45356054Y-75455779D01*
X45347996Y-75433257D01*
X45342184Y-75410053D01*
X45338674Y-75386392D01*
X45337500Y-75362500D01*
X45337500Y-74875000D01*
X45338674Y-74851108D01*
X45342184Y-74827447D01*
X45347996Y-74804243D01*
X45356054Y-74781721D01*
X45366282Y-74760097D01*
X45378579Y-74739580D01*
X45392829Y-74720367D01*
X45408893Y-74702643D01*
X45426617Y-74686579D01*
X45445830Y-74672329D01*
X45466347Y-74660032D01*
X45487971Y-74649804D01*
X45510493Y-74641746D01*
X45533697Y-74635934D01*
X45557358Y-74632424D01*
X45581250Y-74631250D01*
X46493750Y-74631250D01*
X46517642Y-74632424D01*
X46517642Y-74632424D01*
G37*
D18*
X46037500Y-75118750D03*
D17*
G36*
X46517642Y-76507424D02*
G01*
X46541303Y-76510934D01*
X46564507Y-76516746D01*
X46587029Y-76524804D01*
X46608653Y-76535032D01*
X46629170Y-76547329D01*
X46648383Y-76561579D01*
X46666107Y-76577643D01*
X46682171Y-76595367D01*
X46696421Y-76614580D01*
X46708718Y-76635097D01*
X46718946Y-76656721D01*
X46727004Y-76679243D01*
X46732816Y-76702447D01*
X46736326Y-76726108D01*
X46737500Y-76750000D01*
X46737500Y-77237500D01*
X46736326Y-77261392D01*
X46732816Y-77285053D01*
X46727004Y-77308257D01*
X46718946Y-77330779D01*
X46708718Y-77352403D01*
X46696421Y-77372920D01*
X46682171Y-77392133D01*
X46666107Y-77409857D01*
X46648383Y-77425921D01*
X46629170Y-77440171D01*
X46608653Y-77452468D01*
X46587029Y-77462696D01*
X46564507Y-77470754D01*
X46541303Y-77476566D01*
X46517642Y-77480076D01*
X46493750Y-77481250D01*
X45581250Y-77481250D01*
X45557358Y-77480076D01*
X45533697Y-77476566D01*
X45510493Y-77470754D01*
X45487971Y-77462696D01*
X45466347Y-77452468D01*
X45445830Y-77440171D01*
X45426617Y-77425921D01*
X45408893Y-77409857D01*
X45392829Y-77392133D01*
X45378579Y-77372920D01*
X45366282Y-77352403D01*
X45356054Y-77330779D01*
X45347996Y-77308257D01*
X45342184Y-77285053D01*
X45338674Y-77261392D01*
X45337500Y-77237500D01*
X45337500Y-76750000D01*
X45338674Y-76726108D01*
X45342184Y-76702447D01*
X45347996Y-76679243D01*
X45356054Y-76656721D01*
X45366282Y-76635097D01*
X45378579Y-76614580D01*
X45392829Y-76595367D01*
X45408893Y-76577643D01*
X45426617Y-76561579D01*
X45445830Y-76547329D01*
X45466347Y-76535032D01*
X45487971Y-76524804D01*
X45510493Y-76516746D01*
X45533697Y-76510934D01*
X45557358Y-76507424D01*
X45581250Y-76506250D01*
X46493750Y-76506250D01*
X46517642Y-76507424D01*
X46517642Y-76507424D01*
G37*
D18*
X46037500Y-76993750D03*
D19*
X153252800Y-88138500D03*
X152597801Y-88868500D03*
D20*
X151942800Y-89598500D02*
X153252802Y-88138500D01*
D19*
X158292800Y-87058500D03*
X158272800Y-87348500D03*
D20*
X158252800Y-87638500D02*
X158292800Y-87058500D01*
D19*
X153252800Y-69088500D03*
X152597801Y-69818500D03*
D20*
X151942800Y-70548500D02*
X153252802Y-69088500D01*
D19*
X158292800Y-68008500D03*
X158272800Y-68298500D03*
D20*
X158252800Y-68588500D02*
X158292800Y-68008500D01*
D19*
X134202800Y-88138500D03*
X133547801Y-88868500D03*
D20*
X132892800Y-89598500D02*
X134202802Y-88138500D01*
D19*
X139242800Y-87058500D03*
X139222800Y-87348500D03*
D20*
X139202800Y-87638500D02*
X139242800Y-87058500D01*
D19*
X134202800Y-69088500D03*
X133547801Y-69818500D03*
D20*
X132892800Y-70548500D02*
X134202802Y-69088500D01*
D19*
X139242800Y-68008500D03*
X139222800Y-68298500D03*
D20*
X139202800Y-68588500D02*
X139242800Y-68008500D01*
D17*
G36*
X43512004Y-81132454D02*
G01*
X43536273Y-81136054D01*
X43560071Y-81142015D01*
X43583171Y-81150280D01*
X43605349Y-81160770D01*
X43626393Y-81173383D01*
X43646098Y-81187997D01*
X43664277Y-81204473D01*
X43680753Y-81222652D01*
X43695367Y-81242357D01*
X43707980Y-81263401D01*
X43718470Y-81285579D01*
X43726735Y-81308679D01*
X43732696Y-81332477D01*
X43736296Y-81356746D01*
X43737500Y-81381250D01*
X43737500Y-82131250D01*
X43736296Y-82155754D01*
X43732696Y-82180023D01*
X43726735Y-82203821D01*
X43718470Y-82226921D01*
X43707980Y-82249099D01*
X43695367Y-82270143D01*
X43680753Y-82289848D01*
X43664277Y-82308027D01*
X43646098Y-82324503D01*
X43626393Y-82339117D01*
X43605349Y-82351730D01*
X43583171Y-82362220D01*
X43560071Y-82370485D01*
X43536273Y-82376446D01*
X43512004Y-82380046D01*
X43487500Y-82381250D01*
X42237500Y-82381250D01*
X42212996Y-82380046D01*
X42188727Y-82376446D01*
X42164929Y-82370485D01*
X42141829Y-82362220D01*
X42119651Y-82351730D01*
X42098607Y-82339117D01*
X42078902Y-82324503D01*
X42060723Y-82308027D01*
X42044247Y-82289848D01*
X42029633Y-82270143D01*
X42017020Y-82249099D01*
X42006530Y-82226921D01*
X41998265Y-82203821D01*
X41992304Y-82180023D01*
X41988704Y-82155754D01*
X41987500Y-82131250D01*
X41987500Y-81381250D01*
X41988704Y-81356746D01*
X41992304Y-81332477D01*
X41998265Y-81308679D01*
X42006530Y-81285579D01*
X42017020Y-81263401D01*
X42029633Y-81242357D01*
X42044247Y-81222652D01*
X42060723Y-81204473D01*
X42078902Y-81187997D01*
X42098607Y-81173383D01*
X42119651Y-81160770D01*
X42141829Y-81150280D01*
X42164929Y-81142015D01*
X42188727Y-81136054D01*
X42212996Y-81132454D01*
X42237500Y-81131250D01*
X43487500Y-81131250D01*
X43512004Y-81132454D01*
X43512004Y-81132454D01*
G37*
D21*
X42862500Y-81756250D03*
D17*
G36*
X43512004Y-83932454D02*
G01*
X43536273Y-83936054D01*
X43560071Y-83942015D01*
X43583171Y-83950280D01*
X43605349Y-83960770D01*
X43626393Y-83973383D01*
X43646098Y-83987997D01*
X43664277Y-84004473D01*
X43680753Y-84022652D01*
X43695367Y-84042357D01*
X43707980Y-84063401D01*
X43718470Y-84085579D01*
X43726735Y-84108679D01*
X43732696Y-84132477D01*
X43736296Y-84156746D01*
X43737500Y-84181250D01*
X43737500Y-84931250D01*
X43736296Y-84955754D01*
X43732696Y-84980023D01*
X43726735Y-85003821D01*
X43718470Y-85026921D01*
X43707980Y-85049099D01*
X43695367Y-85070143D01*
X43680753Y-85089848D01*
X43664277Y-85108027D01*
X43646098Y-85124503D01*
X43626393Y-85139117D01*
X43605349Y-85151730D01*
X43583171Y-85162220D01*
X43560071Y-85170485D01*
X43536273Y-85176446D01*
X43512004Y-85180046D01*
X43487500Y-85181250D01*
X42237500Y-85181250D01*
X42212996Y-85180046D01*
X42188727Y-85176446D01*
X42164929Y-85170485D01*
X42141829Y-85162220D01*
X42119651Y-85151730D01*
X42098607Y-85139117D01*
X42078902Y-85124503D01*
X42060723Y-85108027D01*
X42044247Y-85089848D01*
X42029633Y-85070143D01*
X42017020Y-85049099D01*
X42006530Y-85026921D01*
X41998265Y-85003821D01*
X41992304Y-84980023D01*
X41988704Y-84955754D01*
X41987500Y-84931250D01*
X41987500Y-84181250D01*
X41988704Y-84156746D01*
X41992304Y-84132477D01*
X41998265Y-84108679D01*
X42006530Y-84085579D01*
X42017020Y-84063401D01*
X42029633Y-84042357D01*
X42044247Y-84022652D01*
X42060723Y-84004473D01*
X42078902Y-83987997D01*
X42098607Y-83973383D01*
X42119651Y-83960770D01*
X42141829Y-83950280D01*
X42164929Y-83942015D01*
X42188727Y-83936054D01*
X42212996Y-83932454D01*
X42237500Y-83931250D01*
X43487500Y-83931250D01*
X43512004Y-83932454D01*
X43512004Y-83932454D01*
G37*
D21*
X42862500Y-84556250D03*
D10*
X163690300Y-90488500D03*
X163690300Y-93788500D03*
X144640300Y-90488500D03*
X144640300Y-93788500D03*
X144640300Y-71438500D03*
X144640300Y-74738500D03*
D17*
G36*
X80580142Y-91376174D02*
G01*
X80603803Y-91379684D01*
X80627007Y-91385496D01*
X80649529Y-91393554D01*
X80671153Y-91403782D01*
X80691670Y-91416079D01*
X80710883Y-91430329D01*
X80728607Y-91446393D01*
X80744671Y-91464117D01*
X80758921Y-91483330D01*
X80771218Y-91503847D01*
X80781446Y-91525471D01*
X80789504Y-91547993D01*
X80795316Y-91571197D01*
X80798826Y-91594858D01*
X80800000Y-91618750D01*
X80800000Y-92531250D01*
X80798826Y-92555142D01*
X80795316Y-92578803D01*
X80789504Y-92602007D01*
X80781446Y-92624529D01*
X80771218Y-92646153D01*
X80758921Y-92666670D01*
X80744671Y-92685883D01*
X80728607Y-92703607D01*
X80710883Y-92719671D01*
X80691670Y-92733921D01*
X80671153Y-92746218D01*
X80649529Y-92756446D01*
X80627007Y-92764504D01*
X80603803Y-92770316D01*
X80580142Y-92773826D01*
X80556250Y-92775000D01*
X80068750Y-92775000D01*
X80044858Y-92773826D01*
X80021197Y-92770316D01*
X79997993Y-92764504D01*
X79975471Y-92756446D01*
X79953847Y-92746218D01*
X79933330Y-92733921D01*
X79914117Y-92719671D01*
X79896393Y-92703607D01*
X79880329Y-92685883D01*
X79866079Y-92666670D01*
X79853782Y-92646153D01*
X79843554Y-92624529D01*
X79835496Y-92602007D01*
X79829684Y-92578803D01*
X79826174Y-92555142D01*
X79825000Y-92531250D01*
X79825000Y-91618750D01*
X79826174Y-91594858D01*
X79829684Y-91571197D01*
X79835496Y-91547993D01*
X79843554Y-91525471D01*
X79853782Y-91503847D01*
X79866079Y-91483330D01*
X79880329Y-91464117D01*
X79896393Y-91446393D01*
X79914117Y-91430329D01*
X79933330Y-91416079D01*
X79953847Y-91403782D01*
X79975471Y-91393554D01*
X79997993Y-91385496D01*
X80021197Y-91379684D01*
X80044858Y-91376174D01*
X80068750Y-91375000D01*
X80556250Y-91375000D01*
X80580142Y-91376174D01*
X80580142Y-91376174D01*
G37*
D18*
X80312500Y-92075000D03*
D17*
G36*
X78705142Y-91376174D02*
G01*
X78728803Y-91379684D01*
X78752007Y-91385496D01*
X78774529Y-91393554D01*
X78796153Y-91403782D01*
X78816670Y-91416079D01*
X78835883Y-91430329D01*
X78853607Y-91446393D01*
X78869671Y-91464117D01*
X78883921Y-91483330D01*
X78896218Y-91503847D01*
X78906446Y-91525471D01*
X78914504Y-91547993D01*
X78920316Y-91571197D01*
X78923826Y-91594858D01*
X78925000Y-91618750D01*
X78925000Y-92531250D01*
X78923826Y-92555142D01*
X78920316Y-92578803D01*
X78914504Y-92602007D01*
X78906446Y-92624529D01*
X78896218Y-92646153D01*
X78883921Y-92666670D01*
X78869671Y-92685883D01*
X78853607Y-92703607D01*
X78835883Y-92719671D01*
X78816670Y-92733921D01*
X78796153Y-92746218D01*
X78774529Y-92756446D01*
X78752007Y-92764504D01*
X78728803Y-92770316D01*
X78705142Y-92773826D01*
X78681250Y-92775000D01*
X78193750Y-92775000D01*
X78169858Y-92773826D01*
X78146197Y-92770316D01*
X78122993Y-92764504D01*
X78100471Y-92756446D01*
X78078847Y-92746218D01*
X78058330Y-92733921D01*
X78039117Y-92719671D01*
X78021393Y-92703607D01*
X78005329Y-92685883D01*
X77991079Y-92666670D01*
X77978782Y-92646153D01*
X77968554Y-92624529D01*
X77960496Y-92602007D01*
X77954684Y-92578803D01*
X77951174Y-92555142D01*
X77950000Y-92531250D01*
X77950000Y-91618750D01*
X77951174Y-91594858D01*
X77954684Y-91571197D01*
X77960496Y-91547993D01*
X77968554Y-91525471D01*
X77978782Y-91503847D01*
X77991079Y-91483330D01*
X78005329Y-91464117D01*
X78021393Y-91446393D01*
X78039117Y-91430329D01*
X78058330Y-91416079D01*
X78078847Y-91403782D01*
X78100471Y-91393554D01*
X78122993Y-91385496D01*
X78146197Y-91379684D01*
X78169858Y-91376174D01*
X78193750Y-91375000D01*
X78681250Y-91375000D01*
X78705142Y-91376174D01*
X78705142Y-91376174D01*
G37*
D18*
X78437500Y-92075000D03*
D17*
G36*
X71387642Y-81368574D02*
G01*
X71411303Y-81372084D01*
X71434507Y-81377896D01*
X71457029Y-81385954D01*
X71478653Y-81396182D01*
X71499170Y-81408479D01*
X71518383Y-81422729D01*
X71536107Y-81438793D01*
X71552171Y-81456517D01*
X71566421Y-81475730D01*
X71578718Y-81496247D01*
X71588946Y-81517871D01*
X71597004Y-81540393D01*
X71602816Y-81563597D01*
X71606326Y-81587258D01*
X71607500Y-81611150D01*
X71607500Y-82523650D01*
X71606326Y-82547542D01*
X71602816Y-82571203D01*
X71597004Y-82594407D01*
X71588946Y-82616929D01*
X71578718Y-82638553D01*
X71566421Y-82659070D01*
X71552171Y-82678283D01*
X71536107Y-82696007D01*
X71518383Y-82712071D01*
X71499170Y-82726321D01*
X71478653Y-82738618D01*
X71457029Y-82748846D01*
X71434507Y-82756904D01*
X71411303Y-82762716D01*
X71387642Y-82766226D01*
X71363750Y-82767400D01*
X70876250Y-82767400D01*
X70852358Y-82766226D01*
X70828697Y-82762716D01*
X70805493Y-82756904D01*
X70782971Y-82748846D01*
X70761347Y-82738618D01*
X70740830Y-82726321D01*
X70721617Y-82712071D01*
X70703893Y-82696007D01*
X70687829Y-82678283D01*
X70673579Y-82659070D01*
X70661282Y-82638553D01*
X70651054Y-82616929D01*
X70642996Y-82594407D01*
X70637184Y-82571203D01*
X70633674Y-82547542D01*
X70632500Y-82523650D01*
X70632500Y-81611150D01*
X70633674Y-81587258D01*
X70637184Y-81563597D01*
X70642996Y-81540393D01*
X70651054Y-81517871D01*
X70661282Y-81496247D01*
X70673579Y-81475730D01*
X70687829Y-81456517D01*
X70703893Y-81438793D01*
X70721617Y-81422729D01*
X70740830Y-81408479D01*
X70761347Y-81396182D01*
X70782971Y-81385954D01*
X70805493Y-81377896D01*
X70828697Y-81372084D01*
X70852358Y-81368574D01*
X70876250Y-81367400D01*
X71363750Y-81367400D01*
X71387642Y-81368574D01*
X71387642Y-81368574D01*
G37*
D18*
X71120000Y-82067400D03*
D17*
G36*
X73262642Y-81368574D02*
G01*
X73286303Y-81372084D01*
X73309507Y-81377896D01*
X73332029Y-81385954D01*
X73353653Y-81396182D01*
X73374170Y-81408479D01*
X73393383Y-81422729D01*
X73411107Y-81438793D01*
X73427171Y-81456517D01*
X73441421Y-81475730D01*
X73453718Y-81496247D01*
X73463946Y-81517871D01*
X73472004Y-81540393D01*
X73477816Y-81563597D01*
X73481326Y-81587258D01*
X73482500Y-81611150D01*
X73482500Y-82523650D01*
X73481326Y-82547542D01*
X73477816Y-82571203D01*
X73472004Y-82594407D01*
X73463946Y-82616929D01*
X73453718Y-82638553D01*
X73441421Y-82659070D01*
X73427171Y-82678283D01*
X73411107Y-82696007D01*
X73393383Y-82712071D01*
X73374170Y-82726321D01*
X73353653Y-82738618D01*
X73332029Y-82748846D01*
X73309507Y-82756904D01*
X73286303Y-82762716D01*
X73262642Y-82766226D01*
X73238750Y-82767400D01*
X72751250Y-82767400D01*
X72727358Y-82766226D01*
X72703697Y-82762716D01*
X72680493Y-82756904D01*
X72657971Y-82748846D01*
X72636347Y-82738618D01*
X72615830Y-82726321D01*
X72596617Y-82712071D01*
X72578893Y-82696007D01*
X72562829Y-82678283D01*
X72548579Y-82659070D01*
X72536282Y-82638553D01*
X72526054Y-82616929D01*
X72517996Y-82594407D01*
X72512184Y-82571203D01*
X72508674Y-82547542D01*
X72507500Y-82523650D01*
X72507500Y-81611150D01*
X72508674Y-81587258D01*
X72512184Y-81563597D01*
X72517996Y-81540393D01*
X72526054Y-81517871D01*
X72536282Y-81496247D01*
X72548579Y-81475730D01*
X72562829Y-81456517D01*
X72578893Y-81438793D01*
X72596617Y-81422729D01*
X72615830Y-81408479D01*
X72636347Y-81396182D01*
X72657971Y-81385954D01*
X72680493Y-81377896D01*
X72703697Y-81372084D01*
X72727358Y-81368574D01*
X72751250Y-81367400D01*
X73238750Y-81367400D01*
X73262642Y-81368574D01*
X73262642Y-81368574D01*
G37*
D18*
X72995000Y-82067400D03*
D17*
G36*
X92555142Y-78094924D02*
G01*
X92578803Y-78098434D01*
X92602007Y-78104246D01*
X92624529Y-78112304D01*
X92646153Y-78122532D01*
X92666670Y-78134829D01*
X92685883Y-78149079D01*
X92703607Y-78165143D01*
X92719671Y-78182867D01*
X92733921Y-78202080D01*
X92746218Y-78222597D01*
X92756446Y-78244221D01*
X92764504Y-78266743D01*
X92770316Y-78289947D01*
X92773826Y-78313608D01*
X92775000Y-78337500D01*
X92775000Y-78825000D01*
X92773826Y-78848892D01*
X92770316Y-78872553D01*
X92764504Y-78895757D01*
X92756446Y-78918279D01*
X92746218Y-78939903D01*
X92733921Y-78960420D01*
X92719671Y-78979633D01*
X92703607Y-78997357D01*
X92685883Y-79013421D01*
X92666670Y-79027671D01*
X92646153Y-79039968D01*
X92624529Y-79050196D01*
X92602007Y-79058254D01*
X92578803Y-79064066D01*
X92555142Y-79067576D01*
X92531250Y-79068750D01*
X91618750Y-79068750D01*
X91594858Y-79067576D01*
X91571197Y-79064066D01*
X91547993Y-79058254D01*
X91525471Y-79050196D01*
X91503847Y-79039968D01*
X91483330Y-79027671D01*
X91464117Y-79013421D01*
X91446393Y-78997357D01*
X91430329Y-78979633D01*
X91416079Y-78960420D01*
X91403782Y-78939903D01*
X91393554Y-78918279D01*
X91385496Y-78895757D01*
X91379684Y-78872553D01*
X91376174Y-78848892D01*
X91375000Y-78825000D01*
X91375000Y-78337500D01*
X91376174Y-78313608D01*
X91379684Y-78289947D01*
X91385496Y-78266743D01*
X91393554Y-78244221D01*
X91403782Y-78222597D01*
X91416079Y-78202080D01*
X91430329Y-78182867D01*
X91446393Y-78165143D01*
X91464117Y-78149079D01*
X91483330Y-78134829D01*
X91503847Y-78122532D01*
X91525471Y-78112304D01*
X91547993Y-78104246D01*
X91571197Y-78098434D01*
X91594858Y-78094924D01*
X91618750Y-78093750D01*
X92531250Y-78093750D01*
X92555142Y-78094924D01*
X92555142Y-78094924D01*
G37*
D18*
X92075000Y-78581250D03*
D17*
G36*
X92555142Y-79969924D02*
G01*
X92578803Y-79973434D01*
X92602007Y-79979246D01*
X92624529Y-79987304D01*
X92646153Y-79997532D01*
X92666670Y-80009829D01*
X92685883Y-80024079D01*
X92703607Y-80040143D01*
X92719671Y-80057867D01*
X92733921Y-80077080D01*
X92746218Y-80097597D01*
X92756446Y-80119221D01*
X92764504Y-80141743D01*
X92770316Y-80164947D01*
X92773826Y-80188608D01*
X92775000Y-80212500D01*
X92775000Y-80700000D01*
X92773826Y-80723892D01*
X92770316Y-80747553D01*
X92764504Y-80770757D01*
X92756446Y-80793279D01*
X92746218Y-80814903D01*
X92733921Y-80835420D01*
X92719671Y-80854633D01*
X92703607Y-80872357D01*
X92685883Y-80888421D01*
X92666670Y-80902671D01*
X92646153Y-80914968D01*
X92624529Y-80925196D01*
X92602007Y-80933254D01*
X92578803Y-80939066D01*
X92555142Y-80942576D01*
X92531250Y-80943750D01*
X91618750Y-80943750D01*
X91594858Y-80942576D01*
X91571197Y-80939066D01*
X91547993Y-80933254D01*
X91525471Y-80925196D01*
X91503847Y-80914968D01*
X91483330Y-80902671D01*
X91464117Y-80888421D01*
X91446393Y-80872357D01*
X91430329Y-80854633D01*
X91416079Y-80835420D01*
X91403782Y-80814903D01*
X91393554Y-80793279D01*
X91385496Y-80770757D01*
X91379684Y-80747553D01*
X91376174Y-80723892D01*
X91375000Y-80700000D01*
X91375000Y-80212500D01*
X91376174Y-80188608D01*
X91379684Y-80164947D01*
X91385496Y-80141743D01*
X91393554Y-80119221D01*
X91403782Y-80097597D01*
X91416079Y-80077080D01*
X91430329Y-80057867D01*
X91446393Y-80040143D01*
X91464117Y-80024079D01*
X91483330Y-80009829D01*
X91503847Y-79997532D01*
X91525471Y-79987304D01*
X91547993Y-79979246D01*
X91571197Y-79973434D01*
X91594858Y-79969924D01*
X91618750Y-79968750D01*
X92531250Y-79968750D01*
X92555142Y-79969924D01*
X92555142Y-79969924D01*
G37*
D18*
X92075000Y-80456250D03*
D17*
G36*
X86498892Y-91376174D02*
G01*
X86522553Y-91379684D01*
X86545757Y-91385496D01*
X86568279Y-91393554D01*
X86589903Y-91403782D01*
X86610420Y-91416079D01*
X86629633Y-91430329D01*
X86647357Y-91446393D01*
X86663421Y-91464117D01*
X86677671Y-91483330D01*
X86689968Y-91503847D01*
X86700196Y-91525471D01*
X86708254Y-91547993D01*
X86714066Y-91571197D01*
X86717576Y-91594858D01*
X86718750Y-91618750D01*
X86718750Y-92531250D01*
X86717576Y-92555142D01*
X86714066Y-92578803D01*
X86708254Y-92602007D01*
X86700196Y-92624529D01*
X86689968Y-92646153D01*
X86677671Y-92666670D01*
X86663421Y-92685883D01*
X86647357Y-92703607D01*
X86629633Y-92719671D01*
X86610420Y-92733921D01*
X86589903Y-92746218D01*
X86568279Y-92756446D01*
X86545757Y-92764504D01*
X86522553Y-92770316D01*
X86498892Y-92773826D01*
X86475000Y-92775000D01*
X85987500Y-92775000D01*
X85963608Y-92773826D01*
X85939947Y-92770316D01*
X85916743Y-92764504D01*
X85894221Y-92756446D01*
X85872597Y-92746218D01*
X85852080Y-92733921D01*
X85832867Y-92719671D01*
X85815143Y-92703607D01*
X85799079Y-92685883D01*
X85784829Y-92666670D01*
X85772532Y-92646153D01*
X85762304Y-92624529D01*
X85754246Y-92602007D01*
X85748434Y-92578803D01*
X85744924Y-92555142D01*
X85743750Y-92531250D01*
X85743750Y-91618750D01*
X85744924Y-91594858D01*
X85748434Y-91571197D01*
X85754246Y-91547993D01*
X85762304Y-91525471D01*
X85772532Y-91503847D01*
X85784829Y-91483330D01*
X85799079Y-91464117D01*
X85815143Y-91446393D01*
X85832867Y-91430329D01*
X85852080Y-91416079D01*
X85872597Y-91403782D01*
X85894221Y-91393554D01*
X85916743Y-91385496D01*
X85939947Y-91379684D01*
X85963608Y-91376174D01*
X85987500Y-91375000D01*
X86475000Y-91375000D01*
X86498892Y-91376174D01*
X86498892Y-91376174D01*
G37*
D18*
X86231250Y-92075000D03*
D17*
G36*
X88373892Y-91376174D02*
G01*
X88397553Y-91379684D01*
X88420757Y-91385496D01*
X88443279Y-91393554D01*
X88464903Y-91403782D01*
X88485420Y-91416079D01*
X88504633Y-91430329D01*
X88522357Y-91446393D01*
X88538421Y-91464117D01*
X88552671Y-91483330D01*
X88564968Y-91503847D01*
X88575196Y-91525471D01*
X88583254Y-91547993D01*
X88589066Y-91571197D01*
X88592576Y-91594858D01*
X88593750Y-91618750D01*
X88593750Y-92531250D01*
X88592576Y-92555142D01*
X88589066Y-92578803D01*
X88583254Y-92602007D01*
X88575196Y-92624529D01*
X88564968Y-92646153D01*
X88552671Y-92666670D01*
X88538421Y-92685883D01*
X88522357Y-92703607D01*
X88504633Y-92719671D01*
X88485420Y-92733921D01*
X88464903Y-92746218D01*
X88443279Y-92756446D01*
X88420757Y-92764504D01*
X88397553Y-92770316D01*
X88373892Y-92773826D01*
X88350000Y-92775000D01*
X87862500Y-92775000D01*
X87838608Y-92773826D01*
X87814947Y-92770316D01*
X87791743Y-92764504D01*
X87769221Y-92756446D01*
X87747597Y-92746218D01*
X87727080Y-92733921D01*
X87707867Y-92719671D01*
X87690143Y-92703607D01*
X87674079Y-92685883D01*
X87659829Y-92666670D01*
X87647532Y-92646153D01*
X87637304Y-92624529D01*
X87629246Y-92602007D01*
X87623434Y-92578803D01*
X87619924Y-92555142D01*
X87618750Y-92531250D01*
X87618750Y-91618750D01*
X87619924Y-91594858D01*
X87623434Y-91571197D01*
X87629246Y-91547993D01*
X87637304Y-91525471D01*
X87647532Y-91503847D01*
X87659829Y-91483330D01*
X87674079Y-91464117D01*
X87690143Y-91446393D01*
X87707867Y-91430329D01*
X87727080Y-91416079D01*
X87747597Y-91403782D01*
X87769221Y-91393554D01*
X87791743Y-91385496D01*
X87814947Y-91379684D01*
X87838608Y-91376174D01*
X87862500Y-91375000D01*
X88350000Y-91375000D01*
X88373892Y-91376174D01*
X88373892Y-91376174D01*
G37*
D18*
X88106250Y-92075000D03*
D17*
G36*
X77975542Y-66709374D02*
G01*
X77999203Y-66712884D01*
X78022407Y-66718696D01*
X78044929Y-66726754D01*
X78066553Y-66736982D01*
X78087070Y-66749279D01*
X78106283Y-66763529D01*
X78124007Y-66779593D01*
X78140071Y-66797317D01*
X78154321Y-66816530D01*
X78166618Y-66837047D01*
X78176846Y-66858671D01*
X78184904Y-66881193D01*
X78190716Y-66904397D01*
X78194226Y-66928058D01*
X78195400Y-66951950D01*
X78195400Y-67439450D01*
X78194226Y-67463342D01*
X78190716Y-67487003D01*
X78184904Y-67510207D01*
X78176846Y-67532729D01*
X78166618Y-67554353D01*
X78154321Y-67574870D01*
X78140071Y-67594083D01*
X78124007Y-67611807D01*
X78106283Y-67627871D01*
X78087070Y-67642121D01*
X78066553Y-67654418D01*
X78044929Y-67664646D01*
X78022407Y-67672704D01*
X77999203Y-67678516D01*
X77975542Y-67682026D01*
X77951650Y-67683200D01*
X77039150Y-67683200D01*
X77015258Y-67682026D01*
X76991597Y-67678516D01*
X76968393Y-67672704D01*
X76945871Y-67664646D01*
X76924247Y-67654418D01*
X76903730Y-67642121D01*
X76884517Y-67627871D01*
X76866793Y-67611807D01*
X76850729Y-67594083D01*
X76836479Y-67574870D01*
X76824182Y-67554353D01*
X76813954Y-67532729D01*
X76805896Y-67510207D01*
X76800084Y-67487003D01*
X76796574Y-67463342D01*
X76795400Y-67439450D01*
X76795400Y-66951950D01*
X76796574Y-66928058D01*
X76800084Y-66904397D01*
X76805896Y-66881193D01*
X76813954Y-66858671D01*
X76824182Y-66837047D01*
X76836479Y-66816530D01*
X76850729Y-66797317D01*
X76866793Y-66779593D01*
X76884517Y-66763529D01*
X76903730Y-66749279D01*
X76924247Y-66736982D01*
X76945871Y-66726754D01*
X76968393Y-66718696D01*
X76991597Y-66712884D01*
X77015258Y-66709374D01*
X77039150Y-66708200D01*
X77951650Y-66708200D01*
X77975542Y-66709374D01*
X77975542Y-66709374D01*
G37*
D18*
X77495400Y-67195700D03*
D17*
G36*
X77975542Y-68584374D02*
G01*
X77999203Y-68587884D01*
X78022407Y-68593696D01*
X78044929Y-68601754D01*
X78066553Y-68611982D01*
X78087070Y-68624279D01*
X78106283Y-68638529D01*
X78124007Y-68654593D01*
X78140071Y-68672317D01*
X78154321Y-68691530D01*
X78166618Y-68712047D01*
X78176846Y-68733671D01*
X78184904Y-68756193D01*
X78190716Y-68779397D01*
X78194226Y-68803058D01*
X78195400Y-68826950D01*
X78195400Y-69314450D01*
X78194226Y-69338342D01*
X78190716Y-69362003D01*
X78184904Y-69385207D01*
X78176846Y-69407729D01*
X78166618Y-69429353D01*
X78154321Y-69449870D01*
X78140071Y-69469083D01*
X78124007Y-69486807D01*
X78106283Y-69502871D01*
X78087070Y-69517121D01*
X78066553Y-69529418D01*
X78044929Y-69539646D01*
X78022407Y-69547704D01*
X77999203Y-69553516D01*
X77975542Y-69557026D01*
X77951650Y-69558200D01*
X77039150Y-69558200D01*
X77015258Y-69557026D01*
X76991597Y-69553516D01*
X76968393Y-69547704D01*
X76945871Y-69539646D01*
X76924247Y-69529418D01*
X76903730Y-69517121D01*
X76884517Y-69502871D01*
X76866793Y-69486807D01*
X76850729Y-69469083D01*
X76836479Y-69449870D01*
X76824182Y-69429353D01*
X76813954Y-69407729D01*
X76805896Y-69385207D01*
X76800084Y-69362003D01*
X76796574Y-69338342D01*
X76795400Y-69314450D01*
X76795400Y-68826950D01*
X76796574Y-68803058D01*
X76800084Y-68779397D01*
X76805896Y-68756193D01*
X76813954Y-68733671D01*
X76824182Y-68712047D01*
X76836479Y-68691530D01*
X76850729Y-68672317D01*
X76866793Y-68654593D01*
X76884517Y-68638529D01*
X76903730Y-68624279D01*
X76924247Y-68611982D01*
X76945871Y-68601754D01*
X76968393Y-68593696D01*
X76991597Y-68587884D01*
X77015258Y-68584374D01*
X77039150Y-68583200D01*
X77951650Y-68583200D01*
X77975542Y-68584374D01*
X77975542Y-68584374D01*
G37*
D18*
X77495400Y-69070700D03*
D17*
G36*
X87830742Y-66802874D02*
G01*
X87854403Y-66806384D01*
X87877607Y-66812196D01*
X87900129Y-66820254D01*
X87921753Y-66830482D01*
X87942270Y-66842779D01*
X87961483Y-66857029D01*
X87979207Y-66873093D01*
X87995271Y-66890817D01*
X88009521Y-66910030D01*
X88021818Y-66930547D01*
X88032046Y-66952171D01*
X88040104Y-66974693D01*
X88045916Y-66997897D01*
X88049426Y-67021558D01*
X88050600Y-67045450D01*
X88050600Y-67532950D01*
X88049426Y-67556842D01*
X88045916Y-67580503D01*
X88040104Y-67603707D01*
X88032046Y-67626229D01*
X88021818Y-67647853D01*
X88009521Y-67668370D01*
X87995271Y-67687583D01*
X87979207Y-67705307D01*
X87961483Y-67721371D01*
X87942270Y-67735621D01*
X87921753Y-67747918D01*
X87900129Y-67758146D01*
X87877607Y-67766204D01*
X87854403Y-67772016D01*
X87830742Y-67775526D01*
X87806850Y-67776700D01*
X86894350Y-67776700D01*
X86870458Y-67775526D01*
X86846797Y-67772016D01*
X86823593Y-67766204D01*
X86801071Y-67758146D01*
X86779447Y-67747918D01*
X86758930Y-67735621D01*
X86739717Y-67721371D01*
X86721993Y-67705307D01*
X86705929Y-67687583D01*
X86691679Y-67668370D01*
X86679382Y-67647853D01*
X86669154Y-67626229D01*
X86661096Y-67603707D01*
X86655284Y-67580503D01*
X86651774Y-67556842D01*
X86650600Y-67532950D01*
X86650600Y-67045450D01*
X86651774Y-67021558D01*
X86655284Y-66997897D01*
X86661096Y-66974693D01*
X86669154Y-66952171D01*
X86679382Y-66930547D01*
X86691679Y-66910030D01*
X86705929Y-66890817D01*
X86721993Y-66873093D01*
X86739717Y-66857029D01*
X86758930Y-66842779D01*
X86779447Y-66830482D01*
X86801071Y-66820254D01*
X86823593Y-66812196D01*
X86846797Y-66806384D01*
X86870458Y-66802874D01*
X86894350Y-66801700D01*
X87806850Y-66801700D01*
X87830742Y-66802874D01*
X87830742Y-66802874D01*
G37*
D18*
X87350600Y-67289200D03*
D17*
G36*
X87830742Y-68677874D02*
G01*
X87854403Y-68681384D01*
X87877607Y-68687196D01*
X87900129Y-68695254D01*
X87921753Y-68705482D01*
X87942270Y-68717779D01*
X87961483Y-68732029D01*
X87979207Y-68748093D01*
X87995271Y-68765817D01*
X88009521Y-68785030D01*
X88021818Y-68805547D01*
X88032046Y-68827171D01*
X88040104Y-68849693D01*
X88045916Y-68872897D01*
X88049426Y-68896558D01*
X88050600Y-68920450D01*
X88050600Y-69407950D01*
X88049426Y-69431842D01*
X88045916Y-69455503D01*
X88040104Y-69478707D01*
X88032046Y-69501229D01*
X88021818Y-69522853D01*
X88009521Y-69543370D01*
X87995271Y-69562583D01*
X87979207Y-69580307D01*
X87961483Y-69596371D01*
X87942270Y-69610621D01*
X87921753Y-69622918D01*
X87900129Y-69633146D01*
X87877607Y-69641204D01*
X87854403Y-69647016D01*
X87830742Y-69650526D01*
X87806850Y-69651700D01*
X86894350Y-69651700D01*
X86870458Y-69650526D01*
X86846797Y-69647016D01*
X86823593Y-69641204D01*
X86801071Y-69633146D01*
X86779447Y-69622918D01*
X86758930Y-69610621D01*
X86739717Y-69596371D01*
X86721993Y-69580307D01*
X86705929Y-69562583D01*
X86691679Y-69543370D01*
X86679382Y-69522853D01*
X86669154Y-69501229D01*
X86661096Y-69478707D01*
X86655284Y-69455503D01*
X86651774Y-69431842D01*
X86650600Y-69407950D01*
X86650600Y-68920450D01*
X86651774Y-68896558D01*
X86655284Y-68872897D01*
X86661096Y-68849693D01*
X86669154Y-68827171D01*
X86679382Y-68805547D01*
X86691679Y-68785030D01*
X86705929Y-68765817D01*
X86721993Y-68748093D01*
X86739717Y-68732029D01*
X86758930Y-68717779D01*
X86779447Y-68705482D01*
X86801071Y-68695254D01*
X86823593Y-68687196D01*
X86846797Y-68681384D01*
X86870458Y-68677874D01*
X86894350Y-68676700D01*
X87806850Y-68676700D01*
X87830742Y-68677874D01*
X87830742Y-68677874D01*
G37*
D18*
X87350600Y-69164200D03*
D17*
G36*
X75886392Y-73332424D02*
G01*
X75910053Y-73335934D01*
X75933257Y-73341746D01*
X75955779Y-73349804D01*
X75977403Y-73360032D01*
X75997920Y-73372329D01*
X76017133Y-73386579D01*
X76034857Y-73402643D01*
X76050921Y-73420367D01*
X76065171Y-73439580D01*
X76077468Y-73460097D01*
X76087696Y-73481721D01*
X76095754Y-73504243D01*
X76101566Y-73527447D01*
X76105076Y-73551108D01*
X76106250Y-73575000D01*
X76106250Y-74062500D01*
X76105076Y-74086392D01*
X76101566Y-74110053D01*
X76095754Y-74133257D01*
X76087696Y-74155779D01*
X76077468Y-74177403D01*
X76065171Y-74197920D01*
X76050921Y-74217133D01*
X76034857Y-74234857D01*
X76017133Y-74250921D01*
X75997920Y-74265171D01*
X75977403Y-74277468D01*
X75955779Y-74287696D01*
X75933257Y-74295754D01*
X75910053Y-74301566D01*
X75886392Y-74305076D01*
X75862500Y-74306250D01*
X74950000Y-74306250D01*
X74926108Y-74305076D01*
X74902447Y-74301566D01*
X74879243Y-74295754D01*
X74856721Y-74287696D01*
X74835097Y-74277468D01*
X74814580Y-74265171D01*
X74795367Y-74250921D01*
X74777643Y-74234857D01*
X74761579Y-74217133D01*
X74747329Y-74197920D01*
X74735032Y-74177403D01*
X74724804Y-74155779D01*
X74716746Y-74133257D01*
X74710934Y-74110053D01*
X74707424Y-74086392D01*
X74706250Y-74062500D01*
X74706250Y-73575000D01*
X74707424Y-73551108D01*
X74710934Y-73527447D01*
X74716746Y-73504243D01*
X74724804Y-73481721D01*
X74735032Y-73460097D01*
X74747329Y-73439580D01*
X74761579Y-73420367D01*
X74777643Y-73402643D01*
X74795367Y-73386579D01*
X74814580Y-73372329D01*
X74835097Y-73360032D01*
X74856721Y-73349804D01*
X74879243Y-73341746D01*
X74902447Y-73335934D01*
X74926108Y-73332424D01*
X74950000Y-73331250D01*
X75862500Y-73331250D01*
X75886392Y-73332424D01*
X75886392Y-73332424D01*
G37*
D18*
X75406250Y-73818750D03*
D17*
G36*
X75886392Y-75207424D02*
G01*
X75910053Y-75210934D01*
X75933257Y-75216746D01*
X75955779Y-75224804D01*
X75977403Y-75235032D01*
X75997920Y-75247329D01*
X76017133Y-75261579D01*
X76034857Y-75277643D01*
X76050921Y-75295367D01*
X76065171Y-75314580D01*
X76077468Y-75335097D01*
X76087696Y-75356721D01*
X76095754Y-75379243D01*
X76101566Y-75402447D01*
X76105076Y-75426108D01*
X76106250Y-75450000D01*
X76106250Y-75937500D01*
X76105076Y-75961392D01*
X76101566Y-75985053D01*
X76095754Y-76008257D01*
X76087696Y-76030779D01*
X76077468Y-76052403D01*
X76065171Y-76072920D01*
X76050921Y-76092133D01*
X76034857Y-76109857D01*
X76017133Y-76125921D01*
X75997920Y-76140171D01*
X75977403Y-76152468D01*
X75955779Y-76162696D01*
X75933257Y-76170754D01*
X75910053Y-76176566D01*
X75886392Y-76180076D01*
X75862500Y-76181250D01*
X74950000Y-76181250D01*
X74926108Y-76180076D01*
X74902447Y-76176566D01*
X74879243Y-76170754D01*
X74856721Y-76162696D01*
X74835097Y-76152468D01*
X74814580Y-76140171D01*
X74795367Y-76125921D01*
X74777643Y-76109857D01*
X74761579Y-76092133D01*
X74747329Y-76072920D01*
X74735032Y-76052403D01*
X74724804Y-76030779D01*
X74716746Y-76008257D01*
X74710934Y-75985053D01*
X74707424Y-75961392D01*
X74706250Y-75937500D01*
X74706250Y-75450000D01*
X74707424Y-75426108D01*
X74710934Y-75402447D01*
X74716746Y-75379243D01*
X74724804Y-75356721D01*
X74735032Y-75335097D01*
X74747329Y-75314580D01*
X74761579Y-75295367D01*
X74777643Y-75277643D01*
X74795367Y-75261579D01*
X74814580Y-75247329D01*
X74835097Y-75235032D01*
X74856721Y-75224804D01*
X74879243Y-75216746D01*
X74902447Y-75210934D01*
X74926108Y-75207424D01*
X74950000Y-75206250D01*
X75862500Y-75206250D01*
X75886392Y-75207424D01*
X75886392Y-75207424D01*
G37*
D18*
X75406250Y-75693750D03*
D22*
X94780100Y-80505300D03*
X90182700Y-92125800D03*
X73825100Y-73647300D03*
X79042100Y-90411300D03*
X74891900Y-81991200D03*
X74891900Y-86144100D03*
X55283100Y-92062300D03*
X70472300Y-75907900D03*
D23*
X44112750Y-95775000D02*
X42887900Y-94550150D01*
X45393750Y-95775000D02*
X44112750Y-95775000D01*
X42887900Y-94550150D02*
X42887900Y-89649300D01*
X42887900Y-89649300D02*
X45593000Y-86944200D01*
X45593000Y-86944200D02*
X68491100Y-86944200D01*
X68491100Y-86944200D02*
X73063100Y-91516200D01*
X73063100Y-91516200D02*
X73063100Y-95161100D01*
X73063100Y-95161100D02*
X73952100Y-96050100D01*
X76337400Y-96050100D02*
X80312500Y-92075000D01*
X73952100Y-96050100D02*
X76337400Y-96050100D01*
X79832600Y-91595100D02*
X79832600Y-88631000D01*
X80312500Y-92075000D02*
X79832600Y-91595100D01*
X86231250Y-88632350D02*
X86232600Y-88631000D01*
X86231250Y-92075000D02*
X86231250Y-88632350D01*
X49225000Y-71093500D02*
X52247800Y-74116300D01*
X49225000Y-69587500D02*
X49225000Y-71093500D01*
X52247800Y-82245200D02*
X53733600Y-83731000D01*
X76201600Y-83731000D02*
X77332600Y-83731000D01*
X52247800Y-74116300D02*
X52247800Y-82245200D01*
X71120000Y-83705700D02*
X71145300Y-83731000D01*
X71120000Y-82067400D02*
X71120000Y-83705700D01*
X71145300Y-83731000D02*
X76201600Y-83731000D01*
X53733600Y-83731000D02*
X71145300Y-83731000D01*
X83502500Y-66354400D02*
X82705500Y-65557400D01*
X83502500Y-67335400D02*
X83502500Y-66354400D01*
X82705500Y-65557400D02*
X76263500Y-65557400D01*
X76263500Y-65557400D02*
X75412600Y-66408300D01*
X75412600Y-66408300D02*
X75412600Y-68745100D01*
X75738200Y-69070700D02*
X77495400Y-69070700D01*
X75412600Y-68745100D02*
X75738200Y-69070700D01*
X81432600Y-73595400D02*
X81432600Y-76100000D01*
X77495400Y-69658200D02*
X81432600Y-73595400D01*
X77495400Y-69070700D02*
X77495400Y-69658200D01*
X81432600Y-76100000D02*
X81432600Y-77231000D01*
X79151350Y-73818750D02*
X81432600Y-76100000D01*
X75406250Y-73818750D02*
X79151350Y-73818750D01*
X83548700Y-67289200D02*
X83502500Y-67335400D01*
X87350600Y-67289200D02*
X83548700Y-67289200D01*
D24*
X83402500Y-67335400D02*
X83502500Y-67335400D01*
X81702500Y-69035400D02*
X83402500Y-67335400D01*
X81302500Y-69035400D02*
X81702500Y-69035400D01*
D23*
X89082350Y-78581250D02*
X88732600Y-78931000D01*
X92075000Y-78581250D02*
X89082350Y-78581250D01*
X79832600Y-87500000D02*
X79832600Y-88631000D01*
X79832600Y-85100000D02*
X79832600Y-87500000D01*
X78463600Y-83731000D02*
X79832600Y-85100000D01*
X77332600Y-83731000D02*
X78463600Y-83731000D01*
X92075000Y-88187500D02*
X92062300Y-88200200D01*
X92075000Y-87600000D02*
X92075000Y-88187500D01*
X92062300Y-88200200D02*
X92062300Y-93319600D01*
X92062300Y-93319600D02*
X91757500Y-93624400D01*
X87780650Y-93624400D02*
X86231250Y-92075000D01*
X91757500Y-93624400D02*
X87780650Y-93624400D01*
X87601600Y-78931000D02*
X88732600Y-78931000D01*
X87060502Y-78931000D02*
X87601600Y-78931000D01*
X86232600Y-79758902D02*
X87060502Y-78931000D01*
X83448500Y-80377900D02*
X86232600Y-80377900D01*
X81432600Y-78362000D02*
X83448500Y-80377900D01*
X81432600Y-77231000D02*
X81432600Y-78362000D01*
X86232600Y-80377900D02*
X86232600Y-79758902D01*
X79832600Y-85100000D02*
X86069800Y-85100000D01*
X86232600Y-84937200D02*
X86232600Y-80377900D01*
X86069800Y-85100000D02*
X86232600Y-84937200D01*
X86232600Y-88631000D02*
X86232600Y-84937200D01*
X79435759Y-75098290D02*
X77720810Y-75098290D01*
X80632600Y-76295131D02*
X79435759Y-75098290D01*
X80632600Y-77231000D02*
X80632600Y-76295131D01*
X77711300Y-75107800D02*
X77711300Y-75158600D01*
X77720810Y-75098290D02*
X77711300Y-75107800D01*
X72787487Y-74374987D02*
X72231250Y-73818750D01*
X77176150Y-75693750D02*
X74106250Y-75693750D01*
X77711300Y-75158600D02*
X77176150Y-75693750D01*
X89863600Y-79731000D02*
X90360500Y-80227900D01*
X88732600Y-79731000D02*
X89863600Y-79731000D01*
X94731050Y-80456250D02*
X94780100Y-80505300D01*
X90588850Y-80456250D02*
X94731050Y-80456250D01*
X90360500Y-80227900D02*
X90588850Y-80456250D01*
X87032600Y-89762000D02*
X87032600Y-88631000D01*
X87032600Y-91279370D02*
X87032600Y-89762000D01*
X87879030Y-92125800D02*
X87032600Y-91279370D01*
X90182700Y-92125800D02*
X87879030Y-92125800D01*
X73634600Y-74403485D02*
X73634600Y-75222100D01*
X73825100Y-74212985D02*
X73634600Y-74403485D01*
X73825100Y-73647300D02*
X73825100Y-74212985D01*
X73634600Y-75222100D02*
X72787487Y-74374987D01*
X74106250Y-75693750D02*
X73634600Y-75222100D01*
X79042100Y-88640500D02*
X79032600Y-88631000D01*
X79042100Y-90411300D02*
X79042100Y-88640500D01*
X43558210Y-85251960D02*
X42862500Y-84556250D01*
X49387160Y-85251960D02*
X43558210Y-85251960D01*
X50241200Y-86106000D02*
X49387160Y-85251960D01*
X69418200Y-86106000D02*
X50241200Y-86106000D01*
X75514200Y-92202000D02*
X69418200Y-86106000D01*
X78041500Y-92202000D02*
X75514200Y-92202000D01*
X79042100Y-91201400D02*
X78041500Y-92202000D01*
X79042100Y-90411300D02*
X79042100Y-91201400D01*
X75031700Y-82131000D02*
X74891900Y-81991200D01*
X77332600Y-82131000D02*
X75031700Y-82131000D01*
X74905000Y-86131000D02*
X74891900Y-86144100D01*
X77332600Y-86131000D02*
X74905000Y-86131000D01*
D25*
X83502500Y-69035400D02*
X83502500Y-69889400D01*
X83032600Y-70359300D02*
X83032600Y-77231000D01*
X83502500Y-69889400D02*
X83032600Y-70359300D01*
X83631300Y-69164200D02*
X83502500Y-69035400D01*
X87350600Y-69164200D02*
X83631300Y-69164200D01*
X80048100Y-67635800D02*
X80048100Y-71479032D01*
X80348500Y-67335400D02*
X80048100Y-67635800D01*
X81302500Y-67335400D02*
X80348500Y-67335400D01*
X82232600Y-73663532D02*
X82232600Y-77231000D01*
X80048100Y-71479032D02*
X82232600Y-73663532D01*
X78735500Y-67635800D02*
X80048100Y-67635800D01*
X78295400Y-67195700D02*
X78735500Y-67635800D01*
X77495400Y-67195700D02*
X78295400Y-67195700D01*
X76328600Y-82931000D02*
X77332600Y-82931000D01*
X74446100Y-82931000D02*
X76328600Y-82931000D01*
X73582500Y-82067400D02*
X74446100Y-82931000D01*
X72995000Y-82067400D02*
X73582500Y-82067400D01*
X144490300Y-71438500D02*
X144640300Y-71438500D01*
X141640300Y-68588500D02*
X144490300Y-71438500D01*
X141640300Y-68588500D02*
X139202800Y-68588500D01*
X145494300Y-74738500D02*
X145495300Y-74739500D01*
X144640300Y-74738500D02*
X145494300Y-74738500D01*
X145495300Y-74739500D02*
X146469100Y-74739500D01*
X146469100Y-74739500D02*
X148107400Y-76377800D01*
X162836300Y-74738500D02*
X163690300Y-74738500D01*
X161197000Y-76377800D02*
X162836300Y-74738500D01*
X148107400Y-76377800D02*
X161197000Y-76377800D01*
X144640300Y-75442500D02*
X144640300Y-74738500D01*
X137951800Y-82131000D02*
X144640300Y-75442500D01*
X88732600Y-82131000D02*
X137951800Y-82131000D01*
X139202800Y-87638500D02*
X142578700Y-87638500D01*
X144640300Y-89700100D02*
X144640300Y-90488500D01*
X142578700Y-87638500D02*
X144640300Y-89700100D01*
X163540300Y-93788500D02*
X163690300Y-93788500D01*
X161113600Y-96215200D02*
X163540300Y-93788500D01*
X147921000Y-96215200D02*
X161113600Y-96215200D01*
X145494300Y-93788500D02*
X147921000Y-96215200D01*
X144640300Y-93788500D02*
X145494300Y-93788500D01*
X92388178Y-84531000D02*
X103348478Y-95491300D01*
X88732600Y-84531000D02*
X92388178Y-84531000D01*
X143786300Y-93788500D02*
X144640300Y-93788500D01*
X142083500Y-95491300D02*
X143786300Y-93788500D01*
X103348478Y-95491300D02*
X142083500Y-95491300D01*
X158252800Y-68588500D02*
X160320600Y-68588500D01*
X160320600Y-68588500D02*
X161442400Y-69710300D01*
X161442400Y-69710300D02*
X161442400Y-71183500D01*
X161697400Y-71438500D02*
X163690300Y-71438500D01*
X161442400Y-71183500D02*
X161697400Y-71438500D01*
X163690300Y-89784500D02*
X163499800Y-89594000D01*
X163690300Y-90488500D02*
X163690300Y-89784500D01*
X160208300Y-89594000D02*
X158252800Y-87638500D01*
X163499800Y-89594000D02*
X160208300Y-89594000D01*
D23*
X46025000Y-70462500D02*
X46025000Y-69587500D01*
X42862500Y-73625000D02*
X46025000Y-70462500D01*
X42862500Y-81756250D02*
X42862500Y-73625000D01*
D25*
X132892800Y-86828500D02*
X132892800Y-89598500D01*
X129795300Y-83731000D02*
X132892800Y-86828500D01*
X88732600Y-83731000D02*
X129795300Y-83731000D01*
X145275300Y-82931000D02*
X151942800Y-89598500D01*
X88732600Y-82931000D02*
X145275300Y-82931000D01*
D26*
X46825000Y-70462500D02*
X47000000Y-70637500D01*
X46825000Y-69587500D02*
X46825000Y-70462500D01*
X47000000Y-70637500D02*
X47000000Y-72299100D01*
X47519775Y-73636475D02*
X46037500Y-75118750D01*
X47519775Y-72818875D02*
X47519775Y-73636475D01*
X47000000Y-72299100D02*
X47519775Y-72818875D01*
D25*
X46037500Y-77581250D02*
X47650400Y-79194150D01*
X46037500Y-76993750D02*
X46037500Y-77581250D01*
X47650400Y-79194150D02*
X47650400Y-80479900D01*
X47650400Y-80479900D02*
X50126900Y-82956400D01*
X50126900Y-82956400D02*
X50126900Y-84251800D01*
X51206100Y-85331000D02*
X77332600Y-85331000D01*
X50126900Y-84251800D02*
X51206100Y-85331000D01*
D26*
X47625000Y-70462500D02*
X47450000Y-70637500D01*
X47625000Y-69587500D02*
X47625000Y-70462500D01*
X47450000Y-70637500D02*
X47450000Y-72112700D01*
X47969775Y-73636475D02*
X49479200Y-75145900D01*
X47969775Y-72632475D02*
X47969775Y-73636475D01*
X47450000Y-72112700D02*
X47969775Y-72632475D01*
D25*
X49479200Y-77020900D02*
X49479200Y-78054200D01*
X49479200Y-78054200D02*
X48247300Y-79286100D01*
X48247300Y-79286100D02*
X48247300Y-79946500D01*
X50580910Y-82280110D02*
X50580910Y-82292810D01*
X48247300Y-79946500D02*
X50580910Y-82280110D01*
X50580910Y-82292810D02*
X50838100Y-82550000D01*
X50838100Y-82550000D02*
X50838100Y-83959700D01*
X51409400Y-84531000D02*
X77332600Y-84531000D01*
X50838100Y-83959700D02*
X51409400Y-84531000D01*
X51606450Y-92062300D02*
X51593750Y-92075000D01*
X55283100Y-92062300D02*
X51606450Y-92062300D01*
X72017100Y-75907900D02*
X72231250Y-75693750D01*
X70472300Y-75907900D02*
X72017100Y-75907900D01*
X72231250Y-76281250D02*
X73115200Y-77165200D01*
X72231250Y-75693750D02*
X72231250Y-76281250D01*
X73115200Y-77165200D02*
X76923900Y-77165200D01*
X76923900Y-77165200D02*
X78473300Y-75615800D01*
X79832600Y-76227000D02*
X79832600Y-77231000D01*
X79221400Y-75615800D02*
X79832600Y-76227000D01*
X78473300Y-75615800D02*
X79221400Y-75615800D01*
X89736600Y-86931000D02*
X88732600Y-86931000D01*
X90069000Y-86931000D02*
X89736600Y-86931000D01*
X91275000Y-85725000D02*
X90069000Y-86931000D01*
X92075000Y-85725000D02*
X91275000Y-85725000D01*
G36*
X127030175Y-81369000D02*
G01*
X95350432Y-81369000D01*
X95439874Y-81309237D01*
X95584037Y-81165074D01*
X95697305Y-80995556D01*
X95775326Y-80807198D01*
X95815100Y-80607239D01*
X95815100Y-80403361D01*
X95775326Y-80203402D01*
X95697305Y-80015044D01*
X95584037Y-79845526D01*
X95439874Y-79701363D01*
X95270356Y-79588095D01*
X95081998Y-79510074D01*
X94882039Y-79470300D01*
X94678161Y-79470300D01*
X94478202Y-79510074D01*
X94289844Y-79588095D01*
X94226006Y-79630750D01*
X93189090Y-79630750D01*
X93154792Y-79588958D01*
X93148436Y-79583742D01*
X93226185Y-79519935D01*
X93305537Y-79423244D01*
X93364502Y-79312930D01*
X93400812Y-79193232D01*
X93413072Y-79068750D01*
X93410000Y-78867000D01*
X93251250Y-78708250D01*
X92202000Y-78708250D01*
X92202000Y-78728250D01*
X91948000Y-78728250D01*
X91948000Y-78708250D01*
X90898750Y-78708250D01*
X90740000Y-78867000D01*
X90736928Y-79068750D01*
X90749188Y-79193232D01*
X90785498Y-79312930D01*
X90844463Y-79423244D01*
X90923815Y-79519935D01*
X91001564Y-79583742D01*
X90995208Y-79588958D01*
X90960910Y-79630750D01*
X90930783Y-79630750D01*
X90475998Y-79175965D01*
X90450141Y-79144459D01*
X90324442Y-79041301D01*
X90181034Y-78964647D01*
X90025426Y-78917444D01*
X89904153Y-78905500D01*
X89904150Y-78905500D01*
X89863600Y-78901506D01*
X89823050Y-78905500D01*
X89799746Y-78905500D01*
X89726780Y-78866498D01*
X89607082Y-78830188D01*
X89482600Y-78817928D01*
X87982600Y-78817928D01*
X87858118Y-78830188D01*
X87738420Y-78866498D01*
X87628106Y-78925463D01*
X87531415Y-79004815D01*
X87452063Y-79101506D01*
X87439683Y-79124667D01*
X87347600Y-79216750D01*
X87357146Y-79330337D01*
X87356788Y-79331518D01*
X87344528Y-79456000D01*
X87344528Y-80006000D01*
X87356788Y-80130482D01*
X87356945Y-80131000D01*
X87356788Y-80131518D01*
X87344528Y-80256000D01*
X87344528Y-80806000D01*
X87356788Y-80930482D01*
X87356945Y-80931000D01*
X87356788Y-80931518D01*
X87344528Y-81056000D01*
X87344528Y-81606000D01*
X87356788Y-81730482D01*
X87356945Y-81731000D01*
X87356788Y-81731518D01*
X87344528Y-81856000D01*
X87344528Y-82406000D01*
X87356788Y-82530482D01*
X87356945Y-82531000D01*
X87356788Y-82531518D01*
X87344528Y-82656000D01*
X87344528Y-83206000D01*
X87356788Y-83330482D01*
X87356945Y-83331000D01*
X87356788Y-83331518D01*
X87344528Y-83456000D01*
X87344528Y-84006000D01*
X87356788Y-84130482D01*
X87356945Y-84131000D01*
X87356788Y-84131518D01*
X87344528Y-84256000D01*
X87344528Y-84806000D01*
X87356788Y-84930482D01*
X87356945Y-84931000D01*
X87356788Y-84931518D01*
X87344528Y-85056000D01*
X87344528Y-85606000D01*
X87356788Y-85730482D01*
X87356945Y-85731000D01*
X87356788Y-85731518D01*
X87344528Y-85856000D01*
X87344528Y-86406000D01*
X87356788Y-86530482D01*
X87356945Y-86531000D01*
X87356788Y-86531518D01*
X87344528Y-86656000D01*
X87344528Y-87206000D01*
X87348562Y-87246962D01*
X87307600Y-87242928D01*
X86757600Y-87242928D01*
X86633118Y-87255188D01*
X86631937Y-87255546D01*
X86518350Y-87246000D01*
X86426267Y-87338083D01*
X86403106Y-87350463D01*
X86306415Y-87429815D01*
X86232600Y-87519759D01*
X86158785Y-87429815D01*
X86062094Y-87350463D01*
X86038933Y-87338083D01*
X85946850Y-87246000D01*
X85833263Y-87255546D01*
X85832082Y-87255188D01*
X85707600Y-87242928D01*
X85157600Y-87242928D01*
X85033118Y-87255188D01*
X85032600Y-87255345D01*
X85032082Y-87255188D01*
X84907600Y-87242928D01*
X84357600Y-87242928D01*
X84233118Y-87255188D01*
X84232600Y-87255345D01*
X84232082Y-87255188D01*
X84107600Y-87242928D01*
X83557600Y-87242928D01*
X83433118Y-87255188D01*
X83432600Y-87255345D01*
X83432082Y-87255188D01*
X83307600Y-87242928D01*
X82757600Y-87242928D01*
X82633118Y-87255188D01*
X82632600Y-87255345D01*
X82632082Y-87255188D01*
X82507600Y-87242928D01*
X81957600Y-87242928D01*
X81833118Y-87255188D01*
X81832600Y-87255345D01*
X81832082Y-87255188D01*
X81707600Y-87242928D01*
X81157600Y-87242928D01*
X81033118Y-87255188D01*
X81032600Y-87255345D01*
X81032082Y-87255188D01*
X80907600Y-87242928D01*
X80357600Y-87242928D01*
X80233118Y-87255188D01*
X80231937Y-87255546D01*
X80118350Y-87246000D01*
X80026267Y-87338083D01*
X80003106Y-87350463D01*
X79906415Y-87429815D01*
X79832600Y-87519759D01*
X79758785Y-87429815D01*
X79662094Y-87350463D01*
X79638933Y-87338083D01*
X79546850Y-87246000D01*
X79433263Y-87255546D01*
X79432082Y-87255188D01*
X79307600Y-87242928D01*
X78757600Y-87242928D01*
X78716638Y-87246962D01*
X78720672Y-87206000D01*
X78720672Y-86656000D01*
X78708412Y-86531518D01*
X78708255Y-86531000D01*
X78708412Y-86530482D01*
X78720672Y-86406000D01*
X78720672Y-85856000D01*
X78708412Y-85731518D01*
X78708255Y-85731000D01*
X78708412Y-85730482D01*
X78720672Y-85606000D01*
X78720672Y-85056000D01*
X78708412Y-84931518D01*
X78708255Y-84931000D01*
X78708412Y-84930482D01*
X78720672Y-84806000D01*
X78720672Y-84256000D01*
X78708412Y-84131518D01*
X78708054Y-84130337D01*
X78717600Y-84016750D01*
X78625517Y-83924667D01*
X78613137Y-83901506D01*
X78533785Y-83804815D01*
X78443841Y-83731000D01*
X78533785Y-83657185D01*
X78613137Y-83560494D01*
X78625517Y-83537333D01*
X78717600Y-83445250D01*
X78708054Y-83331663D01*
X78708412Y-83330482D01*
X78720672Y-83206000D01*
X78720672Y-82656000D01*
X78708412Y-82531518D01*
X78708255Y-82531000D01*
X78708412Y-82530482D01*
X78720672Y-82406000D01*
X78720672Y-81856000D01*
X78708412Y-81731518D01*
X78708255Y-81731000D01*
X78708412Y-81730482D01*
X78720672Y-81606000D01*
X78720672Y-81056000D01*
X78708412Y-80931518D01*
X78708255Y-80931000D01*
X78708412Y-80930482D01*
X78720672Y-80806000D01*
X78720672Y-80256000D01*
X78708412Y-80131518D01*
X78708255Y-80131000D01*
X78708412Y-80130482D01*
X78720672Y-80006000D01*
X78720672Y-79456000D01*
X78708412Y-79331518D01*
X78708255Y-79331000D01*
X78708412Y-79330482D01*
X78720672Y-79206000D01*
X78720672Y-78656000D01*
X78716638Y-78615038D01*
X78757600Y-78619072D01*
X79307600Y-78619072D01*
X79432082Y-78606812D01*
X79432600Y-78606655D01*
X79433118Y-78606812D01*
X79557600Y-78619072D01*
X80107600Y-78619072D01*
X80232082Y-78606812D01*
X80232600Y-78606655D01*
X80233118Y-78606812D01*
X80357600Y-78619072D01*
X80907600Y-78619072D01*
X81032082Y-78606812D01*
X81033263Y-78606454D01*
X81146850Y-78616000D01*
X81238933Y-78523917D01*
X81262094Y-78511537D01*
X81358785Y-78432185D01*
X81432600Y-78342241D01*
X81506415Y-78432185D01*
X81603106Y-78511537D01*
X81626267Y-78523917D01*
X81718350Y-78616000D01*
X81831937Y-78606454D01*
X81833118Y-78606812D01*
X81957600Y-78619072D01*
X82507600Y-78619072D01*
X82632082Y-78606812D01*
X82632600Y-78606655D01*
X82633118Y-78606812D01*
X82757600Y-78619072D01*
X83307600Y-78619072D01*
X83432082Y-78606812D01*
X83432600Y-78606655D01*
X83433118Y-78606812D01*
X83557600Y-78619072D01*
X84107600Y-78619072D01*
X84232082Y-78606812D01*
X84232600Y-78606655D01*
X84233118Y-78606812D01*
X84357600Y-78619072D01*
X84907600Y-78619072D01*
X85032082Y-78606812D01*
X85032600Y-78606655D01*
X85033118Y-78606812D01*
X85157600Y-78619072D01*
X85707600Y-78619072D01*
X85832082Y-78606812D01*
X85832600Y-78606655D01*
X85833118Y-78606812D01*
X85957600Y-78619072D01*
X86507600Y-78619072D01*
X86632082Y-78606812D01*
X86632600Y-78606655D01*
X86633118Y-78606812D01*
X86757600Y-78619072D01*
X87307600Y-78619072D01*
X87350152Y-78614881D01*
X87347600Y-78645250D01*
X87506350Y-78804000D01*
X88605600Y-78804000D01*
X88605600Y-78179750D01*
X88859600Y-78179750D01*
X88859600Y-78804000D01*
X89958850Y-78804000D01*
X90117600Y-78645250D01*
X90107777Y-78528369D01*
X90070865Y-78408855D01*
X90011346Y-78298839D01*
X89931508Y-78202549D01*
X89834418Y-78123684D01*
X89777731Y-78093750D01*
X90736928Y-78093750D01*
X90740000Y-78295500D01*
X90898750Y-78454250D01*
X91948000Y-78454250D01*
X91948000Y-77617500D01*
X92202000Y-77617500D01*
X92202000Y-78454250D01*
X93251250Y-78454250D01*
X93410000Y-78295500D01*
X93413072Y-78093750D01*
X93400812Y-77969268D01*
X93364502Y-77849570D01*
X93305537Y-77739256D01*
X93226185Y-77642565D01*
X93129494Y-77563213D01*
X93019180Y-77504248D01*
X92899482Y-77467938D01*
X92775000Y-77455678D01*
X92360750Y-77458750D01*
X92202000Y-77617500D01*
X91948000Y-77617500D01*
X91789250Y-77458750D01*
X91375000Y-77455678D01*
X91250518Y-77467938D01*
X91130820Y-77504248D01*
X91020506Y-77563213D01*
X90923815Y-77642565D01*
X90844463Y-77739256D01*
X90785498Y-77849570D01*
X90749188Y-77969268D01*
X90736928Y-78093750D01*
X89777731Y-78093750D01*
X89723808Y-78065276D01*
X89603929Y-78029570D01*
X89479387Y-78017936D01*
X89018350Y-78021000D01*
X88859600Y-78179750D01*
X88605600Y-78179750D01*
X88446850Y-78021000D01*
X87985813Y-78017936D01*
X87941628Y-78022064D01*
X87945672Y-77981000D01*
X87945672Y-76481000D01*
X87933412Y-76356518D01*
X87897102Y-76236820D01*
X87838137Y-76126506D01*
X87758785Y-76029815D01*
X87662094Y-75950463D01*
X87551780Y-75891498D01*
X87432082Y-75855188D01*
X87307600Y-75842928D01*
X86757600Y-75842928D01*
X86633118Y-75855188D01*
X86632600Y-75855345D01*
X86632082Y-75855188D01*
X86507600Y-75842928D01*
X85957600Y-75842928D01*
X85833118Y-75855188D01*
X85832600Y-75855345D01*
X85832082Y-75855188D01*
X85707600Y-75842928D01*
X85157600Y-75842928D01*
X85033118Y-75855188D01*
X85032600Y-75855345D01*
X85032082Y-75855188D01*
X84907600Y-75842928D01*
X84357600Y-75842928D01*
X84233118Y-75855188D01*
X84232600Y-75855345D01*
X84232082Y-75855188D01*
X84107600Y-75842928D01*
X83794600Y-75842928D01*
X83794600Y-70674930D01*
X84014846Y-70454684D01*
X84043922Y-70430822D01*
X84106256Y-70354867D01*
X84139145Y-70314793D01*
X84161231Y-70273472D01*
X84202500Y-70273472D01*
X84326982Y-70261212D01*
X84446680Y-70224902D01*
X84556994Y-70165937D01*
X84653685Y-70086585D01*
X84733037Y-69989894D01*
X84767083Y-69926200D01*
X86184397Y-69926200D01*
X86270808Y-70031492D01*
X86404436Y-70141158D01*
X86556891Y-70222647D01*
X86722315Y-70272828D01*
X86894350Y-70289772D01*
X87806850Y-70289772D01*
X87978885Y-70272828D01*
X88144309Y-70222647D01*
X88296764Y-70141158D01*
X88430392Y-70031492D01*
X88540058Y-69897864D01*
X88621547Y-69745409D01*
X88671728Y-69579985D01*
X88688672Y-69407950D01*
X88688672Y-68920450D01*
X88671728Y-68748415D01*
X88621547Y-68582991D01*
X88540058Y-68430536D01*
X88430392Y-68296908D01*
X88424036Y-68291692D01*
X88501785Y-68227885D01*
X88581137Y-68131194D01*
X88640102Y-68020880D01*
X88676412Y-67901182D01*
X88688672Y-67776700D01*
X88685600Y-67574950D01*
X88526850Y-67416200D01*
X87477600Y-67416200D01*
X87477600Y-67436200D01*
X87223600Y-67436200D01*
X87223600Y-67416200D01*
X86174350Y-67416200D01*
X86015600Y-67574950D01*
X86012528Y-67776700D01*
X86024788Y-67901182D01*
X86061098Y-68020880D01*
X86120063Y-68131194D01*
X86199415Y-68227885D01*
X86277164Y-68291692D01*
X86270808Y-68296908D01*
X86184397Y-68402200D01*
X84837302Y-68402200D01*
X84828312Y-68310918D01*
X84792002Y-68191220D01*
X84788891Y-68185400D01*
X84792002Y-68179580D01*
X84828312Y-68059882D01*
X84840572Y-67935400D01*
X84837500Y-67621150D01*
X84678750Y-67462400D01*
X83629500Y-67462400D01*
X83629500Y-67482400D01*
X83375500Y-67482400D01*
X83375500Y-67462400D01*
X83355500Y-67462400D01*
X83355500Y-67208400D01*
X83375500Y-67208400D01*
X83375500Y-66259150D01*
X83629500Y-66259150D01*
X83629500Y-67208400D01*
X84678750Y-67208400D01*
X84837500Y-67049650D01*
X84839923Y-66801700D01*
X86012528Y-66801700D01*
X86015600Y-67003450D01*
X86174350Y-67162200D01*
X87223600Y-67162200D01*
X87223600Y-66325450D01*
X87477600Y-66325450D01*
X87477600Y-67162200D01*
X88526850Y-67162200D01*
X88685600Y-67003450D01*
X88688672Y-66801700D01*
X88676412Y-66677218D01*
X88640102Y-66557520D01*
X88581137Y-66447206D01*
X88501785Y-66350515D01*
X88405094Y-66271163D01*
X88294780Y-66212198D01*
X88175082Y-66175888D01*
X88050600Y-66163628D01*
X87636350Y-66166700D01*
X87477600Y-66325450D01*
X87223600Y-66325450D01*
X87064850Y-66166700D01*
X86650600Y-66163628D01*
X86526118Y-66175888D01*
X86406420Y-66212198D01*
X86296106Y-66271163D01*
X86199415Y-66350515D01*
X86120063Y-66447206D01*
X86061098Y-66557520D01*
X86024788Y-66677218D01*
X86012528Y-66801700D01*
X84839923Y-66801700D01*
X84840572Y-66735400D01*
X84828312Y-66610918D01*
X84792002Y-66491220D01*
X84733037Y-66380906D01*
X84653685Y-66284215D01*
X84556994Y-66204863D01*
X84446680Y-66145898D01*
X84326982Y-66109588D01*
X84202500Y-66097328D01*
X83788250Y-66100400D01*
X83629500Y-66259150D01*
X83375500Y-66259150D01*
X83216750Y-66100400D01*
X82802500Y-66097328D01*
X82678018Y-66109588D01*
X82558320Y-66145898D01*
X82448006Y-66204863D01*
X82402500Y-66242209D01*
X82356994Y-66204863D01*
X82246680Y-66145898D01*
X82126982Y-66109588D01*
X82002500Y-66097328D01*
X80602500Y-66097328D01*
X80478018Y-66109588D01*
X80358320Y-66145898D01*
X80248006Y-66204863D01*
X80151315Y-66284215D01*
X80071963Y-66380906D01*
X80012998Y-66491220D01*
X79976688Y-66610918D01*
X79970534Y-66673405D01*
X79923108Y-66698755D01*
X79807078Y-66793978D01*
X79783216Y-66823054D01*
X79732470Y-66873800D01*
X79051130Y-66873800D01*
X78860684Y-66683354D01*
X78836822Y-66654278D01*
X78749160Y-66582336D01*
X78684858Y-66462036D01*
X78575192Y-66328408D01*
X78441564Y-66218742D01*
X78289109Y-66137253D01*
X78123685Y-66087072D01*
X77951650Y-66070128D01*
X77039150Y-66070128D01*
X76867115Y-66087072D01*
X76701691Y-66137253D01*
X76549236Y-66218742D01*
X76415608Y-66328408D01*
X76305942Y-66462036D01*
X76224453Y-66614491D01*
X76174272Y-66779915D01*
X76157328Y-66951950D01*
X76157328Y-67439450D01*
X76174272Y-67611485D01*
X76224453Y-67776909D01*
X76305942Y-67929364D01*
X76415608Y-68062992D01*
X76421964Y-68068208D01*
X76344215Y-68132015D01*
X76264863Y-68228706D01*
X76205898Y-68339020D01*
X76169588Y-68458718D01*
X76157328Y-68583200D01*
X76160400Y-68784950D01*
X76319150Y-68943700D01*
X77368400Y-68943700D01*
X77368400Y-68923700D01*
X77622400Y-68923700D01*
X77622400Y-68943700D01*
X78671650Y-68943700D01*
X78830400Y-68784950D01*
X78833472Y-68583200D01*
X78821212Y-68458718D01*
X78802733Y-68397800D01*
X79286100Y-68397800D01*
X79286101Y-71441599D01*
X79282414Y-71479032D01*
X79297127Y-71628410D01*
X79340699Y-71772047D01*
X79411455Y-71904424D01*
X79448972Y-71950138D01*
X79506679Y-72020454D01*
X79535749Y-72044311D01*
X81470600Y-73979162D01*
X81470601Y-76073455D01*
X81439497Y-76111355D01*
X81398953Y-75977697D01*
X81375587Y-75933983D01*
X81322299Y-75834288D01*
X81244992Y-75740089D01*
X81244989Y-75740086D01*
X81219141Y-75708590D01*
X81187645Y-75682742D01*
X80048157Y-74543255D01*
X80022300Y-74511749D01*
X79896601Y-74408591D01*
X79753193Y-74331937D01*
X79597585Y-74284734D01*
X79476312Y-74272790D01*
X79476309Y-74272790D01*
X79435759Y-74268796D01*
X79395209Y-74272790D01*
X77761360Y-74272790D01*
X77720809Y-74268796D01*
X77680259Y-74272790D01*
X77680257Y-74272790D01*
X77558984Y-74284734D01*
X77403376Y-74331937D01*
X77259968Y-74408591D01*
X77134269Y-74511749D01*
X77129982Y-74516972D01*
X77124759Y-74521259D01*
X77072349Y-74585122D01*
X77021601Y-74646958D01*
X76982664Y-74719804D01*
X76834218Y-74868250D01*
X76520340Y-74868250D01*
X76486042Y-74826458D01*
X76479686Y-74821242D01*
X76557435Y-74757435D01*
X76636787Y-74660744D01*
X76695752Y-74550430D01*
X76732062Y-74430732D01*
X76744322Y-74306250D01*
X76741250Y-74104500D01*
X76582500Y-73945750D01*
X75533250Y-73945750D01*
X75533250Y-73965750D01*
X75279250Y-73965750D01*
X75279250Y-73945750D01*
X75259250Y-73945750D01*
X75259250Y-73691750D01*
X75279250Y-73691750D01*
X75279250Y-72855000D01*
X75533250Y-72855000D01*
X75533250Y-73691750D01*
X76582500Y-73691750D01*
X76741250Y-73533000D01*
X76744322Y-73331250D01*
X76732062Y-73206768D01*
X76695752Y-73087070D01*
X76636787Y-72976756D01*
X76557435Y-72880065D01*
X76460744Y-72800713D01*
X76350430Y-72741748D01*
X76230732Y-72705438D01*
X76106250Y-72693178D01*
X75692000Y-72696250D01*
X75533250Y-72855000D01*
X75279250Y-72855000D01*
X75120500Y-72696250D01*
X74706250Y-72693178D01*
X74581768Y-72705438D01*
X74462070Y-72741748D01*
X74390250Y-72780137D01*
X74315356Y-72730095D01*
X74126998Y-72652074D01*
X73927039Y-72612300D01*
X73723161Y-72612300D01*
X73523202Y-72652074D01*
X73334844Y-72730095D01*
X73172005Y-72838901D01*
X73024959Y-72760303D01*
X72859535Y-72710122D01*
X72687500Y-72693178D01*
X71775000Y-72693178D01*
X71602965Y-72710122D01*
X71437541Y-72760303D01*
X71285086Y-72841792D01*
X71151458Y-72951458D01*
X71041792Y-73085086D01*
X70960303Y-73237541D01*
X70910122Y-73402965D01*
X70893178Y-73575000D01*
X70893178Y-74062500D01*
X70910122Y-74234535D01*
X70960303Y-74399959D01*
X71041792Y-74552414D01*
X71151458Y-74686042D01*
X71237006Y-74756250D01*
X71151458Y-74826458D01*
X71041792Y-74960086D01*
X71008885Y-75021651D01*
X70962556Y-74990695D01*
X70774198Y-74912674D01*
X70574239Y-74872900D01*
X70370361Y-74872900D01*
X70170402Y-74912674D01*
X69982044Y-74990695D01*
X69812526Y-75103963D01*
X69668363Y-75248126D01*
X69555095Y-75417644D01*
X69477074Y-75606002D01*
X69437300Y-75805961D01*
X69437300Y-76009839D01*
X69477074Y-76209798D01*
X69555095Y-76398156D01*
X69668363Y-76567674D01*
X69812526Y-76711837D01*
X69982044Y-76825105D01*
X70170402Y-76903126D01*
X70370361Y-76942900D01*
X70574239Y-76942900D01*
X70774198Y-76903126D01*
X70962556Y-76825105D01*
X71132074Y-76711837D01*
X71174011Y-76669900D01*
X71284101Y-76669900D01*
X71285086Y-76670708D01*
X71437541Y-76752197D01*
X71602965Y-76802378D01*
X71679348Y-76809901D01*
X71689829Y-76822672D01*
X71718899Y-76846529D01*
X72549921Y-77677551D01*
X72573778Y-77706622D01*
X72689808Y-77801845D01*
X72822185Y-77872602D01*
X72965822Y-77916174D01*
X73077774Y-77927200D01*
X73077776Y-77927200D01*
X73115199Y-77930886D01*
X73152622Y-77927200D01*
X76886477Y-77927200D01*
X76923900Y-77930886D01*
X76961323Y-77927200D01*
X76961326Y-77927200D01*
X77073278Y-77916174D01*
X77216915Y-77872602D01*
X77349292Y-77801845D01*
X77465322Y-77706622D01*
X77489184Y-77677546D01*
X78119528Y-77047202D01*
X78119528Y-77981000D01*
X78123562Y-78021962D01*
X78082600Y-78017928D01*
X76582600Y-78017928D01*
X76458118Y-78030188D01*
X76338420Y-78066498D01*
X76228106Y-78125463D01*
X76131415Y-78204815D01*
X76052063Y-78301506D01*
X75993098Y-78411820D01*
X75956788Y-78531518D01*
X75944528Y-78656000D01*
X75944528Y-79206000D01*
X75956788Y-79330482D01*
X75956945Y-79331000D01*
X75956788Y-79331518D01*
X75944528Y-79456000D01*
X75944528Y-80006000D01*
X75956788Y-80130482D01*
X75956945Y-80131000D01*
X75956788Y-80131518D01*
X75944528Y-80256000D01*
X75944528Y-80806000D01*
X75956788Y-80930482D01*
X75956945Y-80931000D01*
X75956788Y-80931518D01*
X75944528Y-81056000D01*
X75944528Y-81305500D01*
X75669911Y-81305500D01*
X75551674Y-81187263D01*
X75382156Y-81073995D01*
X75193798Y-80995974D01*
X74993839Y-80956200D01*
X74789961Y-80956200D01*
X74590002Y-80995974D01*
X74401644Y-81073995D01*
X74232126Y-81187263D01*
X74087963Y-81331426D01*
X74076270Y-81348927D01*
X74053447Y-81273691D01*
X73971958Y-81121236D01*
X73862292Y-80987608D01*
X73728664Y-80877942D01*
X73576209Y-80796453D01*
X73410785Y-80746272D01*
X73238750Y-80729328D01*
X72751250Y-80729328D01*
X72579215Y-80746272D01*
X72413791Y-80796453D01*
X72261336Y-80877942D01*
X72127708Y-80987608D01*
X72122492Y-80993964D01*
X72058685Y-80916215D01*
X71961994Y-80836863D01*
X71851680Y-80777898D01*
X71731982Y-80741588D01*
X71607500Y-80729328D01*
X71405750Y-80732400D01*
X71247000Y-80891150D01*
X71247000Y-81940400D01*
X71267000Y-81940400D01*
X71267000Y-82194400D01*
X71247000Y-82194400D01*
X71247000Y-83243650D01*
X71405750Y-83402400D01*
X71607500Y-83405472D01*
X71731982Y-83393212D01*
X71851680Y-83356902D01*
X71961994Y-83297937D01*
X72058685Y-83218585D01*
X72122492Y-83140836D01*
X72127708Y-83147192D01*
X72261336Y-83256858D01*
X72413791Y-83338347D01*
X72579215Y-83388528D01*
X72751250Y-83405472D01*
X73238750Y-83405472D01*
X73410785Y-83388528D01*
X73576209Y-83338347D01*
X73706288Y-83268818D01*
X73880821Y-83443351D01*
X73904678Y-83472422D01*
X73933748Y-83496279D01*
X74020707Y-83567645D01*
X74068228Y-83593045D01*
X74153085Y-83638402D01*
X74296722Y-83681974D01*
X74408674Y-83693000D01*
X74408677Y-83693000D01*
X74446100Y-83696686D01*
X74483523Y-83693000D01*
X76175056Y-83693000D01*
X76221359Y-83731000D01*
X76175056Y-83769000D01*
X51725031Y-83769000D01*
X51600100Y-83644070D01*
X51600100Y-82767400D01*
X69994428Y-82767400D01*
X70006688Y-82891882D01*
X70042998Y-83011580D01*
X70101963Y-83121894D01*
X70181315Y-83218585D01*
X70278006Y-83297937D01*
X70388320Y-83356902D01*
X70508018Y-83393212D01*
X70632500Y-83405472D01*
X70834250Y-83402400D01*
X70993000Y-83243650D01*
X70993000Y-82194400D01*
X70156250Y-82194400D01*
X69997500Y-82353150D01*
X69994428Y-82767400D01*
X51600100Y-82767400D01*
X51600100Y-82587423D01*
X51603786Y-82550000D01*
X51599414Y-82505607D01*
X51589074Y-82400622D01*
X51545502Y-82256985D01*
X51474745Y-82124608D01*
X51379522Y-82008578D01*
X51350443Y-81984714D01*
X51204321Y-81838591D01*
X51146189Y-81767758D01*
X51122332Y-81738688D01*
X51093263Y-81714832D01*
X50745831Y-81367400D01*
X69994428Y-81367400D01*
X69997500Y-81781650D01*
X70156250Y-81940400D01*
X70993000Y-81940400D01*
X70993000Y-80891150D01*
X70834250Y-80732400D01*
X70632500Y-80729328D01*
X70508018Y-80741588D01*
X70388320Y-80777898D01*
X70278006Y-80836863D01*
X70181315Y-80916215D01*
X70101963Y-81012906D01*
X70042998Y-81123220D01*
X70006688Y-81242918D01*
X69994428Y-81367400D01*
X50745831Y-81367400D01*
X49009300Y-79630870D01*
X49009300Y-79601730D01*
X49991546Y-78619484D01*
X50020622Y-78595622D01*
X50089629Y-78511537D01*
X50115845Y-78479593D01*
X50186601Y-78347216D01*
X50186602Y-78347215D01*
X50230174Y-78203578D01*
X50241200Y-78091626D01*
X50241200Y-78091623D01*
X50241470Y-78088884D01*
X50272909Y-78079347D01*
X50425364Y-77997858D01*
X50558992Y-77888192D01*
X50668658Y-77754564D01*
X50750147Y-77602109D01*
X50800328Y-77436685D01*
X50817272Y-77264650D01*
X50817272Y-76777150D01*
X50800328Y-76605115D01*
X50750147Y-76439691D01*
X50668658Y-76287236D01*
X50558992Y-76153608D01*
X50473444Y-76083400D01*
X50558992Y-76013192D01*
X50668658Y-75879564D01*
X50750147Y-75727109D01*
X50800328Y-75561685D01*
X50817272Y-75389650D01*
X50817272Y-74902150D01*
X50800328Y-74730115D01*
X50750147Y-74564691D01*
X50668658Y-74412236D01*
X50558992Y-74278608D01*
X50425364Y-74168942D01*
X50272909Y-74087453D01*
X50107485Y-74037272D01*
X49935450Y-74020328D01*
X49393075Y-74020328D01*
X48704775Y-73332029D01*
X48704775Y-72668580D01*
X48708331Y-72632475D01*
X48694140Y-72488390D01*
X48680427Y-72443185D01*
X48652112Y-72349842D01*
X48583862Y-72222155D01*
X48528761Y-72155015D01*
X48515028Y-72138281D01*
X48515025Y-72138278D01*
X48492012Y-72110237D01*
X48463972Y-72087225D01*
X48185000Y-71808254D01*
X48185000Y-71350572D01*
X48675000Y-71350572D01*
X48799482Y-71338312D01*
X48824266Y-71330794D01*
X48843639Y-71336904D01*
X48943250Y-71347500D01*
X49102000Y-71188750D01*
X49102000Y-71183533D01*
X49126185Y-71163685D01*
X49205537Y-71066994D01*
X49264502Y-70956680D01*
X49300812Y-70836982D01*
X49313072Y-70712500D01*
X49313072Y-68462500D01*
X49300812Y-68338018D01*
X49264502Y-68218320D01*
X49205537Y-68108006D01*
X49126185Y-68011315D01*
X49102000Y-67991467D01*
X49102000Y-67986250D01*
X49348000Y-67986250D01*
X49348000Y-69460500D01*
X49372000Y-69460500D01*
X49372000Y-69714500D01*
X49348000Y-69714500D01*
X49348000Y-71188750D01*
X49506750Y-71347500D01*
X49606361Y-71336904D01*
X49725652Y-71299279D01*
X49835311Y-71239104D01*
X49931123Y-71158693D01*
X50009406Y-71061134D01*
X50065123Y-70954078D01*
X50219866Y-71142634D01*
X50445986Y-71328206D01*
X50703966Y-71466099D01*
X50983889Y-71551013D01*
X51275000Y-71579685D01*
X51566110Y-71551013D01*
X51846033Y-71466099D01*
X52104013Y-71328206D01*
X52330134Y-71142634D01*
X52515706Y-70916514D01*
X52653599Y-70658534D01*
X52738513Y-70378611D01*
X52760000Y-70160450D01*
X52760000Y-69558200D01*
X76157328Y-69558200D01*
X76169588Y-69682682D01*
X76205898Y-69802380D01*
X76264863Y-69912694D01*
X76344215Y-70009385D01*
X76440906Y-70088737D01*
X76551220Y-70147702D01*
X76670918Y-70184012D01*
X76795400Y-70196272D01*
X77209650Y-70193200D01*
X77368400Y-70034450D01*
X77368400Y-69197700D01*
X77622400Y-69197700D01*
X77622400Y-70034450D01*
X77781150Y-70193200D01*
X78195400Y-70196272D01*
X78319882Y-70184012D01*
X78439580Y-70147702D01*
X78549894Y-70088737D01*
X78646585Y-70009385D01*
X78725937Y-69912694D01*
X78784902Y-69802380D01*
X78821212Y-69682682D01*
X78833472Y-69558200D01*
X78830400Y-69356450D01*
X78671650Y-69197700D01*
X77622400Y-69197700D01*
X77368400Y-69197700D01*
X76319150Y-69197700D01*
X76160400Y-69356450D01*
X76157328Y-69558200D01*
X52760000Y-69558200D01*
X52760000Y-69014550D01*
X52738513Y-68796389D01*
X52653599Y-68516466D01*
X52515706Y-68258486D01*
X52330134Y-68032366D01*
X52104014Y-67846794D01*
X51846034Y-67708901D01*
X51566111Y-67623987D01*
X51275000Y-67595315D01*
X50983890Y-67623987D01*
X50703967Y-67708901D01*
X50445987Y-67846794D01*
X50219867Y-68032366D01*
X50065123Y-68220921D01*
X50009406Y-68113866D01*
X49931123Y-68016307D01*
X49835311Y-67935896D01*
X49725652Y-67875721D01*
X49606361Y-67838096D01*
X49506750Y-67827500D01*
X49348000Y-67986250D01*
X49102000Y-67986250D01*
X48943250Y-67827500D01*
X48843639Y-67838096D01*
X48824266Y-67844206D01*
X48799482Y-67836688D01*
X48675000Y-67824428D01*
X48175000Y-67824428D01*
X48050518Y-67836688D01*
X48025000Y-67844429D01*
X47999482Y-67836688D01*
X47875000Y-67824428D01*
X47375000Y-67824428D01*
X47250518Y-67836688D01*
X47225000Y-67844429D01*
X47199482Y-67836688D01*
X47075000Y-67824428D01*
X46575000Y-67824428D01*
X46450518Y-67836688D01*
X46425000Y-67844429D01*
X46399482Y-67836688D01*
X46275000Y-67824428D01*
X45775000Y-67824428D01*
X45650518Y-67836688D01*
X45530820Y-67872998D01*
X45420506Y-67931963D01*
X45323815Y-68011315D01*
X45244463Y-68108006D01*
X45185498Y-68218320D01*
X45184754Y-68220771D01*
X45030134Y-68032366D01*
X44804014Y-67846794D01*
X44546034Y-67708901D01*
X44266111Y-67623987D01*
X43975000Y-67595315D01*
X43683890Y-67623987D01*
X43403967Y-67708901D01*
X43145987Y-67846794D01*
X42919867Y-68032366D01*
X42734294Y-68258486D01*
X42596401Y-68516466D01*
X42511487Y-68796389D01*
X42490000Y-69014550D01*
X42490000Y-70160449D01*
X42511487Y-70378610D01*
X42596401Y-70658533D01*
X42734294Y-70916513D01*
X42919866Y-71142634D01*
X43145986Y-71328206D01*
X43403966Y-71466099D01*
X43683889Y-71551013D01*
X43761419Y-71558649D01*
X42307461Y-73012607D01*
X42275960Y-73038459D01*
X42250109Y-73069959D01*
X42172801Y-73164158D01*
X42096147Y-73307567D01*
X42048945Y-73463174D01*
X42033006Y-73625000D01*
X42037001Y-73665560D01*
X42037000Y-80518507D01*
X41897650Y-80560778D01*
X41744114Y-80642845D01*
X41609538Y-80753288D01*
X41499095Y-80887864D01*
X41417028Y-81041400D01*
X41366492Y-81207996D01*
X41349428Y-81381250D01*
X41349428Y-82131250D01*
X41366492Y-82304504D01*
X41417028Y-82471100D01*
X41499095Y-82624636D01*
X41609538Y-82759212D01*
X41744114Y-82869655D01*
X41897650Y-82951722D01*
X42064246Y-83002258D01*
X42237500Y-83019322D01*
X43487500Y-83019322D01*
X43660754Y-83002258D01*
X43827350Y-82951722D01*
X43980886Y-82869655D01*
X44115462Y-82759212D01*
X44225905Y-82624636D01*
X44307972Y-82471100D01*
X44358508Y-82304504D01*
X44375572Y-82131250D01*
X44375572Y-81381250D01*
X44358508Y-81207996D01*
X44307972Y-81041400D01*
X44225905Y-80887864D01*
X44115462Y-80753288D01*
X43980886Y-80642845D01*
X43827350Y-80560778D01*
X43688000Y-80518507D01*
X43688000Y-73966932D01*
X46265000Y-71389932D01*
X46265001Y-72262985D01*
X46261444Y-72299100D01*
X46275635Y-72443185D01*
X46317664Y-72581733D01*
X46385914Y-72709420D01*
X46477763Y-72821338D01*
X46505808Y-72844354D01*
X46784775Y-73123322D01*
X46784775Y-73332028D01*
X46123626Y-73993178D01*
X45581250Y-73993178D01*
X45409215Y-74010122D01*
X45243791Y-74060303D01*
X45091336Y-74141792D01*
X44957708Y-74251458D01*
X44848042Y-74385086D01*
X44766553Y-74537541D01*
X44716372Y-74702965D01*
X44699428Y-74875000D01*
X44699428Y-75362500D01*
X44716372Y-75534535D01*
X44766553Y-75699959D01*
X44848042Y-75852414D01*
X44957708Y-75986042D01*
X45043256Y-76056250D01*
X44957708Y-76126458D01*
X44848042Y-76260086D01*
X44766553Y-76412541D01*
X44716372Y-76577965D01*
X44699428Y-76750000D01*
X44699428Y-77237500D01*
X44716372Y-77409535D01*
X44766553Y-77574959D01*
X44848042Y-77727414D01*
X44957708Y-77861042D01*
X45091336Y-77970708D01*
X45243791Y-78052197D01*
X45409215Y-78102378D01*
X45485598Y-78109901D01*
X45496079Y-78122672D01*
X45525149Y-78146529D01*
X46888400Y-79509781D01*
X46888401Y-80442467D01*
X46884714Y-80479900D01*
X46899427Y-80629278D01*
X46942999Y-80772915D01*
X47013755Y-80905292D01*
X47063694Y-80966142D01*
X47108979Y-81021322D01*
X47138049Y-81045179D01*
X49364900Y-83272031D01*
X49364901Y-84214367D01*
X49361214Y-84251800D01*
X49375927Y-84401178D01*
X49382523Y-84422923D01*
X49346610Y-84426460D01*
X44375572Y-84426460D01*
X44375572Y-84181250D01*
X44358508Y-84007996D01*
X44307972Y-83841400D01*
X44225905Y-83687864D01*
X44115462Y-83553288D01*
X43980886Y-83442845D01*
X43827350Y-83360778D01*
X43660754Y-83310242D01*
X43487500Y-83293178D01*
X42237500Y-83293178D01*
X42064246Y-83310242D01*
X41897650Y-83360778D01*
X41744114Y-83442845D01*
X41609538Y-83553288D01*
X41499095Y-83687864D01*
X41417028Y-83841400D01*
X41366492Y-84007996D01*
X41349428Y-84181250D01*
X41349428Y-84931250D01*
X41366492Y-85104504D01*
X41417028Y-85271100D01*
X41499095Y-85424636D01*
X41609538Y-85559212D01*
X41744114Y-85669655D01*
X41897650Y-85751722D01*
X42064246Y-85802258D01*
X42237500Y-85819322D01*
X42955929Y-85819322D01*
X42971669Y-85838501D01*
X43003165Y-85864349D01*
X43003168Y-85864352D01*
X43097367Y-85941659D01*
X43240056Y-86017928D01*
X43240776Y-86018313D01*
X43396384Y-86065516D01*
X43517657Y-86077460D01*
X43517660Y-86077460D01*
X43558210Y-86081454D01*
X43598760Y-86077460D01*
X49045228Y-86077460D01*
X49628806Y-86661039D01*
X49654659Y-86692541D01*
X49701083Y-86730640D01*
X49780357Y-86795699D01*
X49827129Y-86820699D01*
X49923766Y-86872353D01*
X50079374Y-86919556D01*
X50200647Y-86931500D01*
X50200649Y-86931500D01*
X50241200Y-86935494D01*
X50281750Y-86931500D01*
X69076268Y-86931500D01*
X74901811Y-92757045D01*
X74927659Y-92788541D01*
X74959155Y-92814389D01*
X74959158Y-92814392D01*
X75053357Y-92891699D01*
X75196766Y-92968353D01*
X75352374Y-93015556D01*
X75473647Y-93027500D01*
X75473649Y-93027500D01*
X75514200Y-93031494D01*
X75554750Y-93027500D01*
X77465742Y-93027500D01*
X77570208Y-93154792D01*
X77703836Y-93264458D01*
X77856291Y-93345947D01*
X78021715Y-93396128D01*
X78193750Y-93413072D01*
X78681250Y-93413072D01*
X78853285Y-93396128D01*
X79018709Y-93345947D01*
X79171164Y-93264458D01*
X79304792Y-93154792D01*
X79310008Y-93148436D01*
X79373815Y-93226185D01*
X79470506Y-93305537D01*
X79580820Y-93364502D01*
X79700518Y-93400812D01*
X79825000Y-93413072D01*
X80026750Y-93410000D01*
X80185500Y-93251250D01*
X80185500Y-92202000D01*
X80439500Y-92202000D01*
X80439500Y-93251250D01*
X80598250Y-93410000D01*
X80800000Y-93413072D01*
X80924482Y-93400812D01*
X81044180Y-93364502D01*
X81154494Y-93305537D01*
X81251185Y-93226185D01*
X81330537Y-93129494D01*
X81389502Y-93019180D01*
X81425812Y-92899482D01*
X81438072Y-92775000D01*
X85105678Y-92775000D01*
X85117938Y-92899482D01*
X85154248Y-93019180D01*
X85213213Y-93129494D01*
X85292565Y-93226185D01*
X85389256Y-93305537D01*
X85499570Y-93364502D01*
X85619268Y-93400812D01*
X85743750Y-93413072D01*
X85945500Y-93410000D01*
X86104250Y-93251250D01*
X86104250Y-92202000D01*
X85267500Y-92202000D01*
X85108750Y-92360750D01*
X85105678Y-92775000D01*
X81438072Y-92775000D01*
X81435000Y-92360750D01*
X81276250Y-92202000D01*
X80439500Y-92202000D01*
X80185500Y-92202000D01*
X80165500Y-92202000D01*
X80165500Y-91948000D01*
X80185500Y-91948000D01*
X80185500Y-90898750D01*
X80439500Y-90898750D01*
X80439500Y-91948000D01*
X81276250Y-91948000D01*
X81435000Y-91789250D01*
X81438072Y-91375000D01*
X81425812Y-91250518D01*
X81389502Y-91130820D01*
X81330537Y-91020506D01*
X81251185Y-90923815D01*
X81154494Y-90844463D01*
X81044180Y-90785498D01*
X80924482Y-90749188D01*
X80800000Y-90736928D01*
X80598250Y-90740000D01*
X80439500Y-90898750D01*
X80185500Y-90898750D01*
X80026750Y-90740000D01*
X80026227Y-90739992D01*
X80037326Y-90713198D01*
X80077100Y-90513239D01*
X80077100Y-90309361D01*
X80037326Y-90109402D01*
X79959602Y-89921761D01*
X79959602Y-89875834D01*
X80003106Y-89911537D01*
X80026267Y-89923917D01*
X80118350Y-90016000D01*
X80231937Y-90006454D01*
X80233118Y-90006812D01*
X80357600Y-90019072D01*
X80907600Y-90019072D01*
X81032082Y-90006812D01*
X81032600Y-90006655D01*
X81033118Y-90006812D01*
X81157600Y-90019072D01*
X81707600Y-90019072D01*
X81832082Y-90006812D01*
X81832600Y-90006655D01*
X81833118Y-90006812D01*
X81957600Y-90019072D01*
X82507600Y-90019072D01*
X82632082Y-90006812D01*
X82632600Y-90006655D01*
X82633118Y-90006812D01*
X82757600Y-90019072D01*
X83307600Y-90019072D01*
X83432082Y-90006812D01*
X83432600Y-90006655D01*
X83433118Y-90006812D01*
X83557600Y-90019072D01*
X84107600Y-90019072D01*
X84232082Y-90006812D01*
X84232600Y-90006655D01*
X84233118Y-90006812D01*
X84357600Y-90019072D01*
X84907600Y-90019072D01*
X85032082Y-90006812D01*
X85032600Y-90006655D01*
X85033118Y-90006812D01*
X85157600Y-90019072D01*
X85707600Y-90019072D01*
X85832082Y-90006812D01*
X85833263Y-90006454D01*
X85946850Y-90016000D01*
X86038933Y-89923917D01*
X86062094Y-89911537D01*
X86105598Y-89875834D01*
X86105598Y-90016000D01*
X86207101Y-90016000D01*
X86207100Y-90740000D01*
X86104248Y-90740000D01*
X86104248Y-90898748D01*
X85945500Y-90740000D01*
X85743750Y-90736928D01*
X85619268Y-90749188D01*
X85499570Y-90785498D01*
X85389256Y-90844463D01*
X85292565Y-90923815D01*
X85213213Y-91020506D01*
X85154248Y-91130820D01*
X85117938Y-91250518D01*
X85105678Y-91375000D01*
X85108750Y-91789250D01*
X85267500Y-91948000D01*
X86104250Y-91948000D01*
X86104250Y-91928000D01*
X86358250Y-91928000D01*
X86358250Y-91948000D01*
X86378250Y-91948000D01*
X86378250Y-92202000D01*
X86358250Y-92202000D01*
X86358250Y-93251250D01*
X86517000Y-93410000D01*
X86718750Y-93413072D01*
X86843232Y-93400812D01*
X86962930Y-93364502D01*
X87073244Y-93305537D01*
X87169935Y-93226185D01*
X87233742Y-93148436D01*
X87238958Y-93154792D01*
X87372586Y-93264458D01*
X87525041Y-93345947D01*
X87690465Y-93396128D01*
X87862500Y-93413072D01*
X88350000Y-93413072D01*
X88522035Y-93396128D01*
X88687459Y-93345947D01*
X88839914Y-93264458D01*
X88973542Y-93154792D01*
X89083208Y-93021164D01*
X89120551Y-92951300D01*
X89555197Y-92951300D01*
X89692444Y-93043005D01*
X89880802Y-93121026D01*
X90080761Y-93160800D01*
X90284639Y-93160800D01*
X90484598Y-93121026D01*
X90672956Y-93043005D01*
X90842474Y-92929737D01*
X90986637Y-92785574D01*
X91099905Y-92616056D01*
X91177926Y-92427698D01*
X91217700Y-92227739D01*
X91217700Y-92023861D01*
X91177926Y-91823902D01*
X91099905Y-91635544D01*
X90986637Y-91466026D01*
X90842474Y-91321863D01*
X90672956Y-91208595D01*
X90484598Y-91130574D01*
X90284639Y-91090800D01*
X90080761Y-91090800D01*
X89880802Y-91130574D01*
X89692444Y-91208595D01*
X89555197Y-91300300D01*
X89170463Y-91300300D01*
X89164697Y-91281291D01*
X89083208Y-91128836D01*
X88973542Y-90995208D01*
X88839914Y-90885542D01*
X88687459Y-90804053D01*
X88522035Y-90753872D01*
X88350000Y-90736928D01*
X87862500Y-90736928D01*
X87858100Y-90737361D01*
X87858100Y-89698146D01*
X87897102Y-89625180D01*
X87933412Y-89505482D01*
X87945672Y-89381000D01*
X87945672Y-88087500D01*
X90736928Y-88087500D01*
X90749188Y-88211982D01*
X90785498Y-88331680D01*
X90844463Y-88441994D01*
X90923815Y-88538685D01*
X91020506Y-88618037D01*
X91130820Y-88677002D01*
X91250518Y-88713312D01*
X91375000Y-88725572D01*
X91789250Y-88722500D01*
X91948000Y-88563750D01*
X91948000Y-87727000D01*
X92202000Y-87727000D01*
X92202000Y-88563750D01*
X92360750Y-88722500D01*
X92775000Y-88725572D01*
X92899482Y-88713312D01*
X93019180Y-88677002D01*
X93129494Y-88618037D01*
X93226185Y-88538685D01*
X93305537Y-88441994D01*
X93364502Y-88331680D01*
X93400812Y-88211982D01*
X93413072Y-88087500D01*
X93410000Y-87885750D01*
X93251250Y-87727000D01*
X92202000Y-87727000D01*
X91948000Y-87727000D01*
X90898750Y-87727000D01*
X90740000Y-87885750D01*
X90736928Y-88087500D01*
X87945672Y-88087500D01*
X87945672Y-87881000D01*
X87941638Y-87840038D01*
X87982600Y-87844072D01*
X89482600Y-87844072D01*
X89607082Y-87831812D01*
X89726780Y-87795502D01*
X89837094Y-87736537D01*
X89890144Y-87693000D01*
X90031577Y-87693000D01*
X90069000Y-87696686D01*
X90106423Y-87693000D01*
X90106426Y-87693000D01*
X90218378Y-87681974D01*
X90362015Y-87638402D01*
X90494392Y-87567645D01*
X90610422Y-87472422D01*
X90634284Y-87443346D01*
X90751690Y-87325940D01*
X90898750Y-87473000D01*
X91948000Y-87473000D01*
X91948000Y-87453000D01*
X92202000Y-87453000D01*
X92202000Y-87473000D01*
X93251250Y-87473000D01*
X93410000Y-87314250D01*
X93413072Y-87112500D01*
X93400812Y-86988018D01*
X93364502Y-86868320D01*
X93305537Y-86758006D01*
X93226185Y-86661315D01*
X93148436Y-86597508D01*
X93154792Y-86592292D01*
X93252627Y-86473080D01*
X102783199Y-96003652D01*
X102807056Y-96032722D01*
X102836126Y-96056579D01*
X102923085Y-96127945D01*
X102993842Y-96165765D01*
X103055463Y-96198702D01*
X103199100Y-96242274D01*
X103311052Y-96253300D01*
X103311055Y-96253300D01*
X103348478Y-96256986D01*
X103385901Y-96253300D01*
X127052686Y-96253300D01*
X127063310Y-103277869D01*
X37617709Y-104316314D01*
X37636861Y-96325000D01*
X43855678Y-96325000D01*
X43867938Y-96449482D01*
X43904248Y-96569180D01*
X43963213Y-96679494D01*
X44042565Y-96776185D01*
X44139256Y-96855537D01*
X44249570Y-96914502D01*
X44369268Y-96950812D01*
X44493750Y-96963072D01*
X45108000Y-96960000D01*
X45266750Y-96801250D01*
X45266750Y-95902000D01*
X45520750Y-95902000D01*
X45520750Y-96801250D01*
X45679500Y-96960000D01*
X46293750Y-96963072D01*
X46418232Y-96950812D01*
X46537930Y-96914502D01*
X46648244Y-96855537D01*
X46744935Y-96776185D01*
X46824287Y-96679494D01*
X46883252Y-96569180D01*
X46919562Y-96449482D01*
X46931822Y-96325000D01*
X46928750Y-96060750D01*
X46770000Y-95902000D01*
X45520750Y-95902000D01*
X45266750Y-95902000D01*
X44017500Y-95902000D01*
X43858750Y-96060750D01*
X43855678Y-96325000D01*
X37636861Y-96325000D01*
X37639497Y-95225000D01*
X43855678Y-95225000D01*
X43858750Y-95489250D01*
X44017500Y-95648000D01*
X45266750Y-95648000D01*
X45266750Y-94748750D01*
X45520750Y-94748750D01*
X45520750Y-95648000D01*
X46770000Y-95648000D01*
X46928750Y-95489250D01*
X46931822Y-95225000D01*
X50055678Y-95225000D01*
X50055678Y-96325000D01*
X50067938Y-96449482D01*
X50104248Y-96569180D01*
X50163213Y-96679494D01*
X50242565Y-96776185D01*
X50339256Y-96855537D01*
X50449570Y-96914502D01*
X50569268Y-96950812D01*
X50693750Y-96963072D01*
X52493750Y-96963072D01*
X52618232Y-96950812D01*
X52737930Y-96914502D01*
X52848244Y-96855537D01*
X52944935Y-96776185D01*
X53024287Y-96679494D01*
X53083252Y-96569180D01*
X53119562Y-96449482D01*
X53131822Y-96325000D01*
X53131822Y-95225000D01*
X53119562Y-95100518D01*
X53083252Y-94980820D01*
X53024287Y-94870506D01*
X52944935Y-94773815D01*
X52848244Y-94694463D01*
X52737930Y-94635498D01*
X52618232Y-94599188D01*
X52493750Y-94586928D01*
X50693750Y-94586928D01*
X50569268Y-94599188D01*
X50449570Y-94635498D01*
X50339256Y-94694463D01*
X50242565Y-94773815D01*
X50163213Y-94870506D01*
X50104248Y-94980820D01*
X50067938Y-95100518D01*
X50055678Y-95225000D01*
X46931822Y-95225000D01*
X46919562Y-95100518D01*
X46883252Y-94980820D01*
X46824287Y-94870506D01*
X46744935Y-94773815D01*
X46648244Y-94694463D01*
X46537930Y-94635498D01*
X46418232Y-94599188D01*
X46293750Y-94586928D01*
X45679500Y-94590000D01*
X45520750Y-94748750D01*
X45266750Y-94748750D01*
X45108000Y-94590000D01*
X44493750Y-94586928D01*
X44369268Y-94599188D01*
X44249570Y-94635498D01*
X44139256Y-94694463D01*
X44042565Y-94773815D01*
X43963213Y-94870506D01*
X43904248Y-94980820D01*
X43867938Y-95100518D01*
X43855678Y-95225000D01*
X37639497Y-95225000D01*
X37648364Y-91525000D01*
X43855678Y-91525000D01*
X43855678Y-92625000D01*
X43867938Y-92749482D01*
X43904248Y-92869180D01*
X43963213Y-92979494D01*
X44042565Y-93076185D01*
X44139256Y-93155537D01*
X44249570Y-93214502D01*
X44369268Y-93250812D01*
X44493750Y-93263072D01*
X46293750Y-93263072D01*
X46418232Y-93250812D01*
X46537930Y-93214502D01*
X46648244Y-93155537D01*
X46744935Y-93076185D01*
X46824287Y-92979494D01*
X46883252Y-92869180D01*
X46919562Y-92749482D01*
X46931822Y-92625000D01*
X46931822Y-91525000D01*
X50055678Y-91525000D01*
X50055678Y-92625000D01*
X50067938Y-92749482D01*
X50104248Y-92869180D01*
X50163213Y-92979494D01*
X50242565Y-93076185D01*
X50339256Y-93155537D01*
X50449570Y-93214502D01*
X50569268Y-93250812D01*
X50693750Y-93263072D01*
X52493750Y-93263072D01*
X52618232Y-93250812D01*
X52737930Y-93214502D01*
X52848244Y-93155537D01*
X52944935Y-93076185D01*
X53024287Y-92979494D01*
X53083252Y-92869180D01*
X53096866Y-92824300D01*
X54581389Y-92824300D01*
X54623326Y-92866237D01*
X54792844Y-92979505D01*
X54981202Y-93057526D01*
X55181161Y-93097300D01*
X55385039Y-93097300D01*
X55584998Y-93057526D01*
X55773356Y-92979505D01*
X55942874Y-92866237D01*
X56087037Y-92722074D01*
X56200305Y-92552556D01*
X56278326Y-92364198D01*
X56318100Y-92164239D01*
X56318100Y-91960361D01*
X56278326Y-91760402D01*
X56200305Y-91572044D01*
X56087037Y-91402526D01*
X55942874Y-91258363D01*
X55773356Y-91145095D01*
X55584998Y-91067074D01*
X55385039Y-91027300D01*
X55181161Y-91027300D01*
X54981202Y-91067074D01*
X54792844Y-91145095D01*
X54623326Y-91258363D01*
X54581389Y-91300300D01*
X53089161Y-91300300D01*
X53083252Y-91280820D01*
X53024287Y-91170506D01*
X52944935Y-91073815D01*
X52848244Y-90994463D01*
X52737930Y-90935498D01*
X52618232Y-90899188D01*
X52493750Y-90886928D01*
X50693750Y-90886928D01*
X50569268Y-90899188D01*
X50449570Y-90935498D01*
X50339256Y-90994463D01*
X50242565Y-91073815D01*
X50163213Y-91170506D01*
X50104248Y-91280820D01*
X50067938Y-91400518D01*
X50055678Y-91525000D01*
X46931822Y-91525000D01*
X46919562Y-91400518D01*
X46883252Y-91280820D01*
X46824287Y-91170506D01*
X46744935Y-91073815D01*
X46648244Y-90994463D01*
X46537930Y-90935498D01*
X46418232Y-90899188D01*
X46293750Y-90886928D01*
X44493750Y-90886928D01*
X44369268Y-90899188D01*
X44249570Y-90935498D01*
X44139256Y-90994463D01*
X44042565Y-91073815D01*
X43963213Y-91170506D01*
X43904248Y-91280820D01*
X43867938Y-91400518D01*
X43855678Y-91525000D01*
X37648364Y-91525000D01*
X37713099Y-64514550D01*
X42490000Y-64514550D01*
X42490000Y-65660449D01*
X42511487Y-65878610D01*
X42596401Y-66158533D01*
X42734294Y-66416513D01*
X42919866Y-66642634D01*
X43145986Y-66828206D01*
X43403966Y-66966099D01*
X43683889Y-67051013D01*
X43975000Y-67079685D01*
X44266110Y-67051013D01*
X44546033Y-66966099D01*
X44804013Y-66828206D01*
X45030134Y-66642634D01*
X45215706Y-66416514D01*
X45353599Y-66158534D01*
X45438513Y-65878611D01*
X45460000Y-65660450D01*
X45460000Y-64514550D01*
X49790000Y-64514550D01*
X49790000Y-65660449D01*
X49811487Y-65878610D01*
X49896401Y-66158533D01*
X50034294Y-66416513D01*
X50219866Y-66642634D01*
X50445986Y-66828206D01*
X50703966Y-66966099D01*
X50983889Y-67051013D01*
X51275000Y-67079685D01*
X51566110Y-67051013D01*
X51846033Y-66966099D01*
X52104013Y-66828206D01*
X52330134Y-66642634D01*
X52515706Y-66416514D01*
X52653599Y-66158534D01*
X52738513Y-65878611D01*
X52760000Y-65660450D01*
X52760000Y-64514550D01*
X52738513Y-64296389D01*
X52653599Y-64016466D01*
X52515706Y-63758486D01*
X52330134Y-63532366D01*
X52104014Y-63346794D01*
X51846034Y-63208901D01*
X51566111Y-63123987D01*
X51275000Y-63095315D01*
X50983890Y-63123987D01*
X50703967Y-63208901D01*
X50445987Y-63346794D01*
X50219867Y-63532366D01*
X50034294Y-63758486D01*
X49896401Y-64016466D01*
X49811487Y-64296389D01*
X49790000Y-64514550D01*
X45460000Y-64514550D01*
X45438513Y-64296389D01*
X45353599Y-64016466D01*
X45215706Y-63758486D01*
X45030134Y-63532366D01*
X44804014Y-63346794D01*
X44546034Y-63208901D01*
X44266111Y-63123987D01*
X43975000Y-63095315D01*
X43683890Y-63123987D01*
X43403967Y-63208901D01*
X43145987Y-63346794D01*
X42919867Y-63532366D01*
X42734294Y-63758486D01*
X42596401Y-64016466D01*
X42511487Y-64296389D01*
X42490000Y-64514550D01*
X37713099Y-64514550D01*
X37718699Y-62178305D01*
X127000193Y-61545103D01*
X127030175Y-81369000D01*
X127030175Y-81369000D01*
G37*
X127030175Y-81369000D02*
X95350432Y-81369000D01*
X95439874Y-81309237D01*
X95584037Y-81165074D01*
X95697305Y-80995556D01*
X95775326Y-80807198D01*
X95815100Y-80607239D01*
X95815100Y-80403361D01*
X95775326Y-80203402D01*
X95697305Y-80015044D01*
X95584037Y-79845526D01*
X95439874Y-79701363D01*
X95270356Y-79588095D01*
X95081998Y-79510074D01*
X94882039Y-79470300D01*
X94678161Y-79470300D01*
X94478202Y-79510074D01*
X94289844Y-79588095D01*
X94226006Y-79630750D01*
X93189090Y-79630750D01*
X93154792Y-79588958D01*
X93148436Y-79583742D01*
X93226185Y-79519935D01*
X93305537Y-79423244D01*
X93364502Y-79312930D01*
X93400812Y-79193232D01*
X93413072Y-79068750D01*
X93410000Y-78867000D01*
X93251250Y-78708250D01*
X92202000Y-78708250D01*
X92202000Y-78728250D01*
X91948000Y-78728250D01*
X91948000Y-78708250D01*
X90898750Y-78708250D01*
X90740000Y-78867000D01*
X90736928Y-79068750D01*
X90749188Y-79193232D01*
X90785498Y-79312930D01*
X90844463Y-79423244D01*
X90923815Y-79519935D01*
X91001564Y-79583742D01*
X90995208Y-79588958D01*
X90960910Y-79630750D01*
X90930783Y-79630750D01*
X90475998Y-79175965D01*
X90450141Y-79144459D01*
X90324442Y-79041301D01*
X90181034Y-78964647D01*
X90025426Y-78917444D01*
X89904153Y-78905500D01*
X89904150Y-78905500D01*
X89863600Y-78901506D01*
X89823050Y-78905500D01*
X89799746Y-78905500D01*
X89726780Y-78866498D01*
X89607082Y-78830188D01*
X89482600Y-78817928D01*
X87982600Y-78817928D01*
X87858118Y-78830188D01*
X87738420Y-78866498D01*
X87628106Y-78925463D01*
X87531415Y-79004815D01*
X87452063Y-79101506D01*
X87439683Y-79124667D01*
X87347600Y-79216750D01*
X87357146Y-79330337D01*
X87356788Y-79331518D01*
X87344528Y-79456000D01*
X87344528Y-80006000D01*
X87356788Y-80130482D01*
X87356945Y-80131000D01*
X87356788Y-80131518D01*
X87344528Y-80256000D01*
X87344528Y-80806000D01*
X87356788Y-80930482D01*
X87356945Y-80931000D01*
X87356788Y-80931518D01*
X87344528Y-81056000D01*
X87344528Y-81606000D01*
X87356788Y-81730482D01*
X87356945Y-81731000D01*
X87356788Y-81731518D01*
X87344528Y-81856000D01*
X87344528Y-82406000D01*
X87356788Y-82530482D01*
X87356945Y-82531000D01*
X87356788Y-82531518D01*
X87344528Y-82656000D01*
X87344528Y-83206000D01*
X87356788Y-83330482D01*
X87356945Y-83331000D01*
X87356788Y-83331518D01*
X87344528Y-83456000D01*
X87344528Y-84006000D01*
X87356788Y-84130482D01*
X87356945Y-84131000D01*
X87356788Y-84131518D01*
X87344528Y-84256000D01*
X87344528Y-84806000D01*
X87356788Y-84930482D01*
X87356945Y-84931000D01*
X87356788Y-84931518D01*
X87344528Y-85056000D01*
X87344528Y-85606000D01*
X87356788Y-85730482D01*
X87356945Y-85731000D01*
X87356788Y-85731518D01*
X87344528Y-85856000D01*
X87344528Y-86406000D01*
X87356788Y-86530482D01*
X87356945Y-86531000D01*
X87356788Y-86531518D01*
X87344528Y-86656000D01*
X87344528Y-87206000D01*
X87348562Y-87246962D01*
X87307600Y-87242928D01*
X86757600Y-87242928D01*
X86633118Y-87255188D01*
X86631937Y-87255546D01*
X86518350Y-87246000D01*
X86426267Y-87338083D01*
X86403106Y-87350463D01*
X86306415Y-87429815D01*
X86232600Y-87519759D01*
X86158785Y-87429815D01*
X86062094Y-87350463D01*
X86038933Y-87338083D01*
X85946850Y-87246000D01*
X85833263Y-87255546D01*
X85832082Y-87255188D01*
X85707600Y-87242928D01*
X85157600Y-87242928D01*
X85033118Y-87255188D01*
X85032600Y-87255345D01*
X85032082Y-87255188D01*
X84907600Y-87242928D01*
X84357600Y-87242928D01*
X84233118Y-87255188D01*
X84232600Y-87255345D01*
X84232082Y-87255188D01*
X84107600Y-87242928D01*
X83557600Y-87242928D01*
X83433118Y-87255188D01*
X83432600Y-87255345D01*
X83432082Y-87255188D01*
X83307600Y-87242928D01*
X82757600Y-87242928D01*
X82633118Y-87255188D01*
X82632600Y-87255345D01*
X82632082Y-87255188D01*
X82507600Y-87242928D01*
X81957600Y-87242928D01*
X81833118Y-87255188D01*
X81832600Y-87255345D01*
X81832082Y-87255188D01*
X81707600Y-87242928D01*
X81157600Y-87242928D01*
X81033118Y-87255188D01*
X81032600Y-87255345D01*
X81032082Y-87255188D01*
X80907600Y-87242928D01*
X80357600Y-87242928D01*
X80233118Y-87255188D01*
X80231937Y-87255546D01*
X80118350Y-87246000D01*
X80026267Y-87338083D01*
X80003106Y-87350463D01*
X79906415Y-87429815D01*
X79832600Y-87519759D01*
X79758785Y-87429815D01*
X79662094Y-87350463D01*
X79638933Y-87338083D01*
X79546850Y-87246000D01*
X79433263Y-87255546D01*
X79432082Y-87255188D01*
X79307600Y-87242928D01*
X78757600Y-87242928D01*
X78716638Y-87246962D01*
X78720672Y-87206000D01*
X78720672Y-86656000D01*
X78708412Y-86531518D01*
X78708255Y-86531000D01*
X78708412Y-86530482D01*
X78720672Y-86406000D01*
X78720672Y-85856000D01*
X78708412Y-85731518D01*
X78708255Y-85731000D01*
X78708412Y-85730482D01*
X78720672Y-85606000D01*
X78720672Y-85056000D01*
X78708412Y-84931518D01*
X78708255Y-84931000D01*
X78708412Y-84930482D01*
X78720672Y-84806000D01*
X78720672Y-84256000D01*
X78708412Y-84131518D01*
X78708054Y-84130337D01*
X78717600Y-84016750D01*
X78625517Y-83924667D01*
X78613137Y-83901506D01*
X78533785Y-83804815D01*
X78443841Y-83731000D01*
X78533785Y-83657185D01*
X78613137Y-83560494D01*
X78625517Y-83537333D01*
X78717600Y-83445250D01*
X78708054Y-83331663D01*
X78708412Y-83330482D01*
X78720672Y-83206000D01*
X78720672Y-82656000D01*
X78708412Y-82531518D01*
X78708255Y-82531000D01*
X78708412Y-82530482D01*
X78720672Y-82406000D01*
X78720672Y-81856000D01*
X78708412Y-81731518D01*
X78708255Y-81731000D01*
X78708412Y-81730482D01*
X78720672Y-81606000D01*
X78720672Y-81056000D01*
X78708412Y-80931518D01*
X78708255Y-80931000D01*
X78708412Y-80930482D01*
X78720672Y-80806000D01*
X78720672Y-80256000D01*
X78708412Y-80131518D01*
X78708255Y-80131000D01*
X78708412Y-80130482D01*
X78720672Y-80006000D01*
X78720672Y-79456000D01*
X78708412Y-79331518D01*
X78708255Y-79331000D01*
X78708412Y-79330482D01*
X78720672Y-79206000D01*
X78720672Y-78656000D01*
X78716638Y-78615038D01*
X78757600Y-78619072D01*
X79307600Y-78619072D01*
X79432082Y-78606812D01*
X79432600Y-78606655D01*
X79433118Y-78606812D01*
X79557600Y-78619072D01*
X80107600Y-78619072D01*
X80232082Y-78606812D01*
X80232600Y-78606655D01*
X80233118Y-78606812D01*
X80357600Y-78619072D01*
X80907600Y-78619072D01*
X81032082Y-78606812D01*
X81033263Y-78606454D01*
X81146850Y-78616000D01*
X81238933Y-78523917D01*
X81262094Y-78511537D01*
X81358785Y-78432185D01*
X81432600Y-78342241D01*
X81506415Y-78432185D01*
X81603106Y-78511537D01*
X81626267Y-78523917D01*
X81718350Y-78616000D01*
X81831937Y-78606454D01*
X81833118Y-78606812D01*
X81957600Y-78619072D01*
X82507600Y-78619072D01*
X82632082Y-78606812D01*
X82632600Y-78606655D01*
X82633118Y-78606812D01*
X82757600Y-78619072D01*
X83307600Y-78619072D01*
X83432082Y-78606812D01*
X83432600Y-78606655D01*
X83433118Y-78606812D01*
X83557600Y-78619072D01*
X84107600Y-78619072D01*
X84232082Y-78606812D01*
X84232600Y-78606655D01*
X84233118Y-78606812D01*
X84357600Y-78619072D01*
X84907600Y-78619072D01*
X85032082Y-78606812D01*
X85032600Y-78606655D01*
X85033118Y-78606812D01*
X85157600Y-78619072D01*
X85707600Y-78619072D01*
X85832082Y-78606812D01*
X85832600Y-78606655D01*
X85833118Y-78606812D01*
X85957600Y-78619072D01*
X86507600Y-78619072D01*
X86632082Y-78606812D01*
X86632600Y-78606655D01*
X86633118Y-78606812D01*
X86757600Y-78619072D01*
X87307600Y-78619072D01*
X87350152Y-78614881D01*
X87347600Y-78645250D01*
X87506350Y-78804000D01*
X88605600Y-78804000D01*
X88605600Y-78179750D01*
X88859600Y-78179750D01*
X88859600Y-78804000D01*
X89958850Y-78804000D01*
X90117600Y-78645250D01*
X90107777Y-78528369D01*
X90070865Y-78408855D01*
X90011346Y-78298839D01*
X89931508Y-78202549D01*
X89834418Y-78123684D01*
X89777731Y-78093750D01*
X90736928Y-78093750D01*
X90740000Y-78295500D01*
X90898750Y-78454250D01*
X91948000Y-78454250D01*
X91948000Y-77617500D01*
X92202000Y-77617500D01*
X92202000Y-78454250D01*
X93251250Y-78454250D01*
X93410000Y-78295500D01*
X93413072Y-78093750D01*
X93400812Y-77969268D01*
X93364502Y-77849570D01*
X93305537Y-77739256D01*
X93226185Y-77642565D01*
X93129494Y-77563213D01*
X93019180Y-77504248D01*
X92899482Y-77467938D01*
X92775000Y-77455678D01*
X92360750Y-77458750D01*
X92202000Y-77617500D01*
X91948000Y-77617500D01*
X91789250Y-77458750D01*
X91375000Y-77455678D01*
X91250518Y-77467938D01*
X91130820Y-77504248D01*
X91020506Y-77563213D01*
X90923815Y-77642565D01*
X90844463Y-77739256D01*
X90785498Y-77849570D01*
X90749188Y-77969268D01*
X90736928Y-78093750D01*
X89777731Y-78093750D01*
X89723808Y-78065276D01*
X89603929Y-78029570D01*
X89479387Y-78017936D01*
X89018350Y-78021000D01*
X88859600Y-78179750D01*
X88605600Y-78179750D01*
X88446850Y-78021000D01*
X87985813Y-78017936D01*
X87941628Y-78022064D01*
X87945672Y-77981000D01*
X87945672Y-76481000D01*
X87933412Y-76356518D01*
X87897102Y-76236820D01*
X87838137Y-76126506D01*
X87758785Y-76029815D01*
X87662094Y-75950463D01*
X87551780Y-75891498D01*
X87432082Y-75855188D01*
X87307600Y-75842928D01*
X86757600Y-75842928D01*
X86633118Y-75855188D01*
X86632600Y-75855345D01*
X86632082Y-75855188D01*
X86507600Y-75842928D01*
X85957600Y-75842928D01*
X85833118Y-75855188D01*
X85832600Y-75855345D01*
X85832082Y-75855188D01*
X85707600Y-75842928D01*
X85157600Y-75842928D01*
X85033118Y-75855188D01*
X85032600Y-75855345D01*
X85032082Y-75855188D01*
X84907600Y-75842928D01*
X84357600Y-75842928D01*
X84233118Y-75855188D01*
X84232600Y-75855345D01*
X84232082Y-75855188D01*
X84107600Y-75842928D01*
X83794600Y-75842928D01*
X83794600Y-70674930D01*
X84014846Y-70454684D01*
X84043922Y-70430822D01*
X84106256Y-70354867D01*
X84139145Y-70314793D01*
X84161231Y-70273472D01*
X84202500Y-70273472D01*
X84326982Y-70261212D01*
X84446680Y-70224902D01*
X84556994Y-70165937D01*
X84653685Y-70086585D01*
X84733037Y-69989894D01*
X84767083Y-69926200D01*
X86184397Y-69926200D01*
X86270808Y-70031492D01*
X86404436Y-70141158D01*
X86556891Y-70222647D01*
X86722315Y-70272828D01*
X86894350Y-70289772D01*
X87806850Y-70289772D01*
X87978885Y-70272828D01*
X88144309Y-70222647D01*
X88296764Y-70141158D01*
X88430392Y-70031492D01*
X88540058Y-69897864D01*
X88621547Y-69745409D01*
X88671728Y-69579985D01*
X88688672Y-69407950D01*
X88688672Y-68920450D01*
X88671728Y-68748415D01*
X88621547Y-68582991D01*
X88540058Y-68430536D01*
X88430392Y-68296908D01*
X88424036Y-68291692D01*
X88501785Y-68227885D01*
X88581137Y-68131194D01*
X88640102Y-68020880D01*
X88676412Y-67901182D01*
X88688672Y-67776700D01*
X88685600Y-67574950D01*
X88526850Y-67416200D01*
X87477600Y-67416200D01*
X87477600Y-67436200D01*
X87223600Y-67436200D01*
X87223600Y-67416200D01*
X86174350Y-67416200D01*
X86015600Y-67574950D01*
X86012528Y-67776700D01*
X86024788Y-67901182D01*
X86061098Y-68020880D01*
X86120063Y-68131194D01*
X86199415Y-68227885D01*
X86277164Y-68291692D01*
X86270808Y-68296908D01*
X86184397Y-68402200D01*
X84837302Y-68402200D01*
X84828312Y-68310918D01*
X84792002Y-68191220D01*
X84788891Y-68185400D01*
X84792002Y-68179580D01*
X84828312Y-68059882D01*
X84840572Y-67935400D01*
X84837500Y-67621150D01*
X84678750Y-67462400D01*
X83629500Y-67462400D01*
X83629500Y-67482400D01*
X83375500Y-67482400D01*
X83375500Y-67462400D01*
X83355500Y-67462400D01*
X83355500Y-67208400D01*
X83375500Y-67208400D01*
X83375500Y-66259150D01*
X83629500Y-66259150D01*
X83629500Y-67208400D01*
X84678750Y-67208400D01*
X84837500Y-67049650D01*
X84839923Y-66801700D01*
X86012528Y-66801700D01*
X86015600Y-67003450D01*
X86174350Y-67162200D01*
X87223600Y-67162200D01*
X87223600Y-66325450D01*
X87477600Y-66325450D01*
X87477600Y-67162200D01*
X88526850Y-67162200D01*
X88685600Y-67003450D01*
X88688672Y-66801700D01*
X88676412Y-66677218D01*
X88640102Y-66557520D01*
X88581137Y-66447206D01*
X88501785Y-66350515D01*
X88405094Y-66271163D01*
X88294780Y-66212198D01*
X88175082Y-66175888D01*
X88050600Y-66163628D01*
X87636350Y-66166700D01*
X87477600Y-66325450D01*
X87223600Y-66325450D01*
X87064850Y-66166700D01*
X86650600Y-66163628D01*
X86526118Y-66175888D01*
X86406420Y-66212198D01*
X86296106Y-66271163D01*
X86199415Y-66350515D01*
X86120063Y-66447206D01*
X86061098Y-66557520D01*
X86024788Y-66677218D01*
X86012528Y-66801700D01*
X84839923Y-66801700D01*
X84840572Y-66735400D01*
X84828312Y-66610918D01*
X84792002Y-66491220D01*
X84733037Y-66380906D01*
X84653685Y-66284215D01*
X84556994Y-66204863D01*
X84446680Y-66145898D01*
X84326982Y-66109588D01*
X84202500Y-66097328D01*
X83788250Y-66100400D01*
X83629500Y-66259150D01*
X83375500Y-66259150D01*
X83216750Y-66100400D01*
X82802500Y-66097328D01*
X82678018Y-66109588D01*
X82558320Y-66145898D01*
X82448006Y-66204863D01*
X82402500Y-66242209D01*
X82356994Y-66204863D01*
X82246680Y-66145898D01*
X82126982Y-66109588D01*
X82002500Y-66097328D01*
X80602500Y-66097328D01*
X80478018Y-66109588D01*
X80358320Y-66145898D01*
X80248006Y-66204863D01*
X80151315Y-66284215D01*
X80071963Y-66380906D01*
X80012998Y-66491220D01*
X79976688Y-66610918D01*
X79970534Y-66673405D01*
X79923108Y-66698755D01*
X79807078Y-66793978D01*
X79783216Y-66823054D01*
X79732470Y-66873800D01*
X79051130Y-66873800D01*
X78860684Y-66683354D01*
X78836822Y-66654278D01*
X78749160Y-66582336D01*
X78684858Y-66462036D01*
X78575192Y-66328408D01*
X78441564Y-66218742D01*
X78289109Y-66137253D01*
X78123685Y-66087072D01*
X77951650Y-66070128D01*
X77039150Y-66070128D01*
X76867115Y-66087072D01*
X76701691Y-66137253D01*
X76549236Y-66218742D01*
X76415608Y-66328408D01*
X76305942Y-66462036D01*
X76224453Y-66614491D01*
X76174272Y-66779915D01*
X76157328Y-66951950D01*
X76157328Y-67439450D01*
X76174272Y-67611485D01*
X76224453Y-67776909D01*
X76305942Y-67929364D01*
X76415608Y-68062992D01*
X76421964Y-68068208D01*
X76344215Y-68132015D01*
X76264863Y-68228706D01*
X76205898Y-68339020D01*
X76169588Y-68458718D01*
X76157328Y-68583200D01*
X76160400Y-68784950D01*
X76319150Y-68943700D01*
X77368400Y-68943700D01*
X77368400Y-68923700D01*
X77622400Y-68923700D01*
X77622400Y-68943700D01*
X78671650Y-68943700D01*
X78830400Y-68784950D01*
X78833472Y-68583200D01*
X78821212Y-68458718D01*
X78802733Y-68397800D01*
X79286100Y-68397800D01*
X79286101Y-71441599D01*
X79282414Y-71479032D01*
X79297127Y-71628410D01*
X79340699Y-71772047D01*
X79411455Y-71904424D01*
X79448972Y-71950138D01*
X79506679Y-72020454D01*
X79535749Y-72044311D01*
X81470600Y-73979162D01*
X81470601Y-76073455D01*
X81439497Y-76111355D01*
X81398953Y-75977697D01*
X81375587Y-75933983D01*
X81322299Y-75834288D01*
X81244992Y-75740089D01*
X81244989Y-75740086D01*
X81219141Y-75708590D01*
X81187645Y-75682742D01*
X80048157Y-74543255D01*
X80022300Y-74511749D01*
X79896601Y-74408591D01*
X79753193Y-74331937D01*
X79597585Y-74284734D01*
X79476312Y-74272790D01*
X79476309Y-74272790D01*
X79435759Y-74268796D01*
X79395209Y-74272790D01*
X77761360Y-74272790D01*
X77720809Y-74268796D01*
X77680259Y-74272790D01*
X77680257Y-74272790D01*
X77558984Y-74284734D01*
X77403376Y-74331937D01*
X77259968Y-74408591D01*
X77134269Y-74511749D01*
X77129982Y-74516972D01*
X77124759Y-74521259D01*
X77072349Y-74585122D01*
X77021601Y-74646958D01*
X76982664Y-74719804D01*
X76834218Y-74868250D01*
X76520340Y-74868250D01*
X76486042Y-74826458D01*
X76479686Y-74821242D01*
X76557435Y-74757435D01*
X76636787Y-74660744D01*
X76695752Y-74550430D01*
X76732062Y-74430732D01*
X76744322Y-74306250D01*
X76741250Y-74104500D01*
X76582500Y-73945750D01*
X75533250Y-73945750D01*
X75533250Y-73965750D01*
X75279250Y-73965750D01*
X75279250Y-73945750D01*
X75259250Y-73945750D01*
X75259250Y-73691750D01*
X75279250Y-73691750D01*
X75279250Y-72855000D01*
X75533250Y-72855000D01*
X75533250Y-73691750D01*
X76582500Y-73691750D01*
X76741250Y-73533000D01*
X76744322Y-73331250D01*
X76732062Y-73206768D01*
X76695752Y-73087070D01*
X76636787Y-72976756D01*
X76557435Y-72880065D01*
X76460744Y-72800713D01*
X76350430Y-72741748D01*
X76230732Y-72705438D01*
X76106250Y-72693178D01*
X75692000Y-72696250D01*
X75533250Y-72855000D01*
X75279250Y-72855000D01*
X75120500Y-72696250D01*
X74706250Y-72693178D01*
X74581768Y-72705438D01*
X74462070Y-72741748D01*
X74390250Y-72780137D01*
X74315356Y-72730095D01*
X74126998Y-72652074D01*
X73927039Y-72612300D01*
X73723161Y-72612300D01*
X73523202Y-72652074D01*
X73334844Y-72730095D01*
X73172005Y-72838901D01*
X73024959Y-72760303D01*
X72859535Y-72710122D01*
X72687500Y-72693178D01*
X71775000Y-72693178D01*
X71602965Y-72710122D01*
X71437541Y-72760303D01*
X71285086Y-72841792D01*
X71151458Y-72951458D01*
X71041792Y-73085086D01*
X70960303Y-73237541D01*
X70910122Y-73402965D01*
X70893178Y-73575000D01*
X70893178Y-74062500D01*
X70910122Y-74234535D01*
X70960303Y-74399959D01*
X71041792Y-74552414D01*
X71151458Y-74686042D01*
X71237006Y-74756250D01*
X71151458Y-74826458D01*
X71041792Y-74960086D01*
X71008885Y-75021651D01*
X70962556Y-74990695D01*
X70774198Y-74912674D01*
X70574239Y-74872900D01*
X70370361Y-74872900D01*
X70170402Y-74912674D01*
X69982044Y-74990695D01*
X69812526Y-75103963D01*
X69668363Y-75248126D01*
X69555095Y-75417644D01*
X69477074Y-75606002D01*
X69437300Y-75805961D01*
X69437300Y-76009839D01*
X69477074Y-76209798D01*
X69555095Y-76398156D01*
X69668363Y-76567674D01*
X69812526Y-76711837D01*
X69982044Y-76825105D01*
X70170402Y-76903126D01*
X70370361Y-76942900D01*
X70574239Y-76942900D01*
X70774198Y-76903126D01*
X70962556Y-76825105D01*
X71132074Y-76711837D01*
X71174011Y-76669900D01*
X71284101Y-76669900D01*
X71285086Y-76670708D01*
X71437541Y-76752197D01*
X71602965Y-76802378D01*
X71679348Y-76809901D01*
X71689829Y-76822672D01*
X71718899Y-76846529D01*
X72549921Y-77677551D01*
X72573778Y-77706622D01*
X72689808Y-77801845D01*
X72822185Y-77872602D01*
X72965822Y-77916174D01*
X73077774Y-77927200D01*
X73077776Y-77927200D01*
X73115199Y-77930886D01*
X73152622Y-77927200D01*
X76886477Y-77927200D01*
X76923900Y-77930886D01*
X76961323Y-77927200D01*
X76961326Y-77927200D01*
X77073278Y-77916174D01*
X77216915Y-77872602D01*
X77349292Y-77801845D01*
X77465322Y-77706622D01*
X77489184Y-77677546D01*
X78119528Y-77047202D01*
X78119528Y-77981000D01*
X78123562Y-78021962D01*
X78082600Y-78017928D01*
X76582600Y-78017928D01*
X76458118Y-78030188D01*
X76338420Y-78066498D01*
X76228106Y-78125463D01*
X76131415Y-78204815D01*
X76052063Y-78301506D01*
X75993098Y-78411820D01*
X75956788Y-78531518D01*
X75944528Y-78656000D01*
X75944528Y-79206000D01*
X75956788Y-79330482D01*
X75956945Y-79331000D01*
X75956788Y-79331518D01*
X75944528Y-79456000D01*
X75944528Y-80006000D01*
X75956788Y-80130482D01*
X75956945Y-80131000D01*
X75956788Y-80131518D01*
X75944528Y-80256000D01*
X75944528Y-80806000D01*
X75956788Y-80930482D01*
X75956945Y-80931000D01*
X75956788Y-80931518D01*
X75944528Y-81056000D01*
X75944528Y-81305500D01*
X75669911Y-81305500D01*
X75551674Y-81187263D01*
X75382156Y-81073995D01*
X75193798Y-80995974D01*
X74993839Y-80956200D01*
X74789961Y-80956200D01*
X74590002Y-80995974D01*
X74401644Y-81073995D01*
X74232126Y-81187263D01*
X74087963Y-81331426D01*
X74076270Y-81348927D01*
X74053447Y-81273691D01*
X73971958Y-81121236D01*
X73862292Y-80987608D01*
X73728664Y-80877942D01*
X73576209Y-80796453D01*
X73410785Y-80746272D01*
X73238750Y-80729328D01*
X72751250Y-80729328D01*
X72579215Y-80746272D01*
X72413791Y-80796453D01*
X72261336Y-80877942D01*
X72127708Y-80987608D01*
X72122492Y-80993964D01*
X72058685Y-80916215D01*
X71961994Y-80836863D01*
X71851680Y-80777898D01*
X71731982Y-80741588D01*
X71607500Y-80729328D01*
X71405750Y-80732400D01*
X71247000Y-80891150D01*
X71247000Y-81940400D01*
X71267000Y-81940400D01*
X71267000Y-82194400D01*
X71247000Y-82194400D01*
X71247000Y-83243650D01*
X71405750Y-83402400D01*
X71607500Y-83405472D01*
X71731982Y-83393212D01*
X71851680Y-83356902D01*
X71961994Y-83297937D01*
X72058685Y-83218585D01*
X72122492Y-83140836D01*
X72127708Y-83147192D01*
X72261336Y-83256858D01*
X72413791Y-83338347D01*
X72579215Y-83388528D01*
X72751250Y-83405472D01*
X73238750Y-83405472D01*
X73410785Y-83388528D01*
X73576209Y-83338347D01*
X73706288Y-83268818D01*
X73880821Y-83443351D01*
X73904678Y-83472422D01*
X73933748Y-83496279D01*
X74020707Y-83567645D01*
X74068228Y-83593045D01*
X74153085Y-83638402D01*
X74296722Y-83681974D01*
X74408674Y-83693000D01*
X74408677Y-83693000D01*
X74446100Y-83696686D01*
X74483523Y-83693000D01*
X76175056Y-83693000D01*
X76221359Y-83731000D01*
X76175056Y-83769000D01*
X51725031Y-83769000D01*
X51600100Y-83644070D01*
X51600100Y-82767400D01*
X69994428Y-82767400D01*
X70006688Y-82891882D01*
X70042998Y-83011580D01*
X70101963Y-83121894D01*
X70181315Y-83218585D01*
X70278006Y-83297937D01*
X70388320Y-83356902D01*
X70508018Y-83393212D01*
X70632500Y-83405472D01*
X70834250Y-83402400D01*
X70993000Y-83243650D01*
X70993000Y-82194400D01*
X70156250Y-82194400D01*
X69997500Y-82353150D01*
X69994428Y-82767400D01*
X51600100Y-82767400D01*
X51600100Y-82587423D01*
X51603786Y-82550000D01*
X51599414Y-82505607D01*
X51589074Y-82400622D01*
X51545502Y-82256985D01*
X51474745Y-82124608D01*
X51379522Y-82008578D01*
X51350443Y-81984714D01*
X51204321Y-81838591D01*
X51146189Y-81767758D01*
X51122332Y-81738688D01*
X51093263Y-81714832D01*
X50745831Y-81367400D01*
X69994428Y-81367400D01*
X69997500Y-81781650D01*
X70156250Y-81940400D01*
X70993000Y-81940400D01*
X70993000Y-80891150D01*
X70834250Y-80732400D01*
X70632500Y-80729328D01*
X70508018Y-80741588D01*
X70388320Y-80777898D01*
X70278006Y-80836863D01*
X70181315Y-80916215D01*
X70101963Y-81012906D01*
X70042998Y-81123220D01*
X70006688Y-81242918D01*
X69994428Y-81367400D01*
X50745831Y-81367400D01*
X49009300Y-79630870D01*
X49009300Y-79601730D01*
X49991546Y-78619484D01*
X50020622Y-78595622D01*
X50089629Y-78511537D01*
X50115845Y-78479593D01*
X50186601Y-78347216D01*
X50186602Y-78347215D01*
X50230174Y-78203578D01*
X50241200Y-78091626D01*
X50241200Y-78091623D01*
X50241470Y-78088884D01*
X50272909Y-78079347D01*
X50425364Y-77997858D01*
X50558992Y-77888192D01*
X50668658Y-77754564D01*
X50750147Y-77602109D01*
X50800328Y-77436685D01*
X50817272Y-77264650D01*
X50817272Y-76777150D01*
X50800328Y-76605115D01*
X50750147Y-76439691D01*
X50668658Y-76287236D01*
X50558992Y-76153608D01*
X50473444Y-76083400D01*
X50558992Y-76013192D01*
X50668658Y-75879564D01*
X50750147Y-75727109D01*
X50800328Y-75561685D01*
X50817272Y-75389650D01*
X50817272Y-74902150D01*
X50800328Y-74730115D01*
X50750147Y-74564691D01*
X50668658Y-74412236D01*
X50558992Y-74278608D01*
X50425364Y-74168942D01*
X50272909Y-74087453D01*
X50107485Y-74037272D01*
X49935450Y-74020328D01*
X49393075Y-74020328D01*
X48704775Y-73332029D01*
X48704775Y-72668580D01*
X48708331Y-72632475D01*
X48694140Y-72488390D01*
X48680427Y-72443185D01*
X48652112Y-72349842D01*
X48583862Y-72222155D01*
X48528761Y-72155015D01*
X48515028Y-72138281D01*
X48515025Y-72138278D01*
X48492012Y-72110237D01*
X48463972Y-72087225D01*
X48185000Y-71808254D01*
X48185000Y-71350572D01*
X48675000Y-71350572D01*
X48799482Y-71338312D01*
X48824266Y-71330794D01*
X48843639Y-71336904D01*
X48943250Y-71347500D01*
X49102000Y-71188750D01*
X49102000Y-71183533D01*
X49126185Y-71163685D01*
X49205537Y-71066994D01*
X49264502Y-70956680D01*
X49300812Y-70836982D01*
X49313072Y-70712500D01*
X49313072Y-68462500D01*
X49300812Y-68338018D01*
X49264502Y-68218320D01*
X49205537Y-68108006D01*
X49126185Y-68011315D01*
X49102000Y-67991467D01*
X49102000Y-67986250D01*
X49348000Y-67986250D01*
X49348000Y-69460500D01*
X49372000Y-69460500D01*
X49372000Y-69714500D01*
X49348000Y-69714500D01*
X49348000Y-71188750D01*
X49506750Y-71347500D01*
X49606361Y-71336904D01*
X49725652Y-71299279D01*
X49835311Y-71239104D01*
X49931123Y-71158693D01*
X50009406Y-71061134D01*
X50065123Y-70954078D01*
X50219866Y-71142634D01*
X50445986Y-71328206D01*
X50703966Y-71466099D01*
X50983889Y-71551013D01*
X51275000Y-71579685D01*
X51566110Y-71551013D01*
X51846033Y-71466099D01*
X52104013Y-71328206D01*
X52330134Y-71142634D01*
X52515706Y-70916514D01*
X52653599Y-70658534D01*
X52738513Y-70378611D01*
X52760000Y-70160450D01*
X52760000Y-69558200D01*
X76157328Y-69558200D01*
X76169588Y-69682682D01*
X76205898Y-69802380D01*
X76264863Y-69912694D01*
X76344215Y-70009385D01*
X76440906Y-70088737D01*
X76551220Y-70147702D01*
X76670918Y-70184012D01*
X76795400Y-70196272D01*
X77209650Y-70193200D01*
X77368400Y-70034450D01*
X77368400Y-69197700D01*
X77622400Y-69197700D01*
X77622400Y-70034450D01*
X77781150Y-70193200D01*
X78195400Y-70196272D01*
X78319882Y-70184012D01*
X78439580Y-70147702D01*
X78549894Y-70088737D01*
X78646585Y-70009385D01*
X78725937Y-69912694D01*
X78784902Y-69802380D01*
X78821212Y-69682682D01*
X78833472Y-69558200D01*
X78830400Y-69356450D01*
X78671650Y-69197700D01*
X77622400Y-69197700D01*
X77368400Y-69197700D01*
X76319150Y-69197700D01*
X76160400Y-69356450D01*
X76157328Y-69558200D01*
X52760000Y-69558200D01*
X52760000Y-69014550D01*
X52738513Y-68796389D01*
X52653599Y-68516466D01*
X52515706Y-68258486D01*
X52330134Y-68032366D01*
X52104014Y-67846794D01*
X51846034Y-67708901D01*
X51566111Y-67623987D01*
X51275000Y-67595315D01*
X50983890Y-67623987D01*
X50703967Y-67708901D01*
X50445987Y-67846794D01*
X50219867Y-68032366D01*
X50065123Y-68220921D01*
X50009406Y-68113866D01*
X49931123Y-68016307D01*
X49835311Y-67935896D01*
X49725652Y-67875721D01*
X49606361Y-67838096D01*
X49506750Y-67827500D01*
X49348000Y-67986250D01*
X49102000Y-67986250D01*
X48943250Y-67827500D01*
X48843639Y-67838096D01*
X48824266Y-67844206D01*
X48799482Y-67836688D01*
X48675000Y-67824428D01*
X48175000Y-67824428D01*
X48050518Y-67836688D01*
X48025000Y-67844429D01*
X47999482Y-67836688D01*
X47875000Y-67824428D01*
X47375000Y-67824428D01*
X47250518Y-67836688D01*
X47225000Y-67844429D01*
X47199482Y-67836688D01*
X47075000Y-67824428D01*
X46575000Y-67824428D01*
X46450518Y-67836688D01*
X46425000Y-67844429D01*
X46399482Y-67836688D01*
X46275000Y-67824428D01*
X45775000Y-67824428D01*
X45650518Y-67836688D01*
X45530820Y-67872998D01*
X45420506Y-67931963D01*
X45323815Y-68011315D01*
X45244463Y-68108006D01*
X45185498Y-68218320D01*
X45184754Y-68220771D01*
X45030134Y-68032366D01*
X44804014Y-67846794D01*
X44546034Y-67708901D01*
X44266111Y-67623987D01*
X43975000Y-67595315D01*
X43683890Y-67623987D01*
X43403967Y-67708901D01*
X43145987Y-67846794D01*
X42919867Y-68032366D01*
X42734294Y-68258486D01*
X42596401Y-68516466D01*
X42511487Y-68796389D01*
X42490000Y-69014550D01*
X42490000Y-70160449D01*
X42511487Y-70378610D01*
X42596401Y-70658533D01*
X42734294Y-70916513D01*
X42919866Y-71142634D01*
X43145986Y-71328206D01*
X43403966Y-71466099D01*
X43683889Y-71551013D01*
X43761419Y-71558649D01*
X42307461Y-73012607D01*
X42275960Y-73038459D01*
X42250109Y-73069959D01*
X42172801Y-73164158D01*
X42096147Y-73307567D01*
X42048945Y-73463174D01*
X42033006Y-73625000D01*
X42037001Y-73665560D01*
X42037000Y-80518507D01*
X41897650Y-80560778D01*
X41744114Y-80642845D01*
X41609538Y-80753288D01*
X41499095Y-80887864D01*
X41417028Y-81041400D01*
X41366492Y-81207996D01*
X41349428Y-81381250D01*
X41349428Y-82131250D01*
X41366492Y-82304504D01*
X41417028Y-82471100D01*
X41499095Y-82624636D01*
X41609538Y-82759212D01*
X41744114Y-82869655D01*
X41897650Y-82951722D01*
X42064246Y-83002258D01*
X42237500Y-83019322D01*
X43487500Y-83019322D01*
X43660754Y-83002258D01*
X43827350Y-82951722D01*
X43980886Y-82869655D01*
X44115462Y-82759212D01*
X44225905Y-82624636D01*
X44307972Y-82471100D01*
X44358508Y-82304504D01*
X44375572Y-82131250D01*
X44375572Y-81381250D01*
X44358508Y-81207996D01*
X44307972Y-81041400D01*
X44225905Y-80887864D01*
X44115462Y-80753288D01*
X43980886Y-80642845D01*
X43827350Y-80560778D01*
X43688000Y-80518507D01*
X43688000Y-73966932D01*
X46265000Y-71389932D01*
X46265001Y-72262985D01*
X46261444Y-72299100D01*
X46275635Y-72443185D01*
X46317664Y-72581733D01*
X46385914Y-72709420D01*
X46477763Y-72821338D01*
X46505808Y-72844354D01*
X46784775Y-73123322D01*
X46784775Y-73332028D01*
X46123626Y-73993178D01*
X45581250Y-73993178D01*
X45409215Y-74010122D01*
X45243791Y-74060303D01*
X45091336Y-74141792D01*
X44957708Y-74251458D01*
X44848042Y-74385086D01*
X44766553Y-74537541D01*
X44716372Y-74702965D01*
X44699428Y-74875000D01*
X44699428Y-75362500D01*
X44716372Y-75534535D01*
X44766553Y-75699959D01*
X44848042Y-75852414D01*
X44957708Y-75986042D01*
X45043256Y-76056250D01*
X44957708Y-76126458D01*
X44848042Y-76260086D01*
X44766553Y-76412541D01*
X44716372Y-76577965D01*
X44699428Y-76750000D01*
X44699428Y-77237500D01*
X44716372Y-77409535D01*
X44766553Y-77574959D01*
X44848042Y-77727414D01*
X44957708Y-77861042D01*
X45091336Y-77970708D01*
X45243791Y-78052197D01*
X45409215Y-78102378D01*
X45485598Y-78109901D01*
X45496079Y-78122672D01*
X45525149Y-78146529D01*
X46888400Y-79509781D01*
X46888401Y-80442467D01*
X46884714Y-80479900D01*
X46899427Y-80629278D01*
X46942999Y-80772915D01*
X47013755Y-80905292D01*
X47063694Y-80966142D01*
X47108979Y-81021322D01*
X47138049Y-81045179D01*
X49364900Y-83272031D01*
X49364901Y-84214367D01*
X49361214Y-84251800D01*
X49375927Y-84401178D01*
X49382523Y-84422923D01*
X49346610Y-84426460D01*
X44375572Y-84426460D01*
X44375572Y-84181250D01*
X44358508Y-84007996D01*
X44307972Y-83841400D01*
X44225905Y-83687864D01*
X44115462Y-83553288D01*
X43980886Y-83442845D01*
X43827350Y-83360778D01*
X43660754Y-83310242D01*
X43487500Y-83293178D01*
X42237500Y-83293178D01*
X42064246Y-83310242D01*
X41897650Y-83360778D01*
X41744114Y-83442845D01*
X41609538Y-83553288D01*
X41499095Y-83687864D01*
X41417028Y-83841400D01*
X41366492Y-84007996D01*
X41349428Y-84181250D01*
X41349428Y-84931250D01*
X41366492Y-85104504D01*
X41417028Y-85271100D01*
X41499095Y-85424636D01*
X41609538Y-85559212D01*
X41744114Y-85669655D01*
X41897650Y-85751722D01*
X42064246Y-85802258D01*
X42237500Y-85819322D01*
X42955929Y-85819322D01*
X42971669Y-85838501D01*
X43003165Y-85864349D01*
X43003168Y-85864352D01*
X43097367Y-85941659D01*
X43240056Y-86017928D01*
X43240776Y-86018313D01*
X43396384Y-86065516D01*
X43517657Y-86077460D01*
X43517660Y-86077460D01*
X43558210Y-86081454D01*
X43598760Y-86077460D01*
X49045228Y-86077460D01*
X49628806Y-86661039D01*
X49654659Y-86692541D01*
X49701083Y-86730640D01*
X49780357Y-86795699D01*
X49827129Y-86820699D01*
X49923766Y-86872353D01*
X50079374Y-86919556D01*
X50200647Y-86931500D01*
X50200649Y-86931500D01*
X50241200Y-86935494D01*
X50281750Y-86931500D01*
X69076268Y-86931500D01*
X74901811Y-92757045D01*
X74927659Y-92788541D01*
X74959155Y-92814389D01*
X74959158Y-92814392D01*
X75053357Y-92891699D01*
X75196766Y-92968353D01*
X75352374Y-93015556D01*
X75473647Y-93027500D01*
X75473649Y-93027500D01*
X75514200Y-93031494D01*
X75554750Y-93027500D01*
X77465742Y-93027500D01*
X77570208Y-93154792D01*
X77703836Y-93264458D01*
X77856291Y-93345947D01*
X78021715Y-93396128D01*
X78193750Y-93413072D01*
X78681250Y-93413072D01*
X78853285Y-93396128D01*
X79018709Y-93345947D01*
X79171164Y-93264458D01*
X79304792Y-93154792D01*
X79310008Y-93148436D01*
X79373815Y-93226185D01*
X79470506Y-93305537D01*
X79580820Y-93364502D01*
X79700518Y-93400812D01*
X79825000Y-93413072D01*
X80026750Y-93410000D01*
X80185500Y-93251250D01*
X80185500Y-92202000D01*
X80439500Y-92202000D01*
X80439500Y-93251250D01*
X80598250Y-93410000D01*
X80800000Y-93413072D01*
X80924482Y-93400812D01*
X81044180Y-93364502D01*
X81154494Y-93305537D01*
X81251185Y-93226185D01*
X81330537Y-93129494D01*
X81389502Y-93019180D01*
X81425812Y-92899482D01*
X81438072Y-92775000D01*
X85105678Y-92775000D01*
X85117938Y-92899482D01*
X85154248Y-93019180D01*
X85213213Y-93129494D01*
X85292565Y-93226185D01*
X85389256Y-93305537D01*
X85499570Y-93364502D01*
X85619268Y-93400812D01*
X85743750Y-93413072D01*
X85945500Y-93410000D01*
X86104250Y-93251250D01*
X86104250Y-92202000D01*
X85267500Y-92202000D01*
X85108750Y-92360750D01*
X85105678Y-92775000D01*
X81438072Y-92775000D01*
X81435000Y-92360750D01*
X81276250Y-92202000D01*
X80439500Y-92202000D01*
X80185500Y-92202000D01*
X80165500Y-92202000D01*
X80165500Y-91948000D01*
X80185500Y-91948000D01*
X80185500Y-90898750D01*
X80439500Y-90898750D01*
X80439500Y-91948000D01*
X81276250Y-91948000D01*
X81435000Y-91789250D01*
X81438072Y-91375000D01*
X81425812Y-91250518D01*
X81389502Y-91130820D01*
X81330537Y-91020506D01*
X81251185Y-90923815D01*
X81154494Y-90844463D01*
X81044180Y-90785498D01*
X80924482Y-90749188D01*
X80800000Y-90736928D01*
X80598250Y-90740000D01*
X80439500Y-90898750D01*
X80185500Y-90898750D01*
X80026750Y-90740000D01*
X80026227Y-90739992D01*
X80037326Y-90713198D01*
X80077100Y-90513239D01*
X80077100Y-90309361D01*
X80037326Y-90109402D01*
X79959602Y-89921761D01*
X79959602Y-89875834D01*
X80003106Y-89911537D01*
X80026267Y-89923917D01*
X80118350Y-90016000D01*
X80231937Y-90006454D01*
X80233118Y-90006812D01*
X80357600Y-90019072D01*
X80907600Y-90019072D01*
X81032082Y-90006812D01*
X81032600Y-90006655D01*
X81033118Y-90006812D01*
X81157600Y-90019072D01*
X81707600Y-90019072D01*
X81832082Y-90006812D01*
X81832600Y-90006655D01*
X81833118Y-90006812D01*
X81957600Y-90019072D01*
X82507600Y-90019072D01*
X82632082Y-90006812D01*
X82632600Y-90006655D01*
X82633118Y-90006812D01*
X82757600Y-90019072D01*
X83307600Y-90019072D01*
X83432082Y-90006812D01*
X83432600Y-90006655D01*
X83433118Y-90006812D01*
X83557600Y-90019072D01*
X84107600Y-90019072D01*
X84232082Y-90006812D01*
X84232600Y-90006655D01*
X84233118Y-90006812D01*
X84357600Y-90019072D01*
X84907600Y-90019072D01*
X85032082Y-90006812D01*
X85032600Y-90006655D01*
X85033118Y-90006812D01*
X85157600Y-90019072D01*
X85707600Y-90019072D01*
X85832082Y-90006812D01*
X85833263Y-90006454D01*
X85946850Y-90016000D01*
X86038933Y-89923917D01*
X86062094Y-89911537D01*
X86105598Y-89875834D01*
X86105598Y-90016000D01*
X86207101Y-90016000D01*
X86207100Y-90740000D01*
X86104248Y-90740000D01*
X86104248Y-90898748D01*
X85945500Y-90740000D01*
X85743750Y-90736928D01*
X85619268Y-90749188D01*
X85499570Y-90785498D01*
X85389256Y-90844463D01*
X85292565Y-90923815D01*
X85213213Y-91020506D01*
X85154248Y-91130820D01*
X85117938Y-91250518D01*
X85105678Y-91375000D01*
X85108750Y-91789250D01*
X85267500Y-91948000D01*
X86104250Y-91948000D01*
X86104250Y-91928000D01*
X86358250Y-91928000D01*
X86358250Y-91948000D01*
X86378250Y-91948000D01*
X86378250Y-92202000D01*
X86358250Y-92202000D01*
X86358250Y-93251250D01*
X86517000Y-93410000D01*
X86718750Y-93413072D01*
X86843232Y-93400812D01*
X86962930Y-93364502D01*
X87073244Y-93305537D01*
X87169935Y-93226185D01*
X87233742Y-93148436D01*
X87238958Y-93154792D01*
X87372586Y-93264458D01*
X87525041Y-93345947D01*
X87690465Y-93396128D01*
X87862500Y-93413072D01*
X88350000Y-93413072D01*
X88522035Y-93396128D01*
X88687459Y-93345947D01*
X88839914Y-93264458D01*
X88973542Y-93154792D01*
X89083208Y-93021164D01*
X89120551Y-92951300D01*
X89555197Y-92951300D01*
X89692444Y-93043005D01*
X89880802Y-93121026D01*
X90080761Y-93160800D01*
X90284639Y-93160800D01*
X90484598Y-93121026D01*
X90672956Y-93043005D01*
X90842474Y-92929737D01*
X90986637Y-92785574D01*
X91099905Y-92616056D01*
X91177926Y-92427698D01*
X91217700Y-92227739D01*
X91217700Y-92023861D01*
X91177926Y-91823902D01*
X91099905Y-91635544D01*
X90986637Y-91466026D01*
X90842474Y-91321863D01*
X90672956Y-91208595D01*
X90484598Y-91130574D01*
X90284639Y-91090800D01*
X90080761Y-91090800D01*
X89880802Y-91130574D01*
X89692444Y-91208595D01*
X89555197Y-91300300D01*
X89170463Y-91300300D01*
X89164697Y-91281291D01*
X89083208Y-91128836D01*
X88973542Y-90995208D01*
X88839914Y-90885542D01*
X88687459Y-90804053D01*
X88522035Y-90753872D01*
X88350000Y-90736928D01*
X87862500Y-90736928D01*
X87858100Y-90737361D01*
X87858100Y-89698146D01*
X87897102Y-89625180D01*
X87933412Y-89505482D01*
X87945672Y-89381000D01*
X87945672Y-88087500D01*
X90736928Y-88087500D01*
X90749188Y-88211982D01*
X90785498Y-88331680D01*
X90844463Y-88441994D01*
X90923815Y-88538685D01*
X91020506Y-88618037D01*
X91130820Y-88677002D01*
X91250518Y-88713312D01*
X91375000Y-88725572D01*
X91789250Y-88722500D01*
X91948000Y-88563750D01*
X91948000Y-87727000D01*
X92202000Y-87727000D01*
X92202000Y-88563750D01*
X92360750Y-88722500D01*
X92775000Y-88725572D01*
X92899482Y-88713312D01*
X93019180Y-88677002D01*
X93129494Y-88618037D01*
X93226185Y-88538685D01*
X93305537Y-88441994D01*
X93364502Y-88331680D01*
X93400812Y-88211982D01*
X93413072Y-88087500D01*
X93410000Y-87885750D01*
X93251250Y-87727000D01*
X92202000Y-87727000D01*
X91948000Y-87727000D01*
X90898750Y-87727000D01*
X90740000Y-87885750D01*
X90736928Y-88087500D01*
X87945672Y-88087500D01*
X87945672Y-87881000D01*
X87941638Y-87840038D01*
X87982600Y-87844072D01*
X89482600Y-87844072D01*
X89607082Y-87831812D01*
X89726780Y-87795502D01*
X89837094Y-87736537D01*
X89890144Y-87693000D01*
X90031577Y-87693000D01*
X90069000Y-87696686D01*
X90106423Y-87693000D01*
X90106426Y-87693000D01*
X90218378Y-87681974D01*
X90362015Y-87638402D01*
X90494392Y-87567645D01*
X90610422Y-87472422D01*
X90634284Y-87443346D01*
X90751690Y-87325940D01*
X90898750Y-87473000D01*
X91948000Y-87473000D01*
X91948000Y-87453000D01*
X92202000Y-87453000D01*
X92202000Y-87473000D01*
X93251250Y-87473000D01*
X93410000Y-87314250D01*
X93413072Y-87112500D01*
X93400812Y-86988018D01*
X93364502Y-86868320D01*
X93305537Y-86758006D01*
X93226185Y-86661315D01*
X93148436Y-86597508D01*
X93154792Y-86592292D01*
X93252627Y-86473080D01*
X102783199Y-96003652D01*
X102807056Y-96032722D01*
X102836126Y-96056579D01*
X102923085Y-96127945D01*
X102993842Y-96165765D01*
X103055463Y-96198702D01*
X103199100Y-96242274D01*
X103311052Y-96253300D01*
X103311055Y-96253300D01*
X103348478Y-96256986D01*
X103385901Y-96253300D01*
X127052686Y-96253300D01*
X127063310Y-103277869D01*
X37617709Y-104316314D01*
X37636861Y-96325000D01*
X43855678Y-96325000D01*
X43867938Y-96449482D01*
X43904248Y-96569180D01*
X43963213Y-96679494D01*
X44042565Y-96776185D01*
X44139256Y-96855537D01*
X44249570Y-96914502D01*
X44369268Y-96950812D01*
X44493750Y-96963072D01*
X45108000Y-96960000D01*
X45266750Y-96801250D01*
X45266750Y-95902000D01*
X45520750Y-95902000D01*
X45520750Y-96801250D01*
X45679500Y-96960000D01*
X46293750Y-96963072D01*
X46418232Y-96950812D01*
X46537930Y-96914502D01*
X46648244Y-96855537D01*
X46744935Y-96776185D01*
X46824287Y-96679494D01*
X46883252Y-96569180D01*
X46919562Y-96449482D01*
X46931822Y-96325000D01*
X46928750Y-96060750D01*
X46770000Y-95902000D01*
X45520750Y-95902000D01*
X45266750Y-95902000D01*
X44017500Y-95902000D01*
X43858750Y-96060750D01*
X43855678Y-96325000D01*
X37636861Y-96325000D01*
X37639497Y-95225000D01*
X43855678Y-95225000D01*
X43858750Y-95489250D01*
X44017500Y-95648000D01*
X45266750Y-95648000D01*
X45266750Y-94748750D01*
X45520750Y-94748750D01*
X45520750Y-95648000D01*
X46770000Y-95648000D01*
X46928750Y-95489250D01*
X46931822Y-95225000D01*
X50055678Y-95225000D01*
X50055678Y-96325000D01*
X50067938Y-96449482D01*
X50104248Y-96569180D01*
X50163213Y-96679494D01*
X50242565Y-96776185D01*
X50339256Y-96855537D01*
X50449570Y-96914502D01*
X50569268Y-96950812D01*
X50693750Y-96963072D01*
X52493750Y-96963072D01*
X52618232Y-96950812D01*
X52737930Y-96914502D01*
X52848244Y-96855537D01*
X52944935Y-96776185D01*
X53024287Y-96679494D01*
X53083252Y-96569180D01*
X53119562Y-96449482D01*
X53131822Y-96325000D01*
X53131822Y-95225000D01*
X53119562Y-95100518D01*
X53083252Y-94980820D01*
X53024287Y-94870506D01*
X52944935Y-94773815D01*
X52848244Y-94694463D01*
X52737930Y-94635498D01*
X52618232Y-94599188D01*
X52493750Y-94586928D01*
X50693750Y-94586928D01*
X50569268Y-94599188D01*
X50449570Y-94635498D01*
X50339256Y-94694463D01*
X50242565Y-94773815D01*
X50163213Y-94870506D01*
X50104248Y-94980820D01*
X50067938Y-95100518D01*
X50055678Y-95225000D01*
X46931822Y-95225000D01*
X46919562Y-95100518D01*
X46883252Y-94980820D01*
X46824287Y-94870506D01*
X46744935Y-94773815D01*
X46648244Y-94694463D01*
X46537930Y-94635498D01*
X46418232Y-94599188D01*
X46293750Y-94586928D01*
X45679500Y-94590000D01*
X45520750Y-94748750D01*
X45266750Y-94748750D01*
X45108000Y-94590000D01*
X44493750Y-94586928D01*
X44369268Y-94599188D01*
X44249570Y-94635498D01*
X44139256Y-94694463D01*
X44042565Y-94773815D01*
X43963213Y-94870506D01*
X43904248Y-94980820D01*
X43867938Y-95100518D01*
X43855678Y-95225000D01*
X37639497Y-95225000D01*
X37648364Y-91525000D01*
X43855678Y-91525000D01*
X43855678Y-92625000D01*
X43867938Y-92749482D01*
X43904248Y-92869180D01*
X43963213Y-92979494D01*
X44042565Y-93076185D01*
X44139256Y-93155537D01*
X44249570Y-93214502D01*
X44369268Y-93250812D01*
X44493750Y-93263072D01*
X46293750Y-93263072D01*
X46418232Y-93250812D01*
X46537930Y-93214502D01*
X46648244Y-93155537D01*
X46744935Y-93076185D01*
X46824287Y-92979494D01*
X46883252Y-92869180D01*
X46919562Y-92749482D01*
X46931822Y-92625000D01*
X46931822Y-91525000D01*
X50055678Y-91525000D01*
X50055678Y-92625000D01*
X50067938Y-92749482D01*
X50104248Y-92869180D01*
X50163213Y-92979494D01*
X50242565Y-93076185D01*
X50339256Y-93155537D01*
X50449570Y-93214502D01*
X50569268Y-93250812D01*
X50693750Y-93263072D01*
X52493750Y-93263072D01*
X52618232Y-93250812D01*
X52737930Y-93214502D01*
X52848244Y-93155537D01*
X52944935Y-93076185D01*
X53024287Y-92979494D01*
X53083252Y-92869180D01*
X53096866Y-92824300D01*
X54581389Y-92824300D01*
X54623326Y-92866237D01*
X54792844Y-92979505D01*
X54981202Y-93057526D01*
X55181161Y-93097300D01*
X55385039Y-93097300D01*
X55584998Y-93057526D01*
X55773356Y-92979505D01*
X55942874Y-92866237D01*
X56087037Y-92722074D01*
X56200305Y-92552556D01*
X56278326Y-92364198D01*
X56318100Y-92164239D01*
X56318100Y-91960361D01*
X56278326Y-91760402D01*
X56200305Y-91572044D01*
X56087037Y-91402526D01*
X55942874Y-91258363D01*
X55773356Y-91145095D01*
X55584998Y-91067074D01*
X55385039Y-91027300D01*
X55181161Y-91027300D01*
X54981202Y-91067074D01*
X54792844Y-91145095D01*
X54623326Y-91258363D01*
X54581389Y-91300300D01*
X53089161Y-91300300D01*
X53083252Y-91280820D01*
X53024287Y-91170506D01*
X52944935Y-91073815D01*
X52848244Y-90994463D01*
X52737930Y-90935498D01*
X52618232Y-90899188D01*
X52493750Y-90886928D01*
X50693750Y-90886928D01*
X50569268Y-90899188D01*
X50449570Y-90935498D01*
X50339256Y-90994463D01*
X50242565Y-91073815D01*
X50163213Y-91170506D01*
X50104248Y-91280820D01*
X50067938Y-91400518D01*
X50055678Y-91525000D01*
X46931822Y-91525000D01*
X46919562Y-91400518D01*
X46883252Y-91280820D01*
X46824287Y-91170506D01*
X46744935Y-91073815D01*
X46648244Y-90994463D01*
X46537930Y-90935498D01*
X46418232Y-90899188D01*
X46293750Y-90886928D01*
X44493750Y-90886928D01*
X44369268Y-90899188D01*
X44249570Y-90935498D01*
X44139256Y-90994463D01*
X44042565Y-91073815D01*
X43963213Y-91170506D01*
X43904248Y-91280820D01*
X43867938Y-91400518D01*
X43855678Y-91525000D01*
X37648364Y-91525000D01*
X37713099Y-64514550D01*
X42490000Y-64514550D01*
X42490000Y-65660449D01*
X42511487Y-65878610D01*
X42596401Y-66158533D01*
X42734294Y-66416513D01*
X42919866Y-66642634D01*
X43145986Y-66828206D01*
X43403966Y-66966099D01*
X43683889Y-67051013D01*
X43975000Y-67079685D01*
X44266110Y-67051013D01*
X44546033Y-66966099D01*
X44804013Y-66828206D01*
X45030134Y-66642634D01*
X45215706Y-66416514D01*
X45353599Y-66158534D01*
X45438513Y-65878611D01*
X45460000Y-65660450D01*
X45460000Y-64514550D01*
X49790000Y-64514550D01*
X49790000Y-65660449D01*
X49811487Y-65878610D01*
X49896401Y-66158533D01*
X50034294Y-66416513D01*
X50219866Y-66642634D01*
X50445986Y-66828206D01*
X50703966Y-66966099D01*
X50983889Y-67051013D01*
X51275000Y-67079685D01*
X51566110Y-67051013D01*
X51846033Y-66966099D01*
X52104013Y-66828206D01*
X52330134Y-66642634D01*
X52515706Y-66416514D01*
X52653599Y-66158534D01*
X52738513Y-65878611D01*
X52760000Y-65660450D01*
X52760000Y-64514550D01*
X52738513Y-64296389D01*
X52653599Y-64016466D01*
X52515706Y-63758486D01*
X52330134Y-63532366D01*
X52104014Y-63346794D01*
X51846034Y-63208901D01*
X51566111Y-63123987D01*
X51275000Y-63095315D01*
X50983890Y-63123987D01*
X50703967Y-63208901D01*
X50445987Y-63346794D01*
X50219867Y-63532366D01*
X50034294Y-63758486D01*
X49896401Y-64016466D01*
X49811487Y-64296389D01*
X49790000Y-64514550D01*
X45460000Y-64514550D01*
X45438513Y-64296389D01*
X45353599Y-64016466D01*
X45215706Y-63758486D01*
X45030134Y-63532366D01*
X44804014Y-63346794D01*
X44546034Y-63208901D01*
X44266111Y-63123987D01*
X43975000Y-63095315D01*
X43683890Y-63123987D01*
X43403967Y-63208901D01*
X43145987Y-63346794D01*
X42919867Y-63532366D01*
X42734294Y-63758486D01*
X42596401Y-64016466D01*
X42511487Y-64296389D01*
X42490000Y-64514550D01*
X37713099Y-64514550D01*
X37718699Y-62178305D01*
X127000193Y-61545103D01*
X127030175Y-81369000D01*
G36*
X81429500Y-68908400D02*
G01*
X81449500Y-68908400D01*
X81449500Y-69162400D01*
X81429500Y-69162400D01*
X81429500Y-70111650D01*
X81588250Y-70270400D01*
X82002500Y-70273472D01*
X82126982Y-70261212D01*
X82246680Y-70224902D01*
X82282966Y-70205507D01*
X82281626Y-70209923D01*
X82270941Y-70318415D01*
X82266914Y-70359300D01*
X82270600Y-70396723D01*
X82270600Y-72623902D01*
X80810100Y-71163402D01*
X80810100Y-70271932D01*
X81016750Y-70270400D01*
X81175500Y-70111650D01*
X81175500Y-69162400D01*
X81155500Y-69162400D01*
X81155500Y-68908400D01*
X81175500Y-68908400D01*
X81175500Y-68888400D01*
X81429500Y-68888400D01*
X81429500Y-68908400D01*
X81429500Y-68908400D01*
G37*
X81429500Y-68908400D02*
X81449500Y-68908400D01*
X81449500Y-69162400D01*
X81429500Y-69162400D01*
X81429500Y-70111650D01*
X81588250Y-70270400D01*
X82002500Y-70273472D01*
X82126982Y-70261212D01*
X82246680Y-70224902D01*
X82282966Y-70205507D01*
X82281626Y-70209923D01*
X82270941Y-70318415D01*
X82266914Y-70359300D01*
X82270600Y-70396723D01*
X82270600Y-72623902D01*
X80810100Y-71163402D01*
X80810100Y-70271932D01*
X81016750Y-70270400D01*
X81175500Y-70111650D01*
X81175500Y-69162400D01*
X81155500Y-69162400D01*
X81155500Y-68908400D01*
X81175500Y-68908400D01*
X81175500Y-68888400D01*
X81429500Y-68888400D01*
X81429500Y-68908400D01*
G36*
X102783199Y-96003652D02*
G01*
X102807056Y-96032722D01*
X102836126Y-96056579D01*
X102923085Y-96127945D01*
X102993842Y-96165765D01*
X103055463Y-96198702D01*
X103199100Y-96242274D01*
X103311052Y-96253300D01*
X103311055Y-96253300D01*
X103348478Y-96256986D01*
X103385901Y-96253300D01*
X127213567Y-96253300D01*
X127264131Y-98852976D01*
X94794961Y-97908006D01*
X94963877Y-88184329D01*
X102783199Y-96003652D01*
X102783199Y-96003652D01*
G37*
X102783199Y-96003652D02*
X102807056Y-96032722D01*
X102836126Y-96056579D01*
X102923085Y-96127945D01*
X102993842Y-96165765D01*
X103055463Y-96198702D01*
X103199100Y-96242274D01*
X103311052Y-96253300D01*
X103311055Y-96253300D01*
X103348478Y-96256986D01*
X103385901Y-96253300D01*
X127213567Y-96253300D01*
X127264131Y-98852976D01*
X94794961Y-97908006D01*
X94963877Y-88184329D01*
X102783199Y-96003652D01*
G36*
X126924067Y-81369000D02*
G01*
X95350432Y-81369000D01*
X95410828Y-81328645D01*
X126903100Y-80290988D01*
X126924067Y-81369000D01*
X126924067Y-81369000D01*
G37*
X126924067Y-81369000D02*
X95350432Y-81369000D01*
X95410828Y-81328645D01*
X126903100Y-80290988D01*
X126924067Y-81369000D01*
M02*
